{
.appVersion = "3306";
.formatVersion = 3;
DisplayStrings = (
"A/A.ss01 a/A.fina.ss01"
);
axes = (
{
name = Color;
tag = COLR;
}
);
classes = (
{
automatic = 1;

glyphs = (
{
color = 9;
glyphname = A;
kernLeft = A;
kernRight = A;
lastChange = "2025-04-23 08:47:34 +0000";
layers = (
{
anchors = (
{
name = bottom;
pos = (374,0);
},
{
name = ogonek;
pos = (613,-5);
},
{
name = top;
pos = (382,700);
}
);
background = {
shapes = (
{
closed = 0;
nodes = (
(494,0,l),
(529,700,l)
);
}
);
};
layerId = "6F9C6BB4-2DCF-443B-A55D-9CE049090094";
shapes = (
{
attr = {
lineCapEnd = 1;
lineCapStart = 1;
strokeHeight = 60;
strokeWidth = 65;
};
closed = 0;
nodes = (
(625,27,l),
(384,748,l)
);
},
{
attr = {
lineCapEnd = 1;
lineCapStart = 1;
strokeHeight = 60;
strokeWidth = 65;
};
closed = 0;
nodes = (
(217,273,l),
(535,273,l)
);
},
{
attr = {
lineCapEnd = 1;
lineCapStart = 1;
strokeHeight = 60;
strokeWidth = 65;
};
closed = 0;
nodes = (
(384,748,l),
(382,748,l)
);
},
{
attr = {
lineCapEnd = 1;
lineCapStart = 1;
strokeHeight = 60;
strokeWidth = 65;
};
closed = 0;
nodes = (
(382,748,l),
(120,27,ls)
);
}
);
width = 745;
},
{
anchors = (
{
name = bottom;
pos = (374,0);
},
{
name = ogonek;
pos = (613,-5);
},
{
name = top;
pos = (382,700);
}
);
background = {
shapes = (
{
closed = 0;
nodes = (
(494,0,l),
(529,700,l)
);
}
);
};
layerId = m002;
shapes = (
{
attr = {
lineCapEnd = 1;
lineCapStart = 1;
strokeHeight = 60;
strokeWidth = 65;
};
closed = 0;
nodes = (
(625,27,l),
(384,748,l)
);
},
{
attr = {
lineCapEnd = 1;
lineCapStart = 1;
strokeHeight = 60;
strokeWidth = 65;
};
closed = 0;
nodes = (
(217,273,l),
(535,273,l)
);
},
{
attr = {
lineCapEnd = 1;
lineCapStart = 1;
strokeHeight = 60;
strokeWidth = 65;
};
closed = 0;
nodes = (
(384,748,l),
(382,748,l)
);
},
{
attr = {
lineCapEnd = 1;
lineCapStart = 1;
strokeHeight = 60;
strokeWidth = 65;
};
closed = 0;
nodes = (
(382,748,l),
(120,27,ls)
);
},
{
alignment = -1;
ref = _GuideLine;
scale = (1.51,1);
}
);
width = 745;
},
{
anchors = (
{
name = bottom;
pos = (374,0);
},
{
name = ogonek;
pos = (613,-5);
},
{
name = top;
pos = (382,775);
}
);
background = {
shapes = (
{
closed = 0;
nodes = (
(494,0,l),
(529,700,l)
);
}
);
};
layerId = "F3447581-435E-44E2-ABAC-414C89955411";
shapes = (
{
attr = {
lineCapEnd = 1;
lineCapStart = 1;
strokeHeight = 60;
strokeWidth = 65;
};
closed = 0;
nodes = (
(625,27,l),
(384,748,l)
);
},
{
attr = {
lineCapEnd = 1;
lineCapStart = 1;
strokeHeight = 60;
strokeWidth = 65;
};
closed = 0;
nodes = (
(217,273,l),
(535,273,l)
);
},
{
attr = {
lineCapEnd = 1;
lineCapStart = 1;
strokeHeight = 60;
strokeWidth = 65;
};
closed = 0;
nodes = (
(384,748,l),
(382,748,l)
);
},
{
attr = {
lineCapEnd = 1;
lineCapStart = 1;
strokeHeight = 60;
strokeWidth = 65;
};
closed = 0;
nodes = (
(382,748,l),
(120,27,ls)
);
}
);
width = 745;
},
{
background = {
shapes = (
{
closed = 0;
nodes = (
(494,0,l),
(529,700,l)
);
}
);
};
layerId = m004;
shapes = (
{
alignment = -1;
ref = _GuideLine;
scale = (1.51,1);
}
);
width = 745;
},
{
anchors = (
{
name = bottom;
pos = (374,0);
},
{
name = ogonek;
pos = (613,-5);
},
{
name = top;
pos = (382,700);
}
);
background = {
shapes = (
{
closed = 0;
nodes = (
(494,0,l),
(529,700,l)
);
}
);
};
layerId = m005;
shapes = (
{
attr = {
lineCapEnd = 1;
lineCapStart = 1;
strokeHeight = 60;
strokeWidth = 65;
};
closed = 0;
nodes = (
(625,27,l),
(384,748,l)
);
},
{
attr = {
lineCapEnd = 1;
lineCapStart = 1;
strokeHeight = 60;
strokeWidth = 65;
};
closed = 0;
nodes = (
(217,273,l),
(535,273,l)
);
},
{
attr = {
lineCapEnd = 1;
lineCapStart = 1;
strokeHeight = 60;
strokeWidth = 65;
};
closed = 0;
nodes = (
(384,748,l),
(382,748,l)
);
},
{
attr = {
lineCapEnd = 1;
lineCapStart = 1;
strokeHeight = 60;
strokeWidth = 65;
};
closed = 0;
nodes = (
(382,748,l),
(120,27,ls)
);
},
{
alignment = -1;
ref = _GuideLine;
scale = (1.51,1);
}
);
width = 745;
}
);
unicode = 65;
},
{
color = 9;
glyphname = AE;
kernLeft = A;
kernRight = A;
lastChange = "2024-12-06 09:22:03 +0000";
layers = (
{
anchors = (
{
name = bottom;
pos = (264,0);
},
{
name = ogonek;
pos = (522,10);
},
{
name = top;
pos = (264,650);
},
{
name = topleft;
pos = (555,700);
}
);
layerId = "6F9C6BB4-2DCF-443B-A55D-9CE049090094";
shapes = (
{
attr = {
identifier = ID0x7fadab0a7ef0;
lineCapEnd = 1;
lineCapStart = 1;
strokeHeight = 60;
strokeWidth = 65;
};
closed = 0;
nodes = (
(510,724,l),
(424,724,l),
(342,724,l),
(90,27,ls)
);
},
{
attr = {
identifier = ID0x7fadab0a7ef0;
lineCapEnd = 1;
lineCapStart = 4;
strokeHeight = 60;
strokeWidth = 65;
};
closed = 0;
nodes = (
(175,259,l),
(769,424,l)
);
},
{
attr = {
identifier = ID0x7fadab051540;
lineCapEnd = 1;
lineCapStart = 1;
strokeHeight = 60;
strokeWidth = 65;
};
closed = 0;
nodes = (
(802,30,l),
(508,30,l),
(510,724,l),
(793,724,l)
);
}
);
width = 888;
},
{
anchors = (
{
name = bottom;
pos = (264,0);
},
{
name = ogonek;
pos = (522,10);
},
{
name = top;
pos = (264,650);
},
{
name = topleft;
pos = (555,700);
}
);
layerId = m002;
shapes = (
{
attr = {
identifier = ID0x7fadab0a7ef0;
lineCapEnd = 1;
lineCapStart = 1;
strokeHeight = 60;
strokeWidth = 65;
};
closed = 0;
nodes = (
(510,724,l),
(424,724,l),
(342,724,l),
(90,27,ls)
);
},
{
attr = {
identifier = ID0x7fadab0a7ef0;
lineCapEnd = 1;
lineCapStart = 4;
strokeHeight = 60;
strokeWidth = 65;
};
closed = 0;
nodes = (
(175,259,l),
(769,424,l)
);
},
{
attr = {
identifier = ID0x7fadab051540;
lineCapEnd = 1;
lineCapStart = 1;
strokeHeight = 60;
strokeWidth = 65;
};
closed = 0;
nodes = (
(802,30,l),
(508,30,l),
(510,724,l),
(793,724,l)
);
},
{
alignment = -1;
ref = _GuideLine;
scale = (1.78,1);
}
);
width = 888;
},
{
anchors = (
{
name = bottom;
pos = (264,0);
},
{
name = ogonek;
pos = (522,10);
},
{
name = top;
pos = (264,650);
},
{
name = topleft;
pos = (555,700);
}
);
layerId = "F3447581-435E-44E2-ABAC-414C89955411";
shapes = (
{
attr = {
identifier = ID0x7fadab0a7ef0;
lineCapEnd = 1;
lineCapStart = 1;
strokeHeight = 60;
strokeWidth = 65;
};
closed = 0;
nodes = (
(510,724,l),
(424,724,l),
(342,724,l),
(90,27,ls)
);
},
{
attr = {
identifier = ID0x7fadab0a7ef0;
lineCapEnd = 1;
lineCapStart = 4;
strokeHeight = 60;
strokeWidth = 65;
};
closed = 0;
nodes = (
(175,259,l),
(769,424,l)
);
},
{
attr = {
identifier = ID0x7fadab051540;
lineCapEnd = 1;
lineCapStart = 1;
strokeHeight = 60;
strokeWidth = 65;
};
closed = 0;
nodes = (
(802,30,l),
(508,30,l),
(510,724,l),
(793,724,l)
);
}
);
width = 888;
},
{
anchors = (
{
name = bottom;
pos = (264,0);
},
{
name = ogonek;
pos = (522,10);
},
{
name = top;
pos = (264,650);
},
{
name = topleft;
pos = (555,700);
}
);
layerId = m004;
shapes = (
{
alignment = -1;
ref = _GuideLine;
scale = (1.78,1);
}
);
width = 888;
},
{
anchors = (
{
name = bottom;
pos = (264,0);
},
{
name = ogonek;
pos = (522,10);
},
{
name = top;
pos = (264,650);
},
{
name = topleft;
pos = (555,700);
}
);
layerId = m005;
shapes = (
{
attr = {
identifier = ID0x7fadab0a7ef0;
lineCapEnd = 1;
lineCapStart = 1;
strokeHeight = 60;
strokeWidth = 65;
};
closed = 0;
nodes = (
(510,724,l),
(424,724,l),
(342,724,l),
(90,27,ls)
);
},
{
attr = {
identifier = ID0x7fadab0a7ef0;
lineCapEnd = 1;
lineCapStart = 4;
strokeHeight = 60;
strokeWidth = 65;
};
closed = 0;
nodes = (
(175,259,l),
(769,424,l)
);
},
{
attr = {
identifier = ID0x7fadab051540;
lineCapEnd = 1;
lineCapStart = 1;
strokeHeight = 60;
strokeWidth = 65;
};
closed = 0;
nodes = (
(802,30,l),
(508,30,l),
(510,724,l),
(793,724,l)
);
},
{
alignment = -1;
ref = _GuideLine;
scale = (1.78,1);
}
);
width = 888;
}
);
unicode = 198;
},
{
color = 9;
glyphname = B;
kernLeft = H;
kernRight = B;
lastChange = "2024-12-06 09:22:03 +0000";
layers = (
{
background = {
shapes = (
{
attr = {
lineCapEnd = 1;
lineCapStart = 1;
strokeHeight = 60;
strokeWidth = 65;
};
closed = 0;
nodes = (
(164,379,l),
(399,379,o),
(498,369,o),
(498,231,cs),
(498,54,o),
(351,2,o),
(190,2,cs),
(150,2,l),
(164,731,l),
(329,731,l),
(381,731,o),
(477,727,o),
(477,596,cs),
(477,433,o),
(344,378,o),
(164,378,c)
);
}
);
};
layerId = "6F9C6BB4-2DCF-443B-A55D-9CE049090094";
shapes = (
{
attr = {
lineCapEnd = "1";
lineCapStart = "1";
strokeHeight = 60;
strokeWidth = 65;
};
closed = 0;
nodes = (
(164,400,l),
(399,400,o),
(498,391,o),
(498,256,cs),
(498,82,o),
(351,31,o),
(190,31,cs),
(150,31,l),
(164,744,l),
(329,744,l),
(381,744,o),
(477,740,o),
(477,613,cs),
(477,453,o),
(344,399,o),
(164,399,c)
);
}
);
width = 627;
},
{
background = {
shapes = (
{
attr = {
lineCapEnd = 1;
lineCapStart = 1;
strokeHeight = 60;
strokeWidth = 65;
};
closed = 0;
nodes = (
(164,379,l),
(399,379,o),
(498,369,o),
(498,231,cs),
(498,54,o),
(351,2,o),
(190,2,cs),
(150,2,l),
(164,731,l),
(329,731,l),
(381,731,o),
(477,727,o),
(477,596,cs),
(477,433,o),
(344,378,o),
(164,378,c)
);
}
);
};
layerId = m002;
shapes = (
{
attr = {
lineCapEnd = "1";
lineCapStart = "1";
strokeHeight = 60;
strokeWidth = 65;
};
closed = 0;
nodes = (
(164,400,l),
(399,400,o),
(498,391,o),
(498,256,cs),
(498,82,o),
(351,31,o),
(190,31,cs),
(150,31,l),
(164,744,l),
(329,744,l),
(381,744,o),
(477,740,o),
(477,613,cs),
(477,453,o),
(344,399,o),
(164,399,c)
);
},
{
alignment = -1;
ref = _GuideLine;
scale = (1.26,1);
}
);
width = 627;
},
{
background = {
shapes = (
{
attr = {
lineCapEnd = 1;
lineCapStart = 1;
strokeHeight = 60;
strokeWidth = 65;
};
closed = 0;
nodes = (
(164,379,l),
(399,379,o),
(498,369,o),
(498,231,cs),
(498,54,o),
(351,2,o),
(190,2,cs),
(150,2,l),
(164,731,l),
(329,731,l),
(381,731,o),
(477,727,o),
(477,596,cs),
(477,433,o),
(344,378,o),
(164,378,c)
);
}
);
};
layerId = "F3447581-435E-44E2-ABAC-414C89955411";
shapes = (
{
attr = {
lineCapEnd = "1";
lineCapStart = "1";
strokeHeight = 60;
strokeWidth = 65;
};
closed = 0;
nodes = (
(164,400,l),
(399,400,o),
(498,391,o),
(498,256,cs),
(498,82,o),
(351,31,o),
(190,31,cs),
(150,31,l),
(164,744,l),
(329,744,l),
(381,744,o),
(477,740,o),
(477,613,cs),
(477,453,o),
(344,399,o),
(164,399,c)
);
}
);
width = 627;
},
{
background = {
shapes = (
{
attr = {
lineCapEnd = 1;
lineCapStart = 1;
strokeHeight = 60;
strokeWidth = 65;
};
closed = 0;
nodes = (
(164,379,l),
(399,379,o),
(498,369,o),
(498,231,cs),
(498,54,o),
(351,2,o),
(190,2,cs),
(150,2,l),
(164,731,l),
(329,731,l),
(381,731,o),
(477,727,o),
(477,596,cs),
(477,433,o),
(344,378,o),
(164,378,c)
);
}
);
};
layerId = m004;
shapes = (
{
alignment = -1;
ref = _GuideLine;
scale = (1.26,1);
}
);
width = 627;
},
{
background = {
shapes = (
{
attr = {
lineCapEnd = 1;
lineCapStart = 1;
strokeHeight = 60;
strokeWidth = 65;
};
closed = 0;
nodes = (
(164,379,l),
(399,379,o),
(498,369,o),
(498,231,cs),
(498,54,o),
(351,2,o),
(190,2,cs),
(150,2,l),
(164,731,l),
(329,731,l),
(381,731,o),
(477,727,o),
(477,596,cs),
(477,433,o),
(344,378,o),
(164,378,c)
);
}
);
};
layerId = m005;
shapes = (
{
attr = {
lineCapEnd = "1";
lineCapStart = "1";
strokeHeight = 60;
strokeWidth = 65;
};
closed = 0;
nodes = (
(164,400,l),
(399,400,o),
(498,391,o),
(498,256,cs),
(498,82,o),
(351,31,o),
(190,31,cs),
(150,31,l),
(164,744,l),
(329,744,l),
(381,744,o),
(477,740,o),
(477,613,cs),
(477,453,o),
(344,399,o),
(164,399,c)
);
},
{
alignment = -1;
ref = _GuideLine;
scale = (1.26,1);
}
);
width = 627;
}
);
unicode = 66;
},
{
color = 9;
glyphname = C;
kernLeft = O;
kernRight = C;
lastChange = "2025-12-15 10:03:38 +0000";
layers = (
{
anchors = (
{
name = bottom;
pos = (312,11);
},
{
name = top;
pos = (312,700);
}
);
background = {
shapes = (
{
attr = {
lineCapEnd = 1;
lineCapStart = 1;
strokeHeight = 60;
strokeWidth = 65;
};
closed = 0;
nodes = (
(534,709,l),
(473,724,o),
(420,731,o),
(373,731,cs),
(183,731,o),
(104,609,o),
(104,342,cs),
(104,147,o),
(180,0,o),
(324,0,cs),
(386,0,o),
(459,26,o),
(546,85,cs)
);
}
);
};
layerId = "6F9C6BB4-2DCF-443B-A55D-9CE049090094";
shapes = (
{
attr = {
lineCapEnd = 1;
lineCapStart = 1;
strokeHeight = 60;
strokeWidth = 65;
};
closed = 0;
nodes = (
(534,728,l),
(473,742,o),
(420,750,o),
(373,750,cs),
(183,750,o),
(104,629,o),
(104,366,cs),
(104,173,o),
(180,26,o),
(324,26,cs),
(386,26,o),
(459,52,o),
(546,109,cs)
);
}
);
width = 634;
},
{
anchors = (
{
name = bottom;
pos = (312,11);
},
{
name = top;
pos = (312,700);
}
);
background = {
shapes = (
{
attr = {
lineCapEnd = 1;
lineCapStart = 1;
strokeHeight = 60;
strokeWidth = 65;
};
closed = 0;
nodes = (
(534,709,l),
(473,724,o),
(420,731,o),
(373,731,cs),
(183,731,o),
(104,609,o),
(104,342,cs),
(104,147,o),
(180,0,o),
(324,0,cs),
(386,0,o),
(459,26,o),
(546,85,cs)
);
}
);
};
layerId = m002;
shapes = (
{
attr = {
lineCapEnd = 1;
lineCapStart = 1;
strokeHeight = 60;
strokeWidth = 65;
};
closed = 0;
nodes = (
(534,728,l),
(473,742,o),
(420,750,o),
(373,750,cs),
(183,750,o),
(104,629,o),
(104,366,cs),
(104,173,o),
(180,26,o),
(324,26,cs),
(386,26,o),
(459,52,o),
(546,109,cs)
);
},
{
alignment = -1;
ref = _GuideLine;
scale = (1.27,1);
}
);
width = 634;
},
{
anchors = (
{
name = bottom;
pos = (312,11);
},
{
name = top;
pos = (312,734);
}
);
background = {
shapes = (
{
attr = {
lineCapEnd = 1;
lineCapStart = 1;
strokeHeight = 60;
strokeWidth = 65;
};
closed = 0;
nodes = (
(534,709,l),
(473,724,o),
(420,731,o),
(373,731,cs),
(183,731,o),
(104,609,o),
(104,342,cs),
(104,147,o),
(180,0,o),
(324,0,cs),
(386,0,o),
(459,26,o),
(546,85,cs)
);
}
);
};
layerId = "F3447581-435E-44E2-ABAC-414C89955411";
shapes = (
{
attr = {
lineCapEnd = 1;
lineCapStart = 1;
strokeHeight = 60;
strokeWidth = 65;
};
closed = 0;
nodes = (
(534,728,l),
(473,742,o),
(420,750,o),
(373,750,cs),
(183,750,o),
(104,629,o),
(104,366,cs),
(104,173,o),
(180,26,o),
(324,26,cs),
(386,26,o),
(459,52,o),
(546,109,cs)
);
}
);
width = 634;
},
{
anchors = (
{
name = bottom;
pos = (312,11);
},
{
name = top;
pos = (312,700);
}
);
background = {
shapes = (
{
attr = {
lineCapEnd = 1;
lineCapStart = 1;
strokeHeight = 60;
strokeWidth = 65;
};
closed = 0;
nodes = (
(534,709,l),
(473,724,o),
(420,731,o),
(373,731,cs),
(183,731,o),
(104,609,o),
(104,342,cs),
(104,147,o),
(180,0,o),
(324,0,cs),
(386,0,o),
(459,26,o),
(546,85,cs)
);
}
);
};
layerId = m004;
shapes = (
{
alignment = -1;
ref = _GuideLine;
scale = (1.27,1);
}
);
width = 634;
},
{
anchors = (
{
name = bottom;
pos = (312,11);
},
{
name = top;
pos = (312,700);
}
);
background = {
shapes = (
{
attr = {
lineCapEnd = 1;
lineCapStart = 1;
strokeHeight = 60;
strokeWidth = 65;
};
closed = 0;
nodes = (
(534,709,l),
(473,724,o),
(420,731,o),
(373,731,cs),
(183,731,o),
(104,609,o),
(104,342,cs),
(104,147,o),
(180,0,o),
(324,0,cs),
(386,0,o),
(459,26,o),
(546,85,cs)
);
}
);
};
layerId = m005;
shapes = (
{
attr = {
lineCapEnd = 1;
lineCapStart = 1;
strokeHeight = 60;
strokeWidth = 65;
};
closed = 0;
nodes = (
(534,728,l),
(473,742,o),
(420,750,o),
(373,750,cs),
(183,750,o),
(104,629,o),
(104,366,cs),
(104,173,o),
(180,26,o),
(324,26,cs),
(386,26,o),
(459,52,o),
(546,109,cs)
);
},
{
alignment = -1;
ref = _GuideLine;
scale = (1.27,1);
}
);
width = 634;
}
);
unicode = 67;
},
{
color = 9;
glyphname = D;
kernLeft = H;
kernRight = O;
lastChange = "2024-12-06 09:22:03 +0000";
layers = (
{
background = {
shapes = (
{
closed = 0;
nodes = (
(91,700,l),
(151,700,o),
(281,700,o),
(330,700,cs),
(379,700,o),
(471,696,o),
(471,571,c)
);
},
{
closed = 0;
nodes = (
(491,220,l),
(491,51,o),
(329,0,o),
(175,0,cs),
(148,0,o),
(145,12,o),
(147,39,cs),
(208,700,l)
);
},
{
closed = 0;
nodes = (
(235,20,l),
(289,7,o),
(336,1,o),
(374,1,cs),
(468,1,o),
(543,141,o),
(577,267,cs),
(626,453,o),
(617,701,o),
(475,701,cs),
(417,701,o),
(353,658,o),
(288,596,c)
);
}
);
};
layerId = "6F9C6BB4-2DCF-443B-A55D-9CE049090094";
shapes = (
{
attr = {
lineCapEnd = 1;
lineCapStart = 1;
strokeHeight = 60;
strokeWidth = 65;
};
closed = 1;
nodes = (
(166,31,l),
(450,31,o),
(626,214,o),
(626,475,cs),
(626,620,o),
(535,744,o),
(328,744,c),
(164,744,l),
(151,31,l)
);
}
);
width = 756;
},
{
background = {
shapes = (
{
closed = 0;
nodes = (
(91,700,l),
(151,700,o),
(281,700,o),
(330,700,cs),
(379,700,o),
(471,696,o),
(471,571,c)
);
},
{
closed = 0;
nodes = (
(491,220,l),
(491,51,o),
(329,0,o),
(175,0,cs),
(148,0,o),
(145,12,o),
(147,39,cs),
(208,700,l)
);
},
{
closed = 0;
nodes = (
(235,20,l),
(289,7,o),
(336,1,o),
(374,1,cs),
(468,1,o),
(543,141,o),
(577,267,cs),
(626,453,o),
(617,701,o),
(475,701,cs),
(417,701,o),
(353,658,o),
(288,596,c)
);
}
);
};
layerId = m002;
shapes = (
{
attr = {
lineCapEnd = 1;
lineCapStart = 1;
strokeHeight = 60;
strokeWidth = 65;
};
closed = 1;
nodes = (
(166,31,l),
(450,31,o),
(626,214,o),
(626,475,cs),
(626,620,o),
(535,744,o),
(328,744,c),
(164,744,l),
(151,31,l)
);
},
{
alignment = -1;
ref = _GuideLine;
scale = (1.52,1);
}
);
width = 756;
},
{
background = {
shapes = (
{
closed = 0;
nodes = (
(91,700,l),
(151,700,o),
(281,700,o),
(330,700,cs),
(379,700,o),
(471,696,o),
(471,571,c)
);
},
{
closed = 0;
nodes = (
(491,220,l),
(491,51,o),
(329,0,o),
(175,0,cs),
(148,0,o),
(145,12,o),
(147,39,cs),
(208,700,l)
);
},
{
closed = 0;
nodes = (
(235,20,l),
(289,7,o),
(336,1,o),
(374,1,cs),
(468,1,o),
(543,141,o),
(577,267,cs),
(626,453,o),
(617,701,o),
(475,701,cs),
(417,701,o),
(353,658,o),
(288,596,c)
);
}
);
};
layerId = "F3447581-435E-44E2-ABAC-414C89955411";
shapes = (
{
attr = {
lineCapEnd = 1;
lineCapStart = 1;
strokeHeight = 60;
strokeWidth = 65;
};
closed = 1;
nodes = (
(166,31,l),
(450,31,o),
(626,214,o),
(626,475,cs),
(626,620,o),
(535,744,o),
(328,744,c),
(164,744,l),
(151,31,l)
);
}
);
width = 756;
},
{
background = {
shapes = (
{
closed = 0;
nodes = (
(91,700,l),
(151,700,o),
(281,700,o),
(330,700,cs),
(379,700,o),
(471,696,o),
(471,571,c)
);
},
{
closed = 0;
nodes = (
(491,220,l),
(491,51,o),
(329,0,o),
(175,0,cs),
(148,0,o),
(145,12,o),
(147,39,cs),
(208,700,l)
);
},
{
closed = 0;
nodes = (
(235,20,l),
(289,7,o),
(336,1,o),
(374,1,cs),
(468,1,o),
(543,141,o),
(577,267,cs),
(626,453,o),
(617,701,o),
(475,701,cs),
(417,701,o),
(353,658,o),
(288,596,c)
);
}
);
};
layerId = m004;
shapes = (
{
alignment = -1;
ref = _GuideLine;
scale = (1.52,1);
}
);
width = 756;
},
{
background = {
shapes = (
{
closed = 0;
nodes = (
(91,700,l),
(151,700,o),
(281,700,o),
(330,700,cs),
(379,700,o),
(471,696,o),
(471,571,c)
);
},
{
closed = 0;
nodes = (
(491,220,l),
(491,51,o),
(329,0,o),
(175,0,cs),
(148,0,o),
(145,12,o),
(147,39,cs),
(208,700,l)
);
},
{
closed = 0;
nodes = (
(235,20,l),
(289,7,o),
(336,1,o),
(374,1,cs),
(468,1,o),
(543,141,o),
(577,267,cs),
(626,453,o),
(617,701,o),
(475,701,cs),
(417,701,o),
(353,658,o),
(288,596,c)
);
}
);
};
layerId = m005;
shapes = (
{
attr = {
lineCapEnd = 1;
lineCapStart = 1;
strokeHeight = 60;
strokeWidth = 65;
};
closed = 1;
nodes = (
(166,31,l),
(450,31,o),
(626,214,o),
(626,475,cs),
(626,620,o),
(535,744,o),
(328,744,c),
(164,744,l),
(151,31,l)
);
},
{
alignment = -1;
ref = _GuideLine;
scale = (1.52,1);
}
);
width = 756;
}
);
unicode = 68;
},
{
glyphname = Eth;
kernLeft = Eth;
kernRight = O;
lastChange = "2024-12-06 13:52:43 +0000";
layers = (
{
layerId = "6F9C6BB4-2DCF-443B-A55D-9CE049090094";
shapes = (
{
ref = D;
},
{
attr = {
lineCapEnd = 1;
lineCapStart = 1;
strokeHeight = 50;
strokeWidth = 55;
};
closed = 0;
nodes = (
(-11,361,l),
(419,361,l)
);
}
);
width = 743;
},
{
layerId = m002;
shapes = (
{
ref = D;
},
{
attr = {
lineCapEnd = 1;
lineCapStart = 1;
strokeHeight = 50;
strokeWidth = 55;
};
closed = 0;
nodes = (
(-11,361,l),
(419,361,l)
);
}
);
width = 743;
},
{
layerId = "F3447581-435E-44E2-ABAC-414C89955411";
shapes = (
{
ref = D;
},
{
attr = {
lineCapEnd = 1;
lineCapStart = 1;
strokeHeight = 50;
strokeWidth = 55;
};
closed = 0;
nodes = (
(-11,361,l),
(419,361,l)
);
}
);
width = 743;
},
{
layerId = m004;
shapes = (
{
alignment = -1;
ref = D;
}
);
width = 743;
},
{
layerId = m005;
shapes = (
{
ref = D;
},
{
attr = {
lineCapEnd = 1;
lineCapStart = 1;
strokeHeight = 50;
strokeWidth = 55;
};
closed = 0;
nodes = (
(-11,361,l),
(419,361,l)
);
}
);
width = 743;
}
);
unicode = 208;
},
{
color = 9;
glyphname = E;
kernLeft = H;
kernRight = E;
lastChange = "2024-12-06 09:22:03 +0000";
layers = (
{
anchors = (
{
name = bottom;
pos = (305,0);
},
{
name = ogonek;
pos = (530,10);
},
{
name = top;
pos = (305,700);
},
{
name = topleft;
pos = (43,720);
}
);
layerId = "6F9C6BB4-2DCF-443B-A55D-9CE049090094";
shapes = (
{
attr = {
lineCapEnd = 1;
lineCapStart = 1;
strokeHeight = 60;
strokeWidth = 65;
};
closed = 0;
nodes = (
(456,31,l),
(150,31,l),
(165,744,l),
(459,744,l)
);
},
{
attr = {
lineCapEnd = 1;
lineCapStart = 1;
strokeHeight = 60;
strokeWidth = 65;
};
closed = 0;
nodes = (
(157,384,l),
(422,384,l)
);
}
);
width = 606;
},
{
anchors = (
{
name = bottom;
pos = (305,0);
},
{
name = ogonek;
pos = (530,10);
},
{
name = top;
pos = (305,700);
},
{
name = topleft;
pos = (43,720);
}
);
layerId = m002;
shapes = (
{
attr = {
lineCapEnd = 1;
lineCapStart = 1;
strokeHeight = 60;
strokeWidth = 65;
};
closed = 0;
nodes = (
(456,31,l),
(150,31,l),
(165,744,l),
(459,744,l)
);
},
{
attr = {
lineCapEnd = 1;
lineCapStart = 1;
strokeHeight = 60;
strokeWidth = 65;
};
closed = 0;
nodes = (
(157,384,l),
(422,384,l)
);
},
{
alignment = -1;
ref = _GuideLine;
scale = (1.22,1);
}
);
width = 606;
},
{
anchors = (
{
name = bottom;
pos = (305,0);
},
{
name = ogonek;
pos = (530,10);
},
{
name = top;
pos = (305,745);
},
{
name = topleft;
pos = (43,720);
}
);
layerId = "F3447581-435E-44E2-ABAC-414C89955411";
shapes = (
{
attr = {
lineCapEnd = 1;
lineCapStart = 1;
strokeHeight = 60;
strokeWidth = 65;
};
closed = 0;
nodes = (
(456,31,l),
(150,31,l),
(165,744,l),
(459,744,l)
);
},
{
attr = {
lineCapEnd = 1;
lineCapStart = 1;
strokeHeight = 60;
strokeWidth = 65;
};
closed = 0;
nodes = (
(157,384,l),
(422,384,l)
);
}
);
width = 606;
},
{
anchors = (
{
name = bottom;
pos = (305,0);
},
{
name = ogonek;
pos = (530,10);
},
{
name = top;
pos = (305,700);
},
{
name = topleft;
pos = (43,720);
}
);
layerId = m004;
shapes = (
{
alignment = -1;
ref = _GuideLine;
scale = (1.22,1);
}
);
width = 606;
},
{
anchors = (
{
name = bottom;
pos = (305,0);
},
{
name = ogonek;
pos = (530,10);
},
{
name = top;
pos = (305,700);
},
{
name = topleft;
pos = (43,720);
}
);
layerId = m005;
shapes = (
{
attr = {
lineCapEnd = 1;
lineCapStart = 1;
strokeHeight = 60;
strokeWidth = 65;
};
closed = 0;
nodes = (
(456,31,l),
(150,31,l),
(165,744,l),
(459,744,l)
);
},
{
attr = {
lineCapEnd = 1;
lineCapStart = 1;
strokeHeight = 60;
strokeWidth = 65;
};
closed = 0;
nodes = (
(157,384,l),
(422,384,l)
);
},
{
alignment = -1;
ref = _GuideLine;
scale = (1.22,1);
}
);
width = 606;
}
);
unicode = 69;
},
{
color = 9;
glyphname = F;
kernLeft = H;
kernRight = F;
lastChange = "2024-12-06 09:22:03 +0000";
layers = (
{
layerId = "6F9C6BB4-2DCF-443B-A55D-9CE049090094";
shapes = (
{
attr = {
lineCapEnd = 1;
lineCapStart = 1;
strokeHeight = 60;
strokeWidth = 65;
};
closed = 0;
nodes = (
(149,27,l),
(164,744,l),
(458,744,l)
);
},
{
attr = {
lineCapEnd = 1;
lineCapStart = 1;
strokeHeight = 60;
strokeWidth = 65;
};
closed = 0;
nodes = (
(156,371,l),
(421,371,l)
);
}
);
width = 605;
},
{
layerId = m002;
shapes = (
{
attr = {
lineCapEnd = 1;
lineCapStart = 1;
strokeHeight = 60;
strokeWidth = 65;
};
closed = 0;
nodes = (
(149,27,l),
(164,744,l),
(458,744,l)
);
},
{
attr = {
lineCapEnd = 1;
lineCapStart = 1;
strokeHeight = 60;
strokeWidth = 65;
};
closed = 0;
nodes = (
(156,371,l),
(421,371,l)
);
},
{
alignment = -1;
ref = _GuideLine;
scale = (1.21,1);
}
);
width = 605;
},
{
layerId = "F3447581-435E-44E2-ABAC-414C89955411";
shapes = (
{
attr = {
lineCapEnd = 1;
lineCapStart = 1;
strokeHeight = 60;
strokeWidth = 65;
};
closed = 0;
nodes = (
(149,27,l),
(164,744,l),
(458,744,l)
);
},
{
attr = {
lineCapEnd = 1;
lineCapStart = 1;
strokeHeight = 60;
strokeWidth = 65;
};
closed = 0;
nodes = (
(156,371,l),
(421,371,l)
);
}
);
width = 605;
},
{
layerId = m004;
shapes = (
{
alignment = -1;
ref = _GuideLine;
scale = (1.21,1);
}
);
width = 605;
},
{
layerId = m005;
shapes = (
{
attr = {
lineCapEnd = 1;
lineCapStart = 1;
strokeHeight = 60;
strokeWidth = 65;
};
closed = 0;
nodes = (
(149,27,l),
(164,744,l),
(458,744,l)
);
},
{
attr = {
lineCapEnd = 1;
lineCapStart = 1;
strokeHeight = 60;
strokeWidth = 65;
};
closed = 0;
nodes = (
(156,371,l),
(421,371,l)
);
},
{
alignment = -1;
ref = _GuideLine;
scale = (1.21,1);
}
);
width = 605;
}
);
unicode = 70;
},
{
color = 9;
glyphname = G;
kernLeft = O;
kernRight = B;
lastChange = "2024-12-06 09:22:03 +0000";
layers = (
{
background = {
shapes = (
{
closed = 0;
nodes = (
(530,361,l),
(379,361,l)
);
},
{
closed = 0;
nodes = (
(514,679,l),
(468,691,o),
(387,700,o),
(352,700,cs),
(184,700,o),
(138,562,o),
(138,326,cs),
(138,80,o),
(230,0,o),
(333,0,cs),
(432,0,o),
(530,154,o),
(530,270,cs)
);
}
);
};
layerId = "6F9C6BB4-2DCF-443B-A55D-9CE049090094";
shapes = (
{
attr = {
lineCapEnd = 1;
lineCapStart = 1;
strokeHeight = 60;
strokeWidth = 65;
};
closed = 0;
nodes = (
(565,728,l),
(503,742,o),
(450,750,o),
(404,750,cs),
(213,750,o),
(134,629,o),
(134,362,cs),
(134,170,o),
(211,26,o),
(355,26,cs),
(489,26,o),
(591,191,o),
(582,387,c),
(336,387,l)
);
}
);
width = 709;
},
{
background = {
shapes = (
{
closed = 0;
nodes = (
(530,361,l),
(379,361,l)
);
},
{
closed = 0;
nodes = (
(514,679,l),
(468,691,o),
(387,700,o),
(352,700,cs),
(184,700,o),
(138,562,o),
(138,326,cs),
(138,80,o),
(230,0,o),
(333,0,cs),
(432,0,o),
(530,154,o),
(530,270,cs)
);
}
);
};
layerId = m002;
shapes = (
{
attr = {
lineCapEnd = 1;
lineCapStart = 1;
strokeHeight = 60;
strokeWidth = 65;
};
closed = 0;
nodes = (
(565,728,l),
(503,742,o),
(450,750,o),
(404,750,cs),
(213,750,o),
(134,629,o),
(134,362,cs),
(134,170,o),
(211,26,o),
(355,26,cs),
(489,26,o),
(591,191,o),
(582,387,c),
(336,387,l)
);
},
{
alignment = -1;
ref = _GuideLine;
scale = (1.42,1);
}
);
width = 709;
},
{
background = {
shapes = (
{
closed = 0;
nodes = (
(530,361,l),
(379,361,l)
);
},
{
closed = 0;
nodes = (
(514,679,l),
(468,691,o),
(387,700,o),
(352,700,cs),
(184,700,o),
(138,562,o),
(138,326,cs),
(138,80,o),
(230,0,o),
(333,0,cs),
(432,0,o),
(530,154,o),
(530,270,cs)
);
}
);
};
layerId = "F3447581-435E-44E2-ABAC-414C89955411";
shapes = (
{
attr = {
lineCapEnd = 1;
lineCapStart = 1;
strokeHeight = 60;
strokeWidth = 65;
};
closed = 0;
nodes = (
(565,728,l),
(503,742,o),
(450,750,o),
(404,750,cs),
(213,750,o),
(134,629,o),
(134,362,cs),
(134,170,o),
(211,26,o),
(355,26,cs),
(489,26,o),
(591,191,o),
(582,387,c),
(336,387,l)
);
}
);
width = 709;
},
{
background = {
shapes = (
{
closed = 0;
nodes = (
(530,361,l),
(379,361,l)
);
},
{
closed = 0;
nodes = (
(514,679,l),
(468,691,o),
(387,700,o),
(352,700,cs),
(184,700,o),
(138,562,o),
(138,326,cs),
(138,80,o),
(230,0,o),
(333,0,cs),
(432,0,o),
(530,154,o),
(530,270,cs)
);
}
);
};
layerId = m004;
shapes = (
{
alignment = -1;
ref = _GuideLine;
scale = (1.42,1);
}
);
width = 709;
},
{
background = {
shapes = (
{
closed = 0;
nodes = (
(530,361,l),
(379,361,l)
);
},
{
closed = 0;
nodes = (
(514,679,l),
(468,691,o),
(387,700,o),
(352,700,cs),
(184,700,o),
(138,562,o),
(138,326,cs),
(138,80,o),
(230,0,o),
(333,0,cs),
(432,0,o),
(530,154,o),
(530,270,cs)
);
}
);
};
layerId = m005;
shapes = (
{
attr = {
lineCapEnd = 1;
lineCapStart = 1;
strokeHeight = 60;
strokeWidth = 65;
};
closed = 0;
nodes = (
(565,728,l),
(503,742,o),
(450,750,o),
(404,750,cs),
(213,750,o),
(134,629,o),
(134,362,cs),
(134,170,o),
(211,26,o),
(355,26,cs),
(489,26,o),
(591,191,o),
(582,387,c),
(336,387,l)
);
},
{
alignment = -1;
ref = _GuideLine;
scale = (1.42,1);
}
);
width = 709;
}
);
unicode = 71;
},
{
color = 9;
glyphname = H;
kernLeft = H;
kernRight = H;
lastChange = "2024-12-06 09:22:03 +0000";
layers = (
{
background = {
shapes = (
{
closed = 0;
nodes = (
(62,320,l),
(592,320,l)
);
},
{
closed = 0;
nodes = (
(147,699,l),
(200,699,o),
(190,635,o),
(187,547,cs),
(166,-1,l)
);
},
{
closed = 0;
nodes = (
(806,230,l),
(744,83,o),
(650,0,o),
(615,0,cs),
(582,0,o),
(581,38,o),
(584,119,cs),
(606,700,l)
);
}
);
};
layerId = "6F9C6BB4-2DCF-443B-A55D-9CE049090094";
shapes = (
{
attr = {
lineCapEnd = 2;
lineCapStart = 2;
strokeHeight = 60;
strokeWidth = 65;
};
closed = 0;
nodes = (
(167,393,l),
(562,393,l)
);
},
{
attr = {
lineCapEnd = 2;
lineCapStart = 2;
strokeHeight = 60;
strokeWidth = 65;
};
closed = 0;
nodes = (
(164,777,l),
(151,-2,l)
);
},
{
attr = {
lineCapEnd = 2;
lineCapStart = 2;
strokeHeight = 60;
strokeWidth = 65;
};
closed = 0;
nodes = (
(580,777,l),
(567,-2,l)
);
}
);
width = 731;
},
{
background = {
shapes = (
{
closed = 0;
nodes = (
(62,320,l),
(592,320,l)
);
},
{
closed = 0;
nodes = (
(147,699,l),
(200,699,o),
(190,635,o),
(187,547,cs),
(166,-1,l)
);
},
{
closed = 0;
nodes = (
(806,230,l),
(744,83,o),
(650,0,o),
(615,0,cs),
(582,0,o),
(581,38,o),
(584,119,cs),
(606,700,l)
);
}
);
};
layerId = m002;
shapes = (
{
attr = {
lineCapEnd = 2;
lineCapStart = 2;
strokeHeight = 60;
strokeWidth = 65;
};
closed = 0;
nodes = (
(167,393,l),
(562,393,l)
);
},
{
attr = {
lineCapEnd = 2;
lineCapStart = 2;
strokeHeight = 60;
strokeWidth = 65;
};
closed = 0;
nodes = (
(164,777,l),
(151,-2,l)
);
},
{
attr = {
lineCapEnd = 2;
lineCapStart = 2;
strokeHeight = 60;
strokeWidth = 65;
};
closed = 0;
nodes = (
(580,777,l),
(567,-2,l)
);
},
{
alignment = -1;
ref = _GuideLine;
scale = (1.47,1);
}
);
width = 731;
},
{
background = {
shapes = (
{
closed = 0;
nodes = (
(62,320,l),
(592,320,l)
);
},
{
closed = 0;
nodes = (
(147,699,l),
(200,699,o),
(190,635,o),
(187,547,cs),
(166,-1,l)
);
},
{
closed = 0;
nodes = (
(806,230,l),
(744,83,o),
(650,0,o),
(615,0,cs),
(582,0,o),
(581,38,o),
(584,119,cs),
(606,700,l)
);
}
);
};
layerId = "F3447581-435E-44E2-ABAC-414C89955411";
shapes = (
{
attr = {
lineCapEnd = 2;
lineCapStart = 2;
strokeHeight = 60;
strokeWidth = 65;
};
closed = 0;
nodes = (
(167,393,l),
(562,393,l)
);
},
{
attr = {
lineCapEnd = 2;
lineCapStart = 2;
strokeHeight = 60;
strokeWidth = 65;
};
closed = 0;
nodes = (
(164,777,l),
(151,-2,l)
);
},
{
attr = {
lineCapEnd = 2;
lineCapStart = 2;
strokeHeight = 60;
strokeWidth = 65;
};
closed = 0;
nodes = (
(580,777,l),
(567,-2,l)
);
}
);
width = 731;
},
{
background = {
shapes = (
{
closed = 0;
nodes = (
(62,320,l),
(592,320,l)
);
},
{
closed = 0;
nodes = (
(147,699,l),
(200,699,o),
(190,635,o),
(187,547,cs),
(166,-1,l)
);
},
{
closed = 0;
nodes = (
(806,230,l),
(744,83,o),
(650,0,o),
(615,0,cs),
(582,0,o),
(581,38,o),
(584,119,cs),
(606,700,l)
);
}
);
};
layerId = m004;
shapes = (
{
alignment = -1;
ref = _GuideLine;
scale = (1.47,1);
}
);
width = 731;
},
{
background = {
shapes = (
{
closed = 0;
nodes = (
(62,320,l),
(592,320,l)
);
},
{
closed = 0;
nodes = (
(147,699,l),
(200,699,o),
(190,635,o),
(187,547,cs),
(166,-1,l)
);
},
{
closed = 0;
nodes = (
(806,230,l),
(744,83,o),
(650,0,o),
(615,0,cs),
(582,0,o),
(581,38,o),
(584,119,cs),
(606,700,l)
);
}
);
};
layerId = m005;
shapes = (
{
attr = {
lineCapEnd = 2;
lineCapStart = 2;
strokeHeight = 60;
strokeWidth = 65;
};
closed = 0;
nodes = (
(167,393,l),
(562,393,l)
);
},
{
attr = {
lineCapEnd = 2;
lineCapStart = 2;
strokeHeight = 60;
strokeWidth = 65;
};
closed = 0;
nodes = (
(164,777,l),
(151,-2,l)
);
},
{
attr = {
lineCapEnd = 2;
lineCapStart = 2;
strokeHeight = 60;
strokeWidth = 65;
};
closed = 0;
nodes = (
(580,777,l),
(567,-2,l)
);
},
{
alignment = -1;
ref = _GuideLine;
scale = (1.47,1);
}
);
width = 731;
}
);
unicode = 72;
},
{
color = 9;
glyphname = I;
kernLeft = I;
kernRight = I;
lastChange = "2024-12-06 09:22:03 +0000";
layers = (
{
anchors = (
{
name = bottom;
pos = (256,0);
},
{
name = ogonek;
pos = (456,10);
},
{
name = top;
pos = (260,700);
},
{
name = topleft;
pos = (35,720);
}
);
background = {
shapes = (
{
closed = 0;
nodes = (
(157,170,l),
(132,69,o),
(171,0,o),
(253,0,cs),
(358,0,o),
(449,114,o),
(454,251,cs),
(470,700,l),
(202,700,l)
);
}
);
};
layerId = "6F9C6BB4-2DCF-443B-A55D-9CE049090094";
shapes = (
{
attr = {
lineCapEnd = 1;
lineCapStart = 1;
strokeHeight = 60;
strokeWidth = 65;
};
closed = 0;
nodes = (
(269,733,l),
(256,41,l)
);
},
{
attr = {
lineCapEnd = 1;
lineCapStart = 1;
strokeHeight = 60;
strokeWidth = 65;
};
closed = 0;
nodes = (
(164,744,l),
(372,744,l)
);
},
{
attr = {
lineCapEnd = 1;
lineCapStart = 1;
strokeHeight = 60;
strokeWidth = 65;
};
closed = 0;
nodes = (
(147,31,l),
(365,31,l)
);
}
);
width = 519;
},
{
anchors = (
{
name = bottom;
pos = (256,0);
},
{
name = ogonek;
pos = (456,10);
},
{
name = top;
pos = (260,700);
},
{
name = topleft;
pos = (35,720);
}
);
background = {
shapes = (
{
closed = 0;
nodes = (
(157,170,l),
(132,69,o),
(171,0,o),
(253,0,cs),
(358,0,o),
(449,114,o),
(454,251,cs),
(470,700,l),
(202,700,l)
);
}
);
};
layerId = m002;
shapes = (
{
attr = {
lineCapEnd = 1;
lineCapStart = 1;
strokeHeight = 60;
strokeWidth = 65;
};
closed = 0;
nodes = (
(269,733,l),
(256,41,l)
);
},
{
attr = {
lineCapEnd = 1;
lineCapStart = 1;
strokeHeight = 60;
strokeWidth = 65;
};
closed = 0;
nodes = (
(164,744,l),
(372,744,l)
);
},
{
attr = {
lineCapEnd = 1;
lineCapStart = 1;
strokeHeight = 60;
strokeWidth = 65;
};
closed = 0;
nodes = (
(147,31,l),
(365,31,l)
);
},
{
alignment = -1;
ref = _GuideLine;
scale = (1.04,1);
}
);
width = 519;
},
{
anchors = (
{
name = bottom;
pos = (256,0);
},
{
name = ogonek;
pos = (456,10);
},
{
name = top;
pos = (260,745);
},
{
name = topleft;
pos = (35,720);
}
);
background = {
shapes = (
{
closed = 0;
nodes = (
(157,170,l),
(132,69,o),
(171,0,o),
(253,0,cs),
(358,0,o),
(449,114,o),
(454,251,cs),
(470,700,l),
(202,700,l)
);
}
);
};
layerId = "F3447581-435E-44E2-ABAC-414C89955411";
shapes = (
{
attr = {
lineCapEnd = 1;
lineCapStart = 1;
strokeHeight = 60;
strokeWidth = 65;
};
closed = 0;
nodes = (
(269,733,l),
(256,41,l)
);
},
{
attr = {
lineCapEnd = 1;
lineCapStart = 1;
strokeHeight = 60;
strokeWidth = 65;
};
closed = 0;
nodes = (
(164,744,l),
(372,744,l)
);
},
{
attr = {
lineCapEnd = 1;
lineCapStart = 1;
strokeHeight = 60;
strokeWidth = 65;
};
closed = 0;
nodes = (
(147,31,l),
(365,31,l)
);
}
);
width = 519;
},
{
anchors = (
{
name = bottom;
pos = (256,0);
},
{
name = ogonek;
pos = (456,10);
},
{
name = top;
pos = (260,700);
},
{
name = topleft;
pos = (35,720);
}
);
background = {
shapes = (
{
closed = 0;
nodes = (
(157,170,l),
(132,69,o),
(171,0,o),
(253,0,cs),
(358,0,o),
(449,114,o),
(454,251,cs),
(470,700,l),
(202,700,l)
);
}
);
};
layerId = m004;
shapes = (
{
alignment = -1;
ref = _GuideLine;
scale = (1.04,1);
}
);
width = 519;
},
{
anchors = (
{
name = bottom;
pos = (256,0);
},
{
name = ogonek;
pos = (456,10);
},
{
name = top;
pos = (260,700);
},
{
name = topleft;
pos = (35,720);
}
);
background = {
shapes = (
{
closed = 0;
nodes = (
(157,170,l),
(132,69,o),
(171,0,o),
(253,0,cs),
(358,0,o),
(449,114,o),
(454,251,cs),
(470,700,l),
(202,700,l)
);
}
);
};
layerId = m005;
shapes = (
{
attr = {
lineCapEnd = 1;
lineCapStart = 1;
strokeHeight = 60;
strokeWidth = 65;
};
closed = 0;
nodes = (
(269,733,l),
(256,41,l)
);
},
{
attr = {
lineCapEnd = 1;
lineCapStart = 1;
strokeHeight = 60;
strokeWidth = 65;
};
closed = 0;
nodes = (
(164,744,l),
(372,744,l)
);
},
{
attr = {
lineCapEnd = 1;
lineCapStart = 1;
strokeHeight = 60;
strokeWidth = 65;
};
closed = 0;
nodes = (
(147,31,l),
(365,31,l)
);
},
{
alignment = -1;
ref = _GuideLine;
scale = (1.04,1);
}
);
width = 519;
}
);
unicode = 73;
},
{
glyphname = IJ;
kernLeft = I;
kernRight = J;
lastChange = "2024-12-06 09:22:03 +0000";
layers = (
{
background = {
shapes = (
{
pos = (-27,0);
ref = I;
}
);
};
layerId = "6F9C6BB4-2DCF-443B-A55D-9CE049090094";
shapes = (
{
attr = {
identifier = ID0x7fadab45f450;
lineCapEnd = 1;
lineCapStart = 1;
strokeHeight = 60;
strokeWidth = 65;
};
closed = 0;
nodes = (
(251,721,l),
(244,361,l)
);
},
{
attr = {
identifier = ID0x7fadab45f450;
lineCapEnd = 1;
lineCapStart = 1;
strokeHeight = 60;
strokeWidth = 65;
};
closed = 0;
nodes = (
(150,731,l),
(350,731,l)
);
},
{
attr = {
identifier = ID0x7fadab45f450;
lineCapEnd = 1;
lineCapStart = 1;
strokeHeight = 60;
strokeWidth = 65;
};
closed = 0;
nodes = (
(139,351,l),
(349,351,l)
);
},
{
pos = (125,0);
ref = J;
}
);
width = 700;
},
{
background = {
shapes = (
{
pos = (-27,0);
ref = I;
}
);
};
layerId = m002;
shapes = (
{
attr = {
identifier = ID0x7fadab45f450;
lineCapEnd = 1;
lineCapStart = 1;
strokeHeight = 60;
strokeWidth = 65;
};
closed = 0;
nodes = (
(251,721,l),
(244,361,l)
);
},
{
attr = {
identifier = ID0x7fadab45f450;
lineCapEnd = 1;
lineCapStart = 1;
strokeHeight = 60;
strokeWidth = 65;
};
closed = 0;
nodes = (
(150,731,l),
(350,731,l)
);
},
{
attr = {
identifier = ID0x7fadab45f450;
lineCapEnd = 1;
lineCapStart = 1;
strokeHeight = 60;
strokeWidth = 65;
};
closed = 0;
nodes = (
(139,351,l),
(349,351,l)
);
},
{
pos = (125,0);
ref = J;
}
);
width = 700;
},
{
background = {
shapes = (
{
pos = (-27,0);
ref = I;
}
);
};
layerId = "F3447581-435E-44E2-ABAC-414C89955411";
shapes = (
{
attr = {
identifier = ID0x7fadab45f450;
lineCapEnd = 1;
lineCapStart = 1;
strokeHeight = 60;
strokeWidth = 65;
};
closed = 0;
nodes = (
(251,721,l),
(244,361,l)
);
},
{
attr = {
identifier = ID0x7fadab45f450;
lineCapEnd = 1;
lineCapStart = 1;
strokeHeight = 60;
strokeWidth = 65;
};
closed = 0;
nodes = (
(150,731,l),
(350,731,l)
);
},
{
attr = {
identifier = ID0x7fadab45f450;
lineCapEnd = 1;
lineCapStart = 1;
strokeHeight = 60;
strokeWidth = 65;
};
closed = 0;
nodes = (
(139,351,l),
(349,351,l)
);
},
{
pos = (125,0);
ref = J;
}
);
width = 700;
},
{
anchors = (
{
name = bottom;
pos = (422,0);
},
{
name = top;
pos = (523,700);
}
);
background = {
shapes = (
{
pos = (-27,0);
ref = I;
}
);
};
layerId = m004;
shapes = (
{
alignment = -1;
pos = (125,0);
ref = _GuideLine;
scale = (1.18,1);
},
{
alignment = -1;
ref = _GuideLine;
scale = (0.2659,1);
}
);
width = 700;
},
{
background = {
shapes = (
{
pos = (-27,0);
ref = I;
}
);
};
layerId = m005;
shapes = (
{
attr = {
identifier = ID0x7fadab45f450;
lineCapEnd = 1;
lineCapStart = 1;
strokeHeight = 60;
strokeWidth = 65;
};
closed = 0;
nodes = (
(251,721,l),
(244,361,l)
);
},
{
attr = {
identifier = ID0x7fadab45f450;
lineCapEnd = 1;
lineCapStart = 1;
strokeHeight = 60;
strokeWidth = 65;
};
closed = 0;
nodes = (
(150,731,l),
(350,731,l)
);
},
{
attr = {
identifier = ID0x7fadab45f450;
lineCapEnd = 1;
lineCapStart = 1;
strokeHeight = 60;
strokeWidth = 65;
};
closed = 0;
nodes = (
(139,351,l),
(349,351,l)
);
},
{
pos = (125,0);
ref = J;
}
);
width = 700;
}
);
unicode = 306;
},
{
color = 9;
glyphname = J;
kernLeft = J;
kernRight = J;
lastChange = "2024-12-06 09:22:03 +0000";
layers = (
{
anchors = (
{
name = bottom;
pos = (297,0);
},
{
name = top;
pos = (398,700);
}
);
background = {
shapes = (
{
closed = 0;
nodes = (
(433,151,l),
(420,88,o),
(171,-25,o),
(171,-244,cs),
(171,-305,o),
(193,-347,o),
(232,-347,cs),
(284,-347,o),
(287,-285,o),
(285,-104,cs),
(283,51,o),
(278,206,o),
(285,361,cs),
(301,700,l),
(301,700,o),
(265,228,o),
(124,128,c)
);
}
);
};
layerId = "6F9C6BB4-2DCF-443B-A55D-9CE049090094";
shapes = (
{
attr = {
lineCapEnd = 2;
lineCapStart = 1;
strokeHeight = 60;
strokeWidth = 65;
};
closed = 0;
nodes = (
(126,282,l),
(117,113,o),
(169,26,o),
(277,26,cs),
(369,26,o),
(431,111,o),
(433,252,cs),
(441,777,l)
);
}
);
width = 587;
},
{
anchors = (
{
name = bottom;
pos = (297,0);
},
{
name = top;
pos = (398,700);
}
);
background = {
shapes = (
{
closed = 0;
nodes = (
(433,151,l),
(420,88,o),
(171,-25,o),
(171,-244,cs),
(171,-305,o),
(193,-347,o),
(232,-347,cs),
(284,-347,o),
(287,-285,o),
(285,-104,cs),
(283,51,o),
(278,206,o),
(285,361,cs),
(301,700,l),
(301,700,o),
(265,228,o),
(124,128,c)
);
}
);
};
layerId = m002;
shapes = (
{
attr = {
lineCapEnd = 2;
lineCapStart = 1;
strokeHeight = 60;
strokeWidth = 65;
};
closed = 0;
nodes = (
(126,282,l),
(117,113,o),
(169,26,o),
(277,26,cs),
(369,26,o),
(431,111,o),
(433,252,cs),
(441,777,l)
);
},
{
alignment = -1;
ref = _GuideLine;
scale = (1.18,1);
}
);
width = 587;
},
{
anchors = (
{
name = bottom;
pos = (297,0);
},
{
name = top;
pos = (398,745);
}
);
background = {
shapes = (
{
closed = 0;
nodes = (
(433,151,l),
(420,88,o),
(171,-25,o),
(171,-244,cs),
(171,-305,o),
(193,-347,o),
(232,-347,cs),
(284,-347,o),
(287,-285,o),
(285,-104,cs),
(283,51,o),
(278,206,o),
(285,361,cs),
(301,700,l),
(301,700,o),
(265,228,o),
(124,128,c)
);
}
);
};
layerId = "F3447581-435E-44E2-ABAC-414C89955411";
shapes = (
{
attr = {
lineCapEnd = 2;
lineCapStart = 1;
strokeHeight = 60;
strokeWidth = 65;
};
closed = 0;
nodes = (
(126,282,l),
(117,113,o),
(169,26,o),
(277,26,cs),
(369,26,o),
(431,111,o),
(433,252,cs),
(441,777,l)
);
}
);
width = 587;
},
{
anchors = (
{
name = bottom;
pos = (297,0);
},
{
name = top;
pos = (398,700);
}
);
background = {
shapes = (
{
closed = 0;
nodes = (
(433,151,l),
(420,88,o),
(171,-25,o),
(171,-244,cs),
(171,-305,o),
(193,-347,o),
(232,-347,cs),
(284,-347,o),
(287,-285,o),
(285,-104,cs),
(283,51,o),
(278,206,o),
(285,361,cs),
(301,700,l),
(301,700,o),
(265,228,o),
(124,128,c)
);
}
);
};
layerId = m004;
shapes = (
{
alignment = -1;
ref = _GuideLine;
scale = (1.18,1);
}
);
width = 587;
},
{
anchors = (
{
name = bottom;
pos = (297,0);
},
{
name = top;
pos = (398,700);
}
);
background = {
shapes = (
{
closed = 0;
nodes = (
(433,151,l),
(420,88,o),
(171,-25,o),
(171,-244,cs),
(171,-305,o),
(193,-347,o),
(232,-347,cs),
(284,-347,o),
(287,-285,o),
(285,-104,cs),
(283,51,o),
(278,206,o),
(285,361,cs),
(301,700,l),
(301,700,o),
(265,228,o),
(124,128,c)
);
}
);
};
layerId = m005;
shapes = (
{
attr = {
lineCapEnd = 2;
lineCapStart = 1;
strokeHeight = 60;
strokeWidth = 65;
};
closed = 0;
nodes = (
(126,282,l),
(117,113,o),
(169,26,o),
(277,26,cs),
(369,26,o),
(431,111,o),
(433,252,cs),
(441,777,l)
);
},
{
alignment = -1;
ref = _GuideLine;
scale = (1.18,1);
}
);
width = 587;
}
);
unicode = 74;
},
{
color = 9;
glyphname = K;
kernLeft = H;
kernRight = K;
lastChange = "2024-12-06 09:22:03 +0000";
layers = (
{
background = {
shapes = (
{
closed = 0;
nodes = (
(451,0,l),
(157,0,l),
(171,700,l),
(454,700,l)
);
},
{
closed = 0;
nodes = (
(164,344,l),
(418,344,l)
);
}
);
};
layerId = "6F9C6BB4-2DCF-443B-A55D-9CE049090094";
shapes = (
{
attr = {
lineCapEnd = 1;
lineCapStart = 1;
strokeHeight = 60;
strokeWidth = 65;
};
closed = 0;
nodes = (
(541,752,l),
(211,372,l),
(582,27,l)
);
},
{
attr = {
lineCapEnd = 2;
lineCapStart = 2;
strokeHeight = 60;
strokeWidth = 65;
};
closed = 0;
nodes = (
(164,777,l),
(152,-2,l)
);
}
);
width = 699;
},
{
background = {
shapes = (
{
closed = 0;
nodes = (
(451,0,l),
(157,0,l),
(171,700,l),
(454,700,l)
);
},
{
closed = 0;
nodes = (
(164,344,l),
(418,344,l)
);
}
);
};
layerId = m002;
shapes = (
{
attr = {
lineCapEnd = 1;
lineCapStart = 1;
strokeHeight = 60;
strokeWidth = 65;
};
closed = 0;
nodes = (
(541,752,l),
(211,372,l),
(582,27,l)
);
},
{
attr = {
lineCapEnd = 2;
lineCapStart = 2;
strokeHeight = 60;
strokeWidth = 65;
};
closed = 0;
nodes = (
(164,777,l),
(152,-2,l)
);
},
{
alignment = -1;
ref = _GuideLine;
scale = (1.4,1);
}
);
width = 699;
},
{
background = {
shapes = (
{
closed = 0;
nodes = (
(451,0,l),
(157,0,l),
(171,700,l),
(454,700,l)
);
},
{
closed = 0;
nodes = (
(164,344,l),
(418,344,l)
);
}
);
};
layerId = "F3447581-435E-44E2-ABAC-414C89955411";
shapes = (
{
attr = {
lineCapEnd = 1;
lineCapStart = 1;
strokeHeight = 60;
strokeWidth = 65;
};
closed = 0;
nodes = (
(541,752,l),
(211,372,l),
(582,27,l)
);
},
{
attr = {
lineCapEnd = 2;
lineCapStart = 2;
strokeHeight = 60;
strokeWidth = 65;
};
closed = 0;
nodes = (
(164,777,l),
(152,-2,l)
);
}
);
width = 699;
},
{
background = {
shapes = (
{
closed = 0;
nodes = (
(451,0,l),
(157,0,l),
(171,700,l),
(454,700,l)
);
},
{
closed = 0;
nodes = (
(164,344,l),
(418,344,l)
);
}
);
};
layerId = m004;
shapes = (
{
alignment = -1;
ref = _GuideLine;
scale = (1.4,1);
}
);
width = 699;
},
{
background = {
shapes = (
{
closed = 0;
nodes = (
(451,0,l),
(157,0,l),
(171,700,l),
(454,700,l)
);
},
{
closed = 0;
nodes = (
(164,344,l),
(418,344,l)
);
}
);
};
layerId = m005;
shapes = (
{
attr = {
lineCapEnd = 1;
lineCapStart = 1;
strokeHeight = 60;
strokeWidth = 65;
};
closed = 0;
nodes = (
(541,752,l),
(211,372,l),
(582,27,l)
);
},
{
attr = {
lineCapEnd = 2;
lineCapStart = 2;
strokeHeight = 60;
strokeWidth = 65;
};
closed = 0;
nodes = (
(164,777,l),
(152,-2,l)
);
},
{
alignment = -1;
ref = _GuideLine;
scale = (1.4,1);
}
);
width = 699;
}
);
unicode = 75;
},
{
color = 9;
glyphname = L;
kernLeft = H;
kernRight = L;
lastChange = "2024-12-06 09:22:03 +0000";
layers = (
{
background = {
shapes = (
{
closed = 0;
nodes = (
(72,700,l),
(453,700,l)
);
},
{
closed = 0;
nodes = (
(441,0,l),
(174,0,l),
(147,0,o),
(145,12,o),
(146,39,cs),
(172,700,l)
);
},
{
closed = 0;
nodes = (
(156,344,l),
(413,344,l)
);
}
);
};
layerId = "6F9C6BB4-2DCF-443B-A55D-9CE049090094";
shapes = (
{
attr = {
lineCapEnd = 2;
lineCapStart = 1;
strokeHeight = 60;
strokeWidth = 65;
};
closed = 0;
nodes = (
(457,31,l),
(151,31,l),
(166,777,l)
);
}
);
width = 604;
},
{
background = {
shapes = (
{
closed = 0;
nodes = (
(72,700,l),
(453,700,l)
);
},
{
closed = 0;
nodes = (
(441,0,l),
(174,0,l),
(147,0,o),
(145,12,o),
(146,39,cs),
(172,700,l)
);
},
{
closed = 0;
nodes = (
(156,344,l),
(413,344,l)
);
}
);
};
layerId = m002;
shapes = (
{
attr = {
lineCapEnd = 2;
lineCapStart = 1;
strokeHeight = 60;
strokeWidth = 65;
};
closed = 0;
nodes = (
(457,31,l),
(151,31,l),
(166,777,l)
);
},
{
alignment = -1;
ref = _GuideLine;
scale = (1.21,1);
}
);
width = 604;
},
{
background = {
shapes = (
{
closed = 0;
nodes = (
(72,700,l),
(453,700,l)
);
},
{
closed = 0;
nodes = (
(441,0,l),
(174,0,l),
(147,0,o),
(145,12,o),
(146,39,cs),
(172,700,l)
);
},
{
closed = 0;
nodes = (
(156,344,l),
(413,344,l)
);
}
);
};
layerId = "F3447581-435E-44E2-ABAC-414C89955411";
shapes = (
{
attr = {
lineCapEnd = 2;
lineCapStart = 1;
strokeHeight = 60;
strokeWidth = 65;
};
closed = 0;
nodes = (
(457,31,l),
(151,31,l),
(166,777,l)
);
}
);
width = 604;
},
{
background = {
shapes = (
{
closed = 0;
nodes = (
(72,700,l),
(453,700,l)
);
},
{
closed = 0;
nodes = (
(441,0,l),
(174,0,l),
(147,0,o),
(145,12,o),
(146,39,cs),
(172,700,l)
);
},
{
closed = 0;
nodes = (
(156,344,l),
(413,344,l)
);
}
);
};
layerId = m004;
shapes = (
{
alignment = -1;
ref = _GuideLine;
scale = (1.21,1);
}
);
width = 604;
},
{
background = {
shapes = (
{
closed = 0;
nodes = (
(72,700,l),
(453,700,l)
);
},
{
closed = 0;
nodes = (
(441,0,l),
(174,0,l),
(147,0,o),
(145,12,o),
(146,39,cs),
(172,700,l)
);
},
{
closed = 0;
nodes = (
(156,344,l),
(413,344,l)
);
}
);
};
layerId = m005;
shapes = (
{
attr = {
lineCapEnd = 2;
lineCapStart = 1;
strokeHeight = 60;
strokeWidth = 65;
};
closed = 0;
nodes = (
(457,31,l),
(151,31,l),
(166,777,l)
);
},
{
alignment = -1;
ref = _GuideLine;
scale = (1.21,1);
}
);
width = 604;
}
);
unicode = 76;
},
{
color = 9;
glyphname = M;
kernLeft = H;
kernRight = H;
lastChange = "2024-12-06 09:22:03 +0000";
layers = (
{
background = {
shapes = (
{
closed = 0;
nodes = (
(361,700,l),
(155,113,ls),
(126,30,o),
(93,1,o),
(24,1,c)
);
},
{
closed = 0;
nodes = (
(846,686,l),
(711,268,o),
(561,103,o),
(495,54,c),
(440,142,o),
(377,329,o),
(361,686,c)
);
},
{
closed = 0;
nodes = (
(1044,230,l),
(982,83,o),
(888,0,o),
(853,0,cs),
(796,0,o),
(820,189,o),
(846,700,c)
);
}
);
};
layerId = "6F9C6BB4-2DCF-443B-A55D-9CE049090094";
shapes = (
{
attr = {
lineCapEnd = 1;
lineCapStart = 2;
strokeHeight = 60;
strokeWidth = 65;
};
closed = 0;
nodes = (
(130,-2,l),
(182,747,l)
);
},
{
attr = {
lineCapEnd = 1;
lineCapStart = 1;
strokeHeight = 60;
strokeWidth = 65;
};
closed = 0;
nodes = (
(497,88,l),
(831,747,l)
);
},
{
attr = {
lineCapEnd = 1;
lineCapStart = 1;
strokeHeight = 60;
strokeWidth = 65;
};
closed = 0;
nodes = (
(183,747,l),
(496,88,l)
);
},
{
attr = {
lineCapEnd = 2;
lineCapStart = 1;
strokeHeight = 60;
strokeWidth = 65;
};
closed = 0;
nodes = (
(832,747,l),
(863,-1,l)
);
}
);
width = 1003;
},
{
background = {
shapes = (
{
closed = 0;
nodes = (
(361,700,l),
(155,113,ls),
(126,30,o),
(93,1,o),
(24,1,c)
);
},
{
closed = 0;
nodes = (
(846,686,l),
(711,268,o),
(561,103,o),
(495,54,c),
(440,142,o),
(377,329,o),
(361,686,c)
);
},
{
closed = 0;
nodes = (
(1044,230,l),
(982,83,o),
(888,0,o),
(853,0,cs),
(796,0,o),
(820,189,o),
(846,700,c)
);
}
);
};
layerId = m002;
shapes = (
{
attr = {
lineCapEnd = 1;
lineCapStart = 2;
strokeHeight = 60;
strokeWidth = 65;
};
closed = 0;
nodes = (
(130,-2,l),
(182,747,l)
);
},
{
attr = {
lineCapEnd = 1;
lineCapStart = 1;
strokeHeight = 60;
strokeWidth = 65;
};
closed = 0;
nodes = (
(497,88,l),
(831,747,l)
);
},
{
attr = {
lineCapEnd = 1;
lineCapStart = 1;
strokeHeight = 60;
strokeWidth = 65;
};
closed = 0;
nodes = (
(183,747,l),
(496,88,l)
);
},
{
attr = {
lineCapEnd = 2;
lineCapStart = 1;
strokeHeight = 60;
strokeWidth = 65;
};
closed = 0;
nodes = (
(832,747,l),
(863,-1,l)
);
},
{
alignment = -1;
ref = _GuideLine;
scale = (2.01,1);
}
);
width = 1003;
},
{
background = {
shapes = (
{
closed = 0;
nodes = (
(361,700,l),
(155,113,ls),
(126,30,o),
(93,1,o),
(24,1,c)
);
},
{
closed = 0;
nodes = (
(846,686,l),
(711,268,o),
(561,103,o),
(495,54,c),
(440,142,o),
(377,329,o),
(361,686,c)
);
},
{
closed = 0;
nodes = (
(1044,230,l),
(982,83,o),
(888,0,o),
(853,0,cs),
(796,0,o),
(820,189,o),
(846,700,c)
);
}
);
};
layerId = "F3447581-435E-44E2-ABAC-414C89955411";
shapes = (
{
attr = {
lineCapEnd = 1;
lineCapStart = 2;
strokeHeight = 60;
strokeWidth = 65;
};
closed = 0;
nodes = (
(130,-2,l),
(182,747,l)
);
},
{
attr = {
lineCapEnd = 1;
lineCapStart = 1;
strokeHeight = 60;
strokeWidth = 65;
};
closed = 0;
nodes = (
(497,88,l),
(831,747,l)
);
},
{
attr = {
lineCapEnd = 1;
lineCapStart = 1;
strokeHeight = 60;
strokeWidth = 65;
};
closed = 0;
nodes = (
(183,747,l),
(496,88,l)
);
},
{
attr = {
lineCapEnd = 2;
lineCapStart = 1;
strokeHeight = 60;
strokeWidth = 65;
};
closed = 0;
nodes = (
(832,747,l),
(863,-1,l)
);
}
);
width = 1003;
},
{
background = {
shapes = (
{
closed = 0;
nodes = (
(361,700,l),
(155,113,ls),
(126,30,o),
(93,1,o),
(24,1,c)
);
},
{
closed = 0;
nodes = (
(846,686,l),
(711,268,o),
(561,103,o),
(495,54,c),
(440,142,o),
(377,329,o),
(361,686,c)
);
},
{
closed = 0;
nodes = (
(1044,230,l),
(982,83,o),
(888,0,o),
(853,0,cs),
(796,0,o),
(820,189,o),
(846,700,c)
);
}
);
};
layerId = m004;
shapes = (
{
alignment = -1;
ref = _GuideLine;
scale = (2.01,1);
}
);
width = 1003;
},
{
background = {
shapes = (
{
closed = 0;
nodes = (
(361,700,l),
(155,113,ls),
(126,30,o),
(93,1,o),
(24,1,c)
);
},
{
closed = 0;
nodes = (
(846,686,l),
(711,268,o),
(561,103,o),
(495,54,c),
(440,142,o),
(377,329,o),
(361,686,c)
);
},
{
closed = 0;
nodes = (
(1044,230,l),
(982,83,o),
(888,0,o),
(853,0,cs),
(796,0,o),
(820,189,o),
(846,700,c)
);
}
);
};
layerId = m005;
shapes = (
{
attr = {
lineCapEnd = 1;
lineCapStart = 2;
strokeHeight = 60;
strokeWidth = 65;
};
closed = 0;
nodes = (
(130,-2,l),
(182,747,l)
);
},
{
attr = {
lineCapEnd = 1;
lineCapStart = 1;
strokeHeight = 60;
strokeWidth = 65;
};
closed = 0;
nodes = (
(497,88,l),
(831,747,l)
);
},
{
attr = {
lineCapEnd = 1;
lineCapStart = 1;
strokeHeight = 60;
strokeWidth = 65;
};
closed = 0;
nodes = (
(183,747,l),
(496,88,l)
);
},
{
attr = {
lineCapEnd = 2;
lineCapStart = 1;
strokeHeight = 60;
strokeWidth = 65;
};
closed = 0;
nodes = (
(832,747,l),
(863,-1,l)
);
},
{
alignment = -1;
ref = _GuideLine;
scale = (2.01,1);
}
);
width = 1003;
}
);
unicode = 77;
},
{
color = 9;
glyphname = N;
kernLeft = H;
kernRight = H;
lastChange = "2024-12-06 09:22:03 +0000";
layers = (
{
anchors = (
{
name = bottom;
pos = (372,0);
},
{
name = top;
pos = (372,700);
}
);
background = {
shapes = (
{
closed = 0;
nodes = (
(589,700,l),
(565,0,l),
(174,699,l),
(153,112,ls),
(150,29,o),
(126,0,o),
(57,0,c)
);
}
);
};
layerId = "6F9C6BB4-2DCF-443B-A55D-9CE049090094";
shapes = (
{
attr = {
lineCapEnd = 1;
lineCapStart = 2;
strokeHeight = 60;
strokeWidth = 65;
};
closed = 0;
nodes = (
(593,777,l),
(580,28,l)
);
},
{
attr = {
lineCapEnd = 2;
lineCapStart = 1;
strokeHeight = 60;
strokeWidth = 65;
};
closed = 0;
nodes = (
(164,747,l),
(149,-2,l)
);
},
{
attr = {
lineCapEnd = 1;
lineCapStart = 1;
strokeHeight = 60;
strokeWidth = 65;
};
closed = 0;
nodes = (
(579,29,l),
(165,747,l)
);
}
);
width = 743;
},
{
anchors = (
{
name = bottom;
pos = (372,0);
},
{
name = top;
pos = (372,700);
}
);
background = {
shapes = (
{
closed = 0;
nodes = (
(589,700,l),
(565,0,l),
(174,699,l),
(153,112,ls),
(150,29,o),
(126,0,o),
(57,0,c)
);
}
);
};
layerId = m002;
shapes = (
{
attr = {
lineCapEnd = 1;
lineCapStart = 2;
strokeHeight = 60;
strokeWidth = 65;
};
closed = 0;
nodes = (
(593,777,l),
(580,28,l)
);
},
{
attr = {
lineCapEnd = 2;
lineCapStart = 1;
strokeHeight = 60;
strokeWidth = 65;
};
closed = 0;
nodes = (
(164,747,l),
(149,-2,l)
);
},
{
attr = {
lineCapEnd = 1;
lineCapStart = 1;
strokeHeight = 60;
strokeWidth = 65;
};
closed = 0;
nodes = (
(579,29,l),
(165,747,l)
);
},
{
alignment = -1;
ref = _GuideLine;
scale = (1.49,1);
}
);
width = 743;
},
{
anchors = (
{
name = bottom;
pos = (372,0);
},
{
name = top;
pos = (372,745);
}
);
background = {
shapes = (
{
closed = 0;
nodes = (
(589,700,l),
(565,0,l),
(174,699,l),
(153,112,ls),
(150,29,o),
(126,0,o),
(57,0,c)
);
}
);
};
layerId = "F3447581-435E-44E2-ABAC-414C89955411";
shapes = (
{
attr = {
lineCapEnd = 1;
lineCapStart = 2;
strokeHeight = 60;
strokeWidth = 65;
};
closed = 0;
nodes = (
(593,777,l),
(580,28,l)
);
},
{
attr = {
lineCapEnd = 2;
lineCapStart = 1;
strokeHeight = 60;
strokeWidth = 65;
};
closed = 0;
nodes = (
(164,747,l),
(149,-2,l)
);
},
{
attr = {
lineCapEnd = 1;
lineCapStart = 1;
strokeHeight = 60;
strokeWidth = 65;
};
closed = 0;
nodes = (
(579,29,l),
(165,747,l)
);
}
);
width = 743;
},
{
anchors = (
{
name = bottom;
pos = (372,0);
},
{
name = top;
pos = (372,700);
}
);
background = {
shapes = (
{
closed = 0;
nodes = (
(589,700,l),
(565,0,l),
(174,699,l),
(153,112,ls),
(150,29,o),
(126,0,o),
(57,0,c)
);
}
);
};
layerId = m004;
shapes = (
{
alignment = -1;
ref = _GuideLine;
scale = (1.49,1);
}
);
width = 743;
},
{
anchors = (
{
name = bottom;
pos = (372,0);
},
{
name = top;
pos = (372,700);
}
);
background = {
shapes = (
{
closed = 0;
nodes = (
(589,700,l),
(565,0,l),
(174,699,l),
(153,112,ls),
(150,29,o),
(126,0,o),
(57,0,c)
);
}
);
};
layerId = m005;
shapes = (
{
attr = {
lineCapEnd = 1;
lineCapStart = 2;
strokeHeight = 60;
strokeWidth = 65;
};
closed = 0;
nodes = (
(593,777,l),
(580,28,l)
);
},
{
attr = {
lineCapEnd = 2;
lineCapStart = 1;
strokeHeight = 60;
strokeWidth = 65;
};
closed = 0;
nodes = (
(164,747,l),
(149,-2,l)
);
},
{
attr = {
lineCapEnd = 1;
lineCapStart = 1;
strokeHeight = 60;
strokeWidth = 65;
};
closed = 0;
nodes = (
(579,29,l),
(165,747,l)
);
},
{
alignment = -1;
ref = _GuideLine;
scale = (1.49,1);
}
);
width = 743;
}
);
unicode = 78;
},
{
color = 9;
glyphname = O;
kernLeft = O;
kernRight = O;
lastChange = "2025-01-10 12:46:48 +0000";
layers = (
{
anchors = (
{
name = bottom;
pos = (409,0);
},
{
name = center;
pos = (409,360);
},
{
name = ogonek;
pos = (534,65);
},
{
name = top;
pos = (429,700);
},
{
name = topleft;
pos = (59,720);
},
{
name = topright;
pos = (758,720);
}
);
background = {
shapes = (
{
closed = 0;
nodes = (
(243,170,l),
(202,170,o),
(159,203,o),
(153,265,cs),
(136,463,o),
(238,700,o),
(436,700,cs),
(585,700,o),
(663,578,o),
(675,435,cs),
(692,237,o),
(585,0,o),
(381,0,cs),
(303,0,o),
(241,30,o),
(202,77,c)
);
}
);
};
layerId = "6F9C6BB4-2DCF-443B-A55D-9CE049090094";
shapes = (
{
attr = {
lineCapEnd = 1;
lineCapStart = 1;
strokeHeight = 60;
strokeWidth = 65;
};
closed = 0;
nodes = (
(432,750,l),
(595,750,o),
(686,611,o),
(689,435,cs),
(693,239,o),
(586,26,o),
(387,26,cs),
(224,26,o),
(133,167,o),
(130,342,cs),
(126,538,o),
(233,750,o),
(432,750,c)
);
}
);
width = 819;
},
{
anchors = (
{
name = bottom;
pos = (409,0);
},
{
name = center;
pos = (409,360);
},
{
name = ogonek;
pos = (534,65);
},
{
name = top;
pos = (429,700);
},
{
name = topleft;
pos = (59,720);
},
{
name = topright;
pos = (758,720);
}
);
background = {
shapes = (
{
closed = 0;
nodes = (
(243,170,l),
(202,170,o),
(159,203,o),
(153,265,cs),
(136,463,o),
(238,700,o),
(436,700,cs),
(585,700,o),
(663,578,o),
(675,435,cs),
(692,237,o),
(585,0,o),
(381,0,cs),
(303,0,o),
(241,30,o),
(202,77,c)
);
}
);
};
layerId = m002;
shapes = (
{
attr = {
lineCapEnd = 1;
lineCapStart = 1;
strokeHeight = 60;
strokeWidth = 65;
};
closed = 0;
nodes = (
(432,750,l),
(595,750,o),
(686,611,o),
(689,435,cs),
(693,239,o),
(586,26,o),
(387,26,cs),
(224,26,o),
(133,167,o),
(130,342,cs),
(126,538,o),
(233,750,o),
(432,750,c)
);
},
{
alignment = -1;
ref = _GuideLine;
scale = (1.64,1);
}
);
width = 819;
},
{
anchors = (
{
name = bottom;
pos = (409,0);
},
{
name = center;
pos = (409,360);
},
{
name = ogonek;
pos = (704,10);
},
{
name = top;
pos = (429,745);
},
{
name = topleft;
pos = (59,720);
},
{
name = topright;
pos = (758,720);
}
);
background = {
shapes = (
{
closed = 0;
nodes = (
(243,170,l),
(202,170,o),
(159,203,o),
(153,265,cs),
(136,463,o),
(238,700,o),
(436,700,cs),
(585,700,o),
(663,578,o),
(675,435,cs),
(692,237,o),
(585,0,o),
(381,0,cs),
(303,0,o),
(241,30,o),
(202,77,c)
);
}
);
};
layerId = "F3447581-435E-44E2-ABAC-414C89955411";
shapes = (
{
attr = {
lineCapEnd = 1;
lineCapStart = 1;
strokeHeight = 60;
strokeWidth = 65;
};
closed = 0;
nodes = (
(432,750,l),
(595,750,o),
(686,611,o),
(689,435,cs),
(693,239,o),
(586,26,o),
(387,26,cs),
(224,26,o),
(133,167,o),
(130,342,cs),
(126,538,o),
(233,750,o),
(432,750,c)
);
}
);
width = 819;
},
{
anchors = (
{
name = bottom;
pos = (409,0);
},
{
name = center;
pos = (409,360);
},
{
name = ogonek;
pos = (534,65);
},
{
name = top;
pos = (429,700);
},
{
name = topleft;
pos = (59,720);
},
{
name = topright;
pos = (758,720);
}
);
background = {
shapes = (
{
closed = 0;
nodes = (
(243,170,l),
(202,170,o),
(159,203,o),
(153,265,cs),
(136,463,o),
(238,700,o),
(436,700,cs),
(585,700,o),
(663,578,o),
(675,435,cs),
(692,237,o),
(585,0,o),
(381,0,cs),
(303,0,o),
(241,30,o),
(202,77,c)
);
}
);
};
layerId = m004;
shapes = (
{
alignment = -1;
ref = _GuideLine;
scale = (1.64,1);
}
);
width = 819;
},
{
anchors = (
{
name = bottom;
pos = (409,0);
},
{
name = center;
pos = (409,360);
},
{
name = ogonek;
pos = (534,65);
},
{
name = top;
pos = (429,700);
},
{
name = topleft;
pos = (59,720);
},
{
name = topright;
pos = (758,720);
}
);
background = {
shapes = (
{
closed = 0;
nodes = (
(243,170,l),
(202,170,o),
(159,203,o),
(153,265,cs),
(136,463,o),
(238,700,o),
(436,700,cs),
(585,700,o),
(663,578,o),
(675,435,cs),
(692,237,o),
(585,0,o),
(381,0,cs),
(303,0,o),
(241,30,o),
(202,77,c)
);
}
);
};
layerId = m005;
shapes = (
{
attr = {
lineCapEnd = 1;
lineCapStart = 1;
strokeHeight = 60;
strokeWidth = 65;
};
closed = 0;
nodes = (
(432,750,l),
(595,750,o),
(686,611,o),
(689,435,cs),
(693,239,o),
(586,26,o),
(387,26,cs),
(224,26,o),
(133,167,o),
(130,342,cs),
(126,538,o),
(233,750,o),
(432,750,c)
);
},
{
alignment = -1;
ref = _GuideLine;
scale = (1.64,1);
}
);
width = 819;
}
);
unicode = 79;
},
{
color = 9;
glyphname = Oslash;
kernLeft = O;
kernRight = O;
lastChange = "2024-12-06 09:22:03 +0000";
layers = (
{
layerId = "6F9C6BB4-2DCF-443B-A55D-9CE049090094";
shapes = (
{
pos = (1,0);
ref = O;
},
{
attr = {
identifier = ID0x7fadb183f0a0;
lineCapEnd = "1";
lineCapStart = "1";
strokeHeight = 50;
strokeWidth = 55;
};
closed = 0;
nodes = (
(724,741,l),
(108,0,l)
);
}
);
width = 807;
},
{
layerId = m002;
shapes = (
{
pos = (1,0);
ref = O;
},
{
attr = {
identifier = ID0x7fadb183f0a0;
lineCapEnd = "1";
lineCapStart = "1";
strokeHeight = 50;
strokeWidth = 55;
};
closed = 0;
nodes = (
(724,741,l),
(108,0,l)
);
}
);
width = 807;
},
{
layerId = "F3447581-435E-44E2-ABAC-414C89955411";
shapes = (
{
pos = (1,0);
ref = O;
},
{
attr = {
identifier = ID0x7fadb183f0a0;
lineCapEnd = "1";
lineCapStart = "1";
strokeHeight = 50;
strokeWidth = 55;
};
closed = 0;
nodes = (
(724,741,l),
(108,0,l)
);
}
);
width = 807;
},
{
layerId = m004;
shapes = (
{
ref = O;
}
);
width = 819;
},
{
layerId = m005;
shapes = (
{
pos = (1,0);
ref = O;
},
{
attr = {
identifier = ID0x7fadb183f0a0;
lineCapEnd = "1";
lineCapStart = "1";
strokeHeight = 50;
strokeWidth = 55;
};
closed = 0;
nodes = (
(724,741,l),
(108,0,l)
);
}
);
width = 807;
}
);
unicode = 216;
},
{
color = 9;
glyphname = OE;
kernLeft = O;
kernRight = E;
lastChange = "2024-12-06 09:22:03 +0000";
layers = (
{
anchors = (
{
name = bottom;
pos = (432,0);
},
{
name = center;
pos = (432,350);
},
{
name = ogonek;
pos = (727,10);
},
{
name = top;
pos = (432,650);
},
{
name = topleft;
pos = (82,700);
},
{
name = topright;
pos = (781,700);
}
);
background = {
shapes = (
{
attr = {
identifier = ID0x7fadae80b090;
lineCapEnd = 1;
lineCapStart = 1;
};
closed = 0;
nodes = (
(813,0,l),
(519,0,l),
(533,700,l),
(816,700,l)
);
},
{
attr = {
identifier = ID0x7fadae80b090;
lineCapEnd = 1;
lineCapStart = 1;
};
closed = 0;
nodes = (
(526,344,l),
(780,344,l)
);
},
{
attr = {
identifier = ID0x7fe542542670;
lineCapEnd = 1;
lineCapStart = 1;
};
closed = 1;
nodes = (
(560,700,o),
(647,565,o),
(650,394,cs),
(654,205,o),
(551,0,o),
(361,0,cs),
(205,0,o),
(118,135,o),
(115,306,cs),
(111,495,o),
(214,700,o),
(404,700,cs)
);
}
);
};
layerId = "6F9C6BB4-2DCF-443B-A55D-9CE049090094";
shapes = (
{
attr = {
identifier = ID0x7fe542542670;
lineCapEnd = 1;
lineCapStart = 1;
strokeHeight = 60;
strokeWidth = 65;
};
closed = 0;
nodes = (
(523,86,l),
(479,50,o),
(422,25,o),
(357,25,cs),
(195,25,o),
(105,161,o),
(101,332,cs),
(97,524,o),
(204,729,o),
(402,729,cs),
(454,729,o),
(499,715,o),
(536,690,c)
);
},
{
attr = {
identifier = ID0x7fadae80b090;
lineCapEnd = "1";
lineCapStart = "1";
strokeHeight = 60;
strokeWidth = 65;
};
closed = 0;
nodes = (
(827,30,l),
(521,30,l),
(536,724,l),
(830,724,l)
);
},
{
attr = {
identifier = ID0x7fadae80b090;
lineCapEnd = "1";
lineCapStart = "1";
strokeHeight = 60;
strokeWidth = 65;
};
closed = 0;
nodes = (
(529,369,l),
(793,369,l)
);
}
);
width = 947;
},
{
anchors = (
{
name = bottom;
pos = (432,0);
},
{
name = center;
pos = (432,350);
},
{
name = ogonek;
pos = (727,10);
},
{
name = top;
pos = (432,650);
},
{
name = topleft;
pos = (82,700);
},
{
name = topright;
pos = (781,700);
}
);
background = {
shapes = (
{
attr = {
identifier = ID0x7fadae80b090;
lineCapEnd = 1;
lineCapStart = 1;
};
closed = 0;
nodes = (
(813,0,l),
(519,0,l),
(533,700,l),
(816,700,l)
);
},
{
attr = {
identifier = ID0x7fadae80b090;
lineCapEnd = 1;
lineCapStart = 1;
};
closed = 0;
nodes = (
(526,344,l),
(780,344,l)
);
},
{
attr = {
identifier = ID0x7fe542542670;
lineCapEnd = 1;
lineCapStart = 1;
};
closed = 1;
nodes = (
(560,700,o),
(647,565,o),
(650,394,cs),
(654,205,o),
(551,0,o),
(361,0,cs),
(205,0,o),
(118,135,o),
(115,306,cs),
(111,495,o),
(214,700,o),
(404,700,cs)
);
}
);
};
layerId = m002;
shapes = (
{
attr = {
identifier = ID0x7fe542542670;
lineCapEnd = 1;
lineCapStart = 1;
strokeHeight = 60;
strokeWidth = 65;
};
closed = 0;
nodes = (
(523,86,l),
(479,50,o),
(422,25,o),
(357,25,cs),
(195,25,o),
(105,161,o),
(101,332,cs),
(97,524,o),
(204,729,o),
(402,729,cs),
(454,729,o),
(499,715,o),
(536,690,c)
);
},
{
attr = {
identifier = ID0x7fadae80b090;
lineCapEnd = "1";
lineCapStart = "1";
strokeHeight = 60;
strokeWidth = 65;
};
closed = 0;
nodes = (
(827,30,l),
(521,30,l),
(536,724,l),
(830,724,l)
);
},
{
attr = {
identifier = ID0x7fadae80b090;
lineCapEnd = "1";
lineCapStart = "1";
strokeHeight = 60;
strokeWidth = 65;
};
closed = 0;
nodes = (
(529,369,l),
(793,369,l)
);
},
{
alignment = -1;
ref = _GuideLine;
scale = (1.9,1);
}
);
width = 947;
},
{
anchors = (
{
name = bottom;
pos = (432,0);
},
{
name = center;
pos = (432,350);
},
{
name = ogonek;
pos = (727,10);
},
{
name = top;
pos = (432,650);
},
{
name = topleft;
pos = (82,700);
},
{
name = topright;
pos = (781,700);
}
);
background = {
shapes = (
{
attr = {
identifier = ID0x7fadae80b090;
lineCapEnd = 1;
lineCapStart = 1;
};
closed = 0;
nodes = (
(813,0,l),
(519,0,l),
(533,700,l),
(816,700,l)
);
},
{
attr = {
identifier = ID0x7fadae80b090;
lineCapEnd = 1;
lineCapStart = 1;
};
closed = 0;
nodes = (
(526,344,l),
(780,344,l)
);
},
{
attr = {
identifier = ID0x7fe542542670;
lineCapEnd = 1;
lineCapStart = 1;
};
closed = 1;
nodes = (
(560,700,o),
(647,565,o),
(650,394,cs),
(654,205,o),
(551,0,o),
(361,0,cs),
(205,0,o),
(118,135,o),
(115,306,cs),
(111,495,o),
(214,700,o),
(404,700,cs)
);
}
);
};
layerId = "F3447581-435E-44E2-ABAC-414C89955411";
shapes = (
{
attr = {
identifier = ID0x7fe542542670;
lineCapEnd = 1;
lineCapStart = 1;
strokeHeight = 60;
strokeWidth = 65;
};
closed = 0;
nodes = (
(523,86,l),
(479,50,o),
(422,25,o),
(357,25,cs),
(195,25,o),
(105,161,o),
(101,332,cs),
(97,524,o),
(204,729,o),
(402,729,cs),
(454,729,o),
(499,715,o),
(536,690,c)
);
},
{
attr = {
identifier = ID0x7fadae80b090;
lineCapEnd = "1";
lineCapStart = "1";
strokeHeight = 60;
strokeWidth = 65;
};
closed = 0;
nodes = (
(827,30,l),
(521,30,l),
(536,724,l),
(830,724,l)
);
},
{
attr = {
identifier = ID0x7fadae80b090;
lineCapEnd = "1";
lineCapStart = "1";
strokeHeight = 60;
strokeWidth = 65;
};
closed = 0;
nodes = (
(529,369,l),
(793,369,l)
);
}
);
width = 947;
},
{
background = {
shapes = (
{
attr = {
identifier = ID0x7fadae80b090;
lineCapEnd = 1;
lineCapStart = 1;
};
closed = 0;
nodes = (
(813,0,l),
(519,0,l),
(533,700,l),
(816,700,l)
);
},
{
attr = {
identifier = ID0x7fadae80b090;
lineCapEnd = 1;
lineCapStart = 1;
};
closed = 0;
nodes = (
(526,344,l),
(780,344,l)
);
},
{
attr = {
identifier = ID0x7fe542542670;
lineCapEnd = 1;
lineCapStart = 1;
};
closed = 1;
nodes = (
(560,700,o),
(647,565,o),
(650,394,cs),
(654,205,o),
(551,0,o),
(361,0,cs),
(205,0,o),
(118,135,o),
(115,306,cs),
(111,495,o),
(214,700,o),
(404,700,cs)
);
}
);
};
layerId = m004;
shapes = (
{
alignment = -1;
ref = _GuideLine;
scale = (2.0831,1);
}
);
width = 1036;
},
{
anchors = (
{
name = bottom;
pos = (432,0);
},
{
name = center;
pos = (432,350);
},
{
name = ogonek;
pos = (727,10);
},
{
name = top;
pos = (432,650);
},
{
name = topleft;
pos = (82,700);
},
{
name = topright;
pos = (781,700);
}
);
background = {
shapes = (
{
attr = {
identifier = ID0x7fadae80b090;
lineCapEnd = 1;
lineCapStart = 1;
};
closed = 0;
nodes = (
(813,0,l),
(519,0,l),
(533,700,l),
(816,700,l)
);
},
{
attr = {
identifier = ID0x7fadae80b090;
lineCapEnd = 1;
lineCapStart = 1;
};
closed = 0;
nodes = (
(526,344,l),
(780,344,l)
);
},
{
attr = {
identifier = ID0x7fe542542670;
lineCapEnd = 1;
lineCapStart = 1;
};
closed = 1;
nodes = (
(560,700,o),
(647,565,o),
(650,394,cs),
(654,205,o),
(551,0,o),
(361,0,cs),
(205,0,o),
(118,135,o),
(115,306,cs),
(111,495,o),
(214,700,o),
(404,700,cs)
);
}
);
};
layerId = m005;
shapes = (
{
attr = {
identifier = ID0x7fe542542670;
lineCapEnd = 1;
lineCapStart = 1;
strokeHeight = 60;
strokeWidth = 65;
};
closed = 0;
nodes = (
(523,86,l),
(479,50,o),
(422,25,o),
(357,25,cs),
(195,25,o),
(105,161,o),
(101,332,cs),
(97,524,o),
(204,729,o),
(402,729,cs),
(454,729,o),
(499,715,o),
(536,690,c)
);
},
{
attr = {
identifier = ID0x7fadae80b090;
lineCapEnd = "1";
lineCapStart = "1";
strokeHeight = 60;
strokeWidth = 65;
};
closed = 0;
nodes = (
(827,30,l),
(521,30,l),
(536,724,l),
(830,724,l)
);
},
{
attr = {
identifier = ID0x7fadae80b090;
lineCapEnd = "1";
lineCapStart = "1";
strokeHeight = 60;
strokeWidth = 65;
};
closed = 0;
nodes = (
(529,369,l),
(793,369,l)
);
},
{
alignment = -1;
ref = _GuideLine;
scale = (1.9,1);
}
);
width = 947;
}
);
unicode = 338;
},
{
color = 9;
glyphname = P;
kernLeft = H;
kernRight = F;
lastChange = "2024-12-06 13:54:55 +0000";
layers = (
{
background = {
shapes = (
{
pos = (89,0);
ref = B;
}
);
};
layerId = "6F9C6BB4-2DCF-443B-A55D-9CE049090094";
shapes = (
{
attr = {
lineCapEnd = 2;
lineCapStart = 2;
strokeHeight = 60;
strokeWidth = 65;
};
closed = 0;
nodes = (
(149,-2,l),
(165,744,l),
(338,744,ls),
(456,744,o),
(517,690,o),
(517,587,cs),
(517,444,o),
(383,346,o),
(160,346,c)
);
}
);
width = 633;
},
{
background = {
shapes = (
{
pos = (89,0);
ref = B;
}
);
};
layerId = m002;
shapes = (
{
attr = {
lineCapEnd = 2;
lineCapStart = 2;
strokeHeight = 60;
strokeWidth = 65;
};
closed = 0;
nodes = (
(149,-2,l),
(165,744,l),
(338,744,ls),
(456,744,o),
(517,690,o),
(517,587,cs),
(517,444,o),
(383,346,o),
(160,346,c)
);
},
{
alignment = -1;
ref = _GuideLine;
scale = (1.29,1);
}
);
width = 633;
},
{
background = {
shapes = (
{
pos = (89,0);
ref = B;
}
);
};
layerId = "F3447581-435E-44E2-ABAC-414C89955411";
shapes = (
{
attr = {
lineCapEnd = 2;
lineCapStart = 2;
strokeHeight = 60;
strokeWidth = 65;
};
closed = 0;
nodes = (
(149,-2,l),
(165,744,l),
(338,744,ls),
(456,744,o),
(517,690,o),
(517,587,cs),
(517,444,o),
(383,346,o),
(160,346,c)
);
}
);
width = 633;
},
{
background = {
shapes = (
{
pos = (89,0);
ref = B;
}
);
};
layerId = m004;
shapes = (
{
alignment = -1;
ref = _GuideLine;
scale = (1.29,1);
}
);
width = 633;
},
{
background = {
shapes = (
{
pos = (89,0);
ref = B;
}
);
};
layerId = m005;
shapes = (
{
attr = {
lineCapEnd = 2;
lineCapStart = 2;
strokeHeight = 60;
strokeWidth = 65;
};
closed = 0;
nodes = (
(149,-2,l),
(165,744,l),
(338,744,ls),
(456,744,o),
(517,690,o),
(517,587,cs),
(517,444,o),
(383,346,o),
(160,346,c)
);
},
{
alignment = -1;
ref = _GuideLine;
scale = (1.29,1);
}
);
width = 633;
}
);
unicode = 80;
},
{
color = 9;
glyphname = Thorn;
kernLeft = H;
kernRight = Thorn;
lastChange = "2024-12-06 09:22:03 +0000";
layers = (
{
layerId = "6F9C6BB4-2DCF-443B-A55D-9CE049090094";
shapes = (
{
attr = {
identifier = ID0x7fadab497160;
lineCapEnd = 2;
lineCapStart = 2;
strokeHeight = 60;
strokeWidth = 65;
};
closed = 0;
nodes = (
(120,-2,l),
(136,756,l)
);
},
{
attr = {
identifier = ID0x7fadab497160;
lineCapEnd = 1;
lineCapStart = 1;
strokeHeight = 60;
strokeWidth = 65;
};
closed = 0;
nodes = (
(136,582,l),
(309,582,ls),
(427,582,o),
(488,526,o),
(488,419,cs),
(488,273,o),
(354,171,o),
(131,171,c)
);
}
);
width = 585;
},
{
layerId = m002;
shapes = (
{
attr = {
identifier = ID0x7fadab497160;
lineCapEnd = 2;
lineCapStart = 2;
strokeHeight = 60;
strokeWidth = 65;
};
closed = 0;
nodes = (
(120,-2,l),
(136,756,l)
);
},
{
attr = {
identifier = ID0x7fadab497160;
lineCapEnd = 1;
lineCapStart = 1;
strokeHeight = 60;
strokeWidth = 65;
};
closed = 0;
nodes = (
(136,582,l),
(309,582,ls),
(427,582,o),
(488,526,o),
(488,419,cs),
(488,273,o),
(354,171,o),
(131,171,c)
);
},
{
alignment = -1;
ref = _GuideLine;
scale = (1.17,1);
}
);
width = 585;
},
{
layerId = "F3447581-435E-44E2-ABAC-414C89955411";
shapes = (
{
attr = {
identifier = ID0x7fadab497160;
lineCapEnd = 2;
lineCapStart = 2;
strokeHeight = 60;
strokeWidth = 65;
};
closed = 0;
nodes = (
(120,-2,l),
(136,756,l)
);
},
{
attr = {
identifier = ID0x7fadab497160;
lineCapEnd = 1;
lineCapStart = 1;
strokeHeight = 60;
strokeWidth = 65;
};
closed = 0;
nodes = (
(136,582,l),
(309,582,ls),
(427,582,o),
(488,526,o),
(488,419,cs),
(488,273,o),
(354,171,o),
(131,171,c)
);
}
);
width = 585;
},
{
layerId = m004;
shapes = (
{
alignment = -1;
ref = _GuideLine;
scale = (1.17,1);
}
);
width = 585;
},
{
layerId = m005;
shapes = (
{
attr = {
identifier = ID0x7fadab497160;
lineCapEnd = 2;
lineCapStart = 2;
strokeHeight = 60;
strokeWidth = 65;
};
closed = 0;
nodes = (
(120,-2,l),
(136,756,l)
);
},
{
attr = {
identifier = ID0x7fadab497160;
lineCapEnd = 1;
lineCapStart = 1;
strokeHeight = 60;
strokeWidth = 65;
};
closed = 0;
nodes = (
(136,582,l),
(309,582,ls),
(427,582,o),
(488,526,o),
(488,419,cs),
(488,273,o),
(354,171,o),
(131,171,c)
);
},
{
alignment = -1;
ref = _GuideLine;
scale = (1.17,1);
}
);
width = 585;
}
);
unicode = 222;
},
{
color = 9;
glyphname = Q;
kernLeft = O;
kernRight = Q;
lastChange = "2024-12-06 09:22:03 +0000";
layers = (
{
background = {
shapes = (
{
closed = 0;
nodes = (
(527,500,l),
(593,500,o),
(623,449,o),
(623,383,cs),
(623,226,o),
(519,0,o),
(344,0,cs),
(188,0,o),
(103,135,o),
(103,306,cs),
(103,495,o),
(209,700,o),
(399,700,cs),
(477,700,o),
(539,670,o),
(578,623,cs)
);
}
);
};
layerId = "6F9C6BB4-2DCF-443B-A55D-9CE049090094";
shapes = (
{
attr = {
lineCapEnd = 1;
lineCapStart = 1;
strokeHeight = 60;
strokeWidth = 65;
};
closed = 0;
nodes = (
(388,221,l),
(640,-57,l)
);
},
{
pos = (-2,0);
ref = O;
}
);
width = 758;
},
{
background = {
shapes = (
{
closed = 0;
nodes = (
(527,500,l),
(593,500,o),
(623,449,o),
(623,383,cs),
(623,226,o),
(519,0,o),
(344,0,cs),
(188,0,o),
(103,135,o),
(103,306,cs),
(103,495,o),
(209,700,o),
(399,700,cs),
(477,700,o),
(539,670,o),
(578,623,cs)
);
}
);
};
layerId = m002;
shapes = (
{
attr = {
lineCapEnd = 1;
lineCapStart = 1;
strokeHeight = 60;
strokeWidth = 65;
};
closed = 0;
nodes = (
(388,221,l),
(640,-57,l)
);
},
{
pos = (-2,0);
ref = O;
}
);
width = 758;
},
{
background = {
shapes = (
{
closed = 0;
nodes = (
(527,500,l),
(593,500,o),
(623,449,o),
(623,383,cs),
(623,226,o),
(519,0,o),
(344,0,cs),
(188,0,o),
(103,135,o),
(103,306,cs),
(103,495,o),
(209,700,o),
(399,700,cs),
(477,700,o),
(539,670,o),
(578,623,cs)
);
}
);
};
layerId = "F3447581-435E-44E2-ABAC-414C89955411";
shapes = (
{
attr = {
lineCapEnd = 1;
lineCapStart = 1;
strokeHeight = 60;
strokeWidth = 65;
};
closed = 0;
nodes = (
(388,221,l),
(640,-57,l)
);
},
{
pos = (-2,0);
ref = O;
}
);
width = 758;
},
{
anchors = (
{
name = bottom;
pos = (407,0);
},
{
name = center;
pos = (407,360);
},
{
name = ogonek;
pos = (532,65);
},
{
name = top;
pos = (427,700);
},
{
name = topleft;
pos = (57,720);
},
{
name = topright;
pos = (756,720);
}
);
background = {
shapes = (
{
closed = 0;
nodes = (
(527,500,l),
(593,500,o),
(623,449,o),
(623,383,cs),
(623,226,o),
(519,0,o),
(344,0,cs),
(188,0,o),
(103,135,o),
(103,306,cs),
(103,495,o),
(209,700,o),
(399,700,cs),
(477,700,o),
(539,670,o),
(578,623,cs)
);
}
);
};
layerId = m004;
shapes = (
{
alignment = -1;
pos = (-2,0);
ref = _GuideLine;
scale = (1.64,1);
}
);
width = 758;
},
{
background = {
shapes = (
{
closed = 0;
nodes = (
(527,500,l),
(593,500,o),
(623,449,o),
(623,383,cs),
(623,226,o),
(519,0,o),
(344,0,cs),
(188,0,o),
(103,135,o),
(103,306,cs),
(103,495,o),
(209,700,o),
(399,700,cs),
(477,700,o),
(539,670,o),
(578,623,cs)
);
}
);
};
layerId = m005;
shapes = (
{
attr = {
lineCapEnd = 1;
lineCapStart = 1;
strokeHeight = 60;
strokeWidth = 65;
};
closed = 0;
nodes = (
(388,221,l),
(640,-57,l)
);
},
{
pos = (-2,0);
ref = O;
}
);
width = 758;
}
);
unicode = 81;
},
{
color = 9;
glyphname = R;
kernLeft = H;
kernRight = R;
lastChange = "2024-12-06 09:22:03 +0000";
layers = (
{
background = {
shapes = (
{
pos = (89,0);
ref = B;
}
);
};
layerId = "6F9C6BB4-2DCF-443B-A55D-9CE049090094";
shapes = (
{
attr = {
lineCapEnd = 2;
lineCapStart = 2;
strokeHeight = 60;
strokeWidth = 65;
};
closed = 0;
nodes = (
(149,-2,l),
(164,744,l),
(343,744,ls),
(447,744,o),
(518,704,o),
(518,612,cs),
(518,468,o),
(399,376,o),
(161,376,c)
);
},
{
attr = {
lineCapEnd = 1;
lineCapStart = 1;
strokeHeight = 60;
strokeWidth = 65;
};
closed = 0;
nodes = (
(201,373,l),
(570,27,l)
);
}
);
width = 687;
},
{
background = {
shapes = (
{
pos = (89,0);
ref = B;
}
);
};
layerId = m002;
shapes = (
{
attr = {
lineCapEnd = 2;
lineCapStart = 2;
strokeHeight = 60;
strokeWidth = 65;
};
closed = 0;
nodes = (
(149,-2,l),
(164,744,l),
(343,744,ls),
(447,744,o),
(518,704,o),
(518,612,cs),
(518,468,o),
(399,376,o),
(161,376,c)
);
},
{
attr = {
lineCapEnd = 1;
lineCapStart = 1;
strokeHeight = 60;
strokeWidth = 65;
};
closed = 0;
nodes = (
(201,373,l),
(570,27,l)
);
},
{
alignment = -1;
ref = _GuideLine;
scale = (1.38,1);
}
);
width = 687;
},
{
background = {
shapes = (
{
pos = (89,0);
ref = B;
}
);
};
layerId = "F3447581-435E-44E2-ABAC-414C89955411";
shapes = (
{
attr = {
lineCapEnd = 2;
lineCapStart = 2;
strokeHeight = 60;
strokeWidth = 65;
};
closed = 0;
nodes = (
(149,-2,l),
(164,744,l),
(343,744,ls),
(447,744,o),
(518,704,o),
(518,612,cs),
(518,468,o),
(399,376,o),
(161,376,c)
);
},
{
attr = {
lineCapEnd = 1;
lineCapStart = 1;
strokeHeight = 60;
strokeWidth = 65;
};
closed = 0;
nodes = (
(201,373,l),
(570,27,l)
);
}
);
width = 687;
},
{
background = {
shapes = (
{
pos = (89,0);
ref = B;
}
);
};
layerId = m004;
shapes = (
{
alignment = -1;
ref = _GuideLine;
scale = (1.38,1);
}
);
width = 687;
},
{
background = {
shapes = (
{
pos = (89,0);
ref = B;
}
);
};
layerId = m005;
shapes = (
{
attr = {
lineCapEnd = 2;
lineCapStart = 2;
strokeHeight = 60;
strokeWidth = 65;
};
closed = 0;
nodes = (
(149,-2,l),
(164,744,l),
(343,744,ls),
(447,744,o),
(518,704,o),
(518,612,cs),
(518,468,o),
(399,376,o),
(161,376,c)
);
},
{
attr = {
lineCapEnd = 1;
lineCapStart = 1;
strokeHeight = 60;
strokeWidth = 65;
};
closed = 0;
nodes = (
(201,373,l),
(570,27,l)
);
},
{
alignment = -1;
ref = _GuideLine;
scale = (1.38,1);
}
);
width = 687;
}
);
unicode = 82;
},
{
color = 9;
glyphname = S;
kernLeft = S;
kernRight = B;
lastChange = "2025-01-10 12:47:03 +0000";
layers = (
{
background = {
shapes = (
{
attr = {
lineCapEnd = 1;
lineCapStart = 1;
};
closed = 0;
nodes = (
(128,31,l),
(155,12,o),
(203,0,o),
(254,0,cs),
(357,0,o),
(474,49,o),
(471,188,cs),
(469,274,o),
(388,321,o),
(306,367,cs),
(228,411,o),
(145,464,o),
(145,556,cs),
(145,648,o),
(232,699,o),
(324,699,cs),
(367,699,o),
(411,688,o),
(448,664,cs)
);
}
);
};
hints = (
{
horizontal = 1;
origin = (0,0);
settings = {
deltaV = {
"{100, 100, 0, 0, 0, 0}" = {
"62" = 0;
};
};
};
type = TTDelta;
},
{
horizontal = 1;
origin = (0,0);
settings = {
deltaV = {
"{100, 100, 0, 0, 0, 0}" = {
"62" = 0;
};
};
};
type = TTDelta;
},
{
horizontal = 1;
origin = (0,0);
settings = {
deltaV = {
"{100, 100, 0, 0, 0, 0}" = {
"62" = 0;
};
};
};
type = TTDelta;
},
{
horizontal = 1;
origin = (0,3);
settings = {
deltaV = {
"{100, 100, 0, 0, 0, 0}" = {
"62" = 0;
};
};
};
type = TTDelta;
},
{
horizontal = 1;
origin = (0,9);
settings = {
deltaV = {
"{100, 100, 0, 0, 0, 0}" = {
"62" = 0;
};
};
};
type = TTDelta;
},
{
horizontal = 1;
origin = (0,9);
settings = {
deltaV = {
"{100, 100, 0, 0, 0, 0}" = {
"62" = 0;
};
};
};
type = TTDelta;
},
{
horizontal = 1;
origin = (0,9);
settings = {
deltaV = {
"{100, 100, 0, 0, 0, 0}" = {
"62" = 0;
};
};
};
type = TTDelta;
},
{
horizontal = 1;
origin = (0,12);
settings = {
deltaV = {
"{100, 100, 0, 0, 0, 0}" = {
"62" = 0;
};
};
};
type = TTDelta;
},
{
horizontal = 1;
origin = (0,12);
settings = {
deltaV = {
"{100, 100, 0, 0, 0, 0}" = {
"62" = 0;
};
};
};
type = TTDelta;
},
{
horizontal = 1;
origin = (0,12);
settings = {
deltaV = {
"{100, 100, 0, 0, 0, 0}" = {
"62" = 0;
};
};
};
type = TTDelta;
},
{
horizontal = 1;
origin = (0,12);
settings = {
deltaV = {
"{100, 100, 0, 0, 0, 0}" = {
"62" = 0;
};
};
};
type = TTDelta;
},
{
horizontal = 1;
origin = (0,12);
settings = {
deltaV = {
"{100, 100, 0, 0, 0, 0}" = {
"62" = 0;
};
};
};
type = TTDelta;
},
{
horizontal = 1;
origin = (0,12);
settings = {
deltaV = {
"{100, 100, 0, 0, 0, 0}" = {
"62" = 0;
};
};
};
type = TTDelta;
}
);
layerId = "6F9C6BB4-2DCF-443B-A55D-9CE049090094";
shapes = (
{
attr = {
lineCapEnd = 1;
lineCapStart = 1;
strokeHeight = 60;
strokeWidth = 65;
};
closed = 0;
nodes = (
(121,56,l),
(216,-4,o),
(483,2,o),
(479,220,cs),
(477,310,o),
(395,356,o),
(313,404,cs),
(226,453,o),
(139,503,o),
(139,603,cs),
(139,745,o),
(337,792,o),
(455,715,cs)
);
}
);
width = 604;
},
{
background = {
shapes = (
{
attr = {
lineCapEnd = 1;
lineCapStart = 1;
};
closed = 0;
nodes = (
(128,31,l),
(155,12,o),
(203,0,o),
(254,0,cs),
(357,0,o),
(474,49,o),
(471,188,cs),
(469,274,o),
(388,321,o),
(306,367,cs),
(228,411,o),
(145,464,o),
(145,556,cs),
(145,648,o),
(232,699,o),
(324,699,cs),
(367,699,o),
(411,688,o),
(448,664,cs)
);
}
);
};
hints = (
{
horizontal = 1;
origin = (0,0);
settings = {
deltaV = {
"{100, 100, 0, 0, 0, 0}" = {
"62" = 0;
};
};
};
type = TTDelta;
},
{
horizontal = 1;
origin = (0,0);
settings = {
deltaV = {
"{100, 100, 0, 0, 0, 0}" = {
"62" = 0;
};
};
};
type = TTDelta;
},
{
horizontal = 1;
origin = (0,0);
settings = {
deltaV = {
"{100, 100, 0, 0, 0, 0}" = {
"62" = 0;
};
};
};
type = TTDelta;
},
{
horizontal = 1;
origin = (0,3);
settings = {
deltaV = {
"{100, 100, 0, 0, 0, 0}" = {
"62" = 0;
};
};
};
type = TTDelta;
},
{
horizontal = 1;
origin = (0,9);
settings = {
deltaV = {
"{100, 100, 0, 0, 0, 0}" = {
"62" = 0;
};
};
};
type = TTDelta;
},
{
horizontal = 1;
origin = (0,9);
settings = {
deltaV = {
"{100, 100, 0, 0, 0, 0}" = {
"62" = 0;
};
};
};
type = TTDelta;
},
{
horizontal = 1;
origin = (0,9);
settings = {
deltaV = {
"{100, 100, 0, 0, 0, 0}" = {
"62" = 0;
};
};
};
type = TTDelta;
},
{
horizontal = 1;
origin = (0,12);
settings = {
deltaV = {
"{100, 100, 0, 0, 0, 0}" = {
"62" = 0;
};
};
};
type = TTDelta;
},
{
horizontal = 1;
origin = (0,12);
settings = {
deltaV = {
"{100, 100, 0, 0, 0, 0}" = {
"62" = 0;
};
};
};
type = TTDelta;
},
{
horizontal = 1;
origin = (0,12);
settings = {
deltaV = {
"{100, 100, 0, 0, 0, 0}" = {
"62" = 0;
};
};
};
type = TTDelta;
},
{
horizontal = 1;
origin = (0,12);
settings = {
deltaV = {
"{100, 100, 0, 0, 0, 0}" = {
"62" = 0;
};
};
};
type = TTDelta;
},
{
horizontal = 1;
origin = (0,12);
settings = {
deltaV = {
"{100, 100, 0, 0, 0, 0}" = {
"62" = 0;
};
};
};
type = TTDelta;
},
{
horizontal = 1;
origin = (0,12);
settings = {
deltaV = {
"{100, 100, 0, 0, 0, 0}" = {
"62" = 0;
};
};
};
type = TTDelta;
}
);
layerId = m002;
shapes = (
{
attr = {
lineCapEnd = 1;
lineCapStart = 1;
strokeHeight = 60;
strokeWidth = 65;
};
closed = 0;
nodes = (
(121,56,l),
(216,-4,o),
(483,2,o),
(479,220,cs),
(477,310,o),
(395,356,o),
(313,404,cs),
(226,453,o),
(139,503,o),
(139,603,cs),
(139,745,o),
(337,792,o),
(455,715,cs)
);
},
{
alignment = -1;
ref = _GuideLine;
scale = (1.21,1);
}
);
width = 604;
},
{
background = {
shapes = (
{
attr = {
lineCapEnd = 1;
lineCapStart = 1;
};
closed = 0;
nodes = (
(128,31,l),
(155,12,o),
(203,0,o),
(254,0,cs),
(357,0,o),
(474,49,o),
(471,188,cs),
(469,274,o),
(388,321,o),
(306,367,cs),
(228,411,o),
(145,464,o),
(145,556,cs),
(145,648,o),
(232,699,o),
(324,699,cs),
(367,699,o),
(411,688,o),
(448,664,cs)
);
}
);
};
hints = (
{
horizontal = 1;
origin = (0,0);
settings = {
deltaV = {
"{100, 100, 0, 0, 0, 0}" = {
"62" = 0;
};
};
};
type = TTDelta;
},
{
horizontal = 1;
origin = (0,0);
settings = {
deltaV = {
"{100, 100, 0, 0, 0, 0}" = {
"62" = 0;
};
};
};
type = TTDelta;
},
{
horizontal = 1;
origin = (0,0);
settings = {
deltaV = {
"{100, 100, 0, 0, 0, 0}" = {
"62" = 0;
};
};
};
type = TTDelta;
},
{
horizontal = 1;
origin = (0,3);
settings = {
deltaV = {
"{100, 100, 0, 0, 0, 0}" = {
"62" = 0;
};
};
};
type = TTDelta;
},
{
horizontal = 1;
origin = (0,9);
settings = {
deltaV = {
"{100, 100, 0, 0, 0, 0}" = {
"62" = 0;
};
};
};
type = TTDelta;
},
{
horizontal = 1;
origin = (0,9);
settings = {
deltaV = {
"{100, 100, 0, 0, 0, 0}" = {
"62" = 0;
};
};
};
type = TTDelta;
},
{
horizontal = 1;
origin = (0,9);
settings = {
deltaV = {
"{100, 100, 0, 0, 0, 0}" = {
"62" = 0;
};
};
};
type = TTDelta;
},
{
horizontal = 1;
origin = (0,12);
settings = {
deltaV = {
"{100, 100, 0, 0, 0, 0}" = {
"62" = 0;
};
};
};
type = TTDelta;
},
{
horizontal = 1;
origin = (0,12);
settings = {
deltaV = {
"{100, 100, 0, 0, 0, 0}" = {
"62" = 0;
};
};
};
type = TTDelta;
},
{
horizontal = 1;
origin = (0,12);
settings = {
deltaV = {
"{100, 100, 0, 0, 0, 0}" = {
"62" = 0;
};
};
};
type = TTDelta;
},
{
horizontal = 1;
origin = (0,12);
settings = {
deltaV = {
"{100, 100, 0, 0, 0, 0}" = {
"62" = 0;
};
};
};
type = TTDelta;
},
{
horizontal = 1;
origin = (0,12);
settings = {
deltaV = {
"{100, 100, 0, 0, 0, 0}" = {
"62" = 0;
};
};
};
type = TTDelta;
},
{
horizontal = 1;
origin = (0,12);
settings = {
deltaV = {
"{100, 100, 0, 0, 0, 0}" = {
"62" = 0;
};
};
};
type = TTDelta;
}
);
layerId = "F3447581-435E-44E2-ABAC-414C89955411";
shapes = (
{
attr = {
lineCapEnd = 1;
lineCapStart = 1;
strokeHeight = 60;
strokeWidth = 65;
};
closed = 0;
nodes = (
(121,56,l),
(216,-4,o),
(483,2,o),
(479,220,cs),
(477,310,o),
(395,356,o),
(313,404,cs),
(226,453,o),
(139,503,o),
(139,603,cs),
(139,745,o),
(337,792,o),
(455,715,cs)
);
}
);
width = 604;
},
{
background = {
shapes = (
{
attr = {
lineCapEnd = 1;
lineCapStart = 1;
};
closed = 0;
nodes = (
(128,31,l),
(155,12,o),
(203,0,o),
(254,0,cs),
(357,0,o),
(474,49,o),
(471,188,cs),
(469,274,o),
(388,321,o),
(306,367,cs),
(228,411,o),
(145,464,o),
(145,556,cs),
(145,648,o),
(232,699,o),
(324,699,cs),
(367,699,o),
(411,688,o),
(448,664,cs)
);
}
);
};
hints = (
{
horizontal = 1;
settings = {
deltaV = {
"{100, 100, 0, 0, 0, 0}" = {
"62" = 0;
};
};
};
type = TTDelta;
},
{
horizontal = 1;
settings = {
deltaV = {
"{100, 100, 0, 0, 0, 0}" = {
"62" = 0;
};
};
};
type = TTDelta;
},
{
horizontal = 1;
settings = {
deltaV = {
"{100, 100, 0, 0, 0, 0}" = {
"62" = 0;
};
};
};
type = TTDelta;
},
{
horizontal = 1;
settings = {
deltaV = {
"{100, 100, 0, 0, 0, 0}" = {
"62" = 0;
};
};
};
type = TTDelta;
},
{
horizontal = 1;
settings = {
deltaV = {
"{100, 100, 0, 0, 0, 0}" = {
"62" = 0;
};
};
};
type = TTDelta;
},
{
horizontal = 1;
settings = {
deltaV = {
"{100, 100, 0, 0, 0, 0}" = {
"62" = 0;
};
};
};
type = TTDelta;
},
{
horizontal = 1;
settings = {
deltaV = {
"{100, 100, 0, 0, 0, 0}" = {
"62" = 0;
};
};
};
type = TTDelta;
},
{
horizontal = 1;
settings = {
deltaV = {
"{100, 100, 0, 0, 0, 0}" = {
"62" = 0;
};
};
};
type = TTDelta;
},
{
horizontal = 1;
settings = {
deltaV = {
"{100, 100, 0, 0, 0, 0}" = {
"62" = 0;
};
};
};
type = TTDelta;
},
{
horizontal = 1;
settings = {
deltaV = {
"{100, 100, 0, 0, 0, 0}" = {
"62" = 0;
};
};
};
type = TTDelta;
},
{
horizontal = 1;
settings = {
deltaV = {
"{100, 100, 0, 0, 0, 0}" = {
"62" = 0;
};
};
};
type = TTDelta;
},
{
horizontal = 1;
settings = {
deltaV = {
"{100, 100, 0, 0, 0, 0}" = {
"62" = 0;
};
};
};
type = TTDelta;
},
{
horizontal = 1;
settings = {
deltaV = {
"{100, 100, 0, 0, 0, 0}" = {
"62" = 0;
};
};
};
type = TTDelta;
}
);
layerId = m004;
shapes = (
{
alignment = -1;
ref = _GuideLine;
scale = (1.21,1);
}
);
width = 604;
},
{
background = {
shapes = (
{
attr = {
lineCapEnd = 1;
lineCapStart = 1;
};
closed = 0;
nodes = (
(128,31,l),
(155,12,o),
(203,0,o),
(254,0,cs),
(357,0,o),
(474,49,o),
(471,188,cs),
(469,274,o),
(388,321,o),
(306,367,cs),
(228,411,o),
(145,464,o),
(145,556,cs),
(145,648,o),
(232,699,o),
(324,699,cs),
(367,699,o),
(411,688,o),
(448,664,cs)
);
}
);
};
hints = (
{
horizontal = 1;
origin = (0,0);
settings = {
deltaV = {
"{100, 100, 0, 0, 0, 0}" = {
"62" = 0;
};
};
};
type = TTDelta;
},
{
horizontal = 1;
origin = (0,0);
settings = {
deltaV = {
"{100, 100, 0, 0, 0, 0}" = {
"62" = 0;
};
};
};
type = TTDelta;
},
{
horizontal = 1;
origin = (0,0);
settings = {
deltaV = {
"{100, 100, 0, 0, 0, 0}" = {
"62" = 0;
};
};
};
type = TTDelta;
},
{
horizontal = 1;
origin = (0,3);
settings = {
deltaV = {
"{100, 100, 0, 0, 0, 0}" = {
"62" = 0;
};
};
};
type = TTDelta;
},
{
horizontal = 1;
origin = (0,9);
settings = {
deltaV = {
"{100, 100, 0, 0, 0, 0}" = {
"62" = 0;
};
};
};
type = TTDelta;
},
{
horizontal = 1;
origin = (0,9);
settings = {
deltaV = {
"{100, 100, 0, 0, 0, 0}" = {
"62" = 0;
};
};
};
type = TTDelta;
},
{
horizontal = 1;
origin = (0,9);
settings = {
deltaV = {
"{100, 100, 0, 0, 0, 0}" = {
"62" = 0;
};
};
};
type = TTDelta;
},
{
horizontal = 1;
origin = (0,12);
settings = {
deltaV = {
"{100, 100, 0, 0, 0, 0}" = {
"62" = 0;
};
};
};
type = TTDelta;
},
{
horizontal = 1;
origin = (0,12);
settings = {
deltaV = {
"{100, 100, 0, 0, 0, 0}" = {
"62" = 0;
};
};
};
type = TTDelta;
},
{
horizontal = 1;
origin = (0,12);
settings = {
deltaV = {
"{100, 100, 0, 0, 0, 0}" = {
"62" = 0;
};
};
};
type = TTDelta;
},
{
horizontal = 1;
origin = (0,12);
settings = {
deltaV = {
"{100, 100, 0, 0, 0, 0}" = {
"62" = 0;
};
};
};
type = TTDelta;
},
{
horizontal = 1;
origin = (0,12);
settings = {
deltaV = {
"{100, 100, 0, 0, 0, 0}" = {
"62" = 0;
};
};
};
type = TTDelta;
},
{
horizontal = 1;
origin = (0,12);
settings = {
deltaV = {
"{100, 100, 0, 0, 0, 0}" = {
"62" = 0;
};
};
};
type = TTDelta;
}
);
layerId = m005;
shapes = (
{
attr = {
lineCapEnd = 1;
lineCapStart = 1;
strokeHeight = 60;
strokeWidth = 65;
};
closed = 0;
nodes = (
(121,56,l),
(216,-4,o),
(483,2,o),
(479,220,cs),
(477,310,o),
(395,356,o),
(313,404,cs),
(226,453,o),
(139,503,o),
(139,603,cs),
(139,745,o),
(337,792,o),
(455,715,cs)
);
},
{
alignment = -1;
ref = _GuideLine;
scale = (1.21,1);
}
);
width = 604;
}
);
unicode = 83;
},
{
color = 9;
glyphname = Germandbls;
kernLeft = H;
kernRight = S;
lastChange = "2024-12-06 09:22:03 +0000";
layers = (
{
hints = (
{
horizontal = 1;
settings = {
deltaV = {
"{100, 100, 0, 0, 0, 0}" = {
"62" = 0;
};
};
};
type = TTDelta;
},
{
horizontal = 1;
settings = {
deltaV = {
"{100, 100, 0, 0, 0, 0}" = {
"62" = 0;
};
};
};
type = TTDelta;
},
{
horizontal = 1;
settings = {
deltaV = {
"{100, 100, 0, 0, 0, 0}" = {
"62" = 0;
};
};
};
type = TTDelta;
},
{
horizontal = 1;
settings = {
deltaV = {
"{100, 100, 0, 0, 0, 0}" = {
"62" = 0;
};
};
};
type = TTDelta;
},
{
horizontal = 1;
settings = {
deltaV = {
"{100, 100, 0, 0, 0, 0}" = {
"62" = 0;
};
};
};
type = TTDelta;
},
{
horizontal = 1;
settings = {
deltaV = {
"{100, 100, 0, 0, 0, 0}" = {
"62" = 0;
};
};
};
type = TTDelta;
},
{
horizontal = 1;
settings = {
deltaV = {
"{100, 100, 0, 0, 0, 0}" = {
"62" = 0;
};
};
};
type = TTDelta;
},
{
horizontal = 1;
settings = {
deltaV = {
"{100, 100, 0, 0, 0, 0}" = {
"62" = 0;
};
};
};
type = TTDelta;
},
{
horizontal = 1;
settings = {
deltaV = {
"{100, 100, 0, 0, 0, 0}" = {
"62" = 0;
};
};
};
type = TTDelta;
},
{
horizontal = 1;
settings = {
deltaV = {
"{100, 100, 0, 0, 0, 0}" = {
"62" = 0;
};
};
};
type = TTDelta;
},
{
horizontal = 1;
settings = {
deltaV = {
"{100, 100, 0, 0, 0, 0}" = {
"62" = 0;
};
};
};
type = TTDelta;
},
{
horizontal = 1;
settings = {
deltaV = {
"{100, 100, 0, 0, 0, 0}" = {
"62" = 0;
};
};
};
type = TTDelta;
},
{
horizontal = 1;
settings = {
deltaV = {
"{100, 100, 0, 0, 0, 0}" = {
"62" = 0;
};
};
};
type = TTDelta;
}
);
layerId = "6F9C6BB4-2DCF-443B-A55D-9CE049090094";
shapes = (
{
attr = {
identifier = ID0x7fadb0841000;
lineCapEnd = "1";
lineCapStart = "1";
strokeHeight = 60;
strokeWidth = 65;
};
closed = 0;
nodes = (
(287,48,l),
(365,1,o),
(579,4,o),
(579,186,cs),
(579,257,o),
(512,294,o),
(443,331,cs),
(373,370,o),
(301,409,o),
(301,487,cs),
(301,585,o),
(393,634,o),
(506,695,cs),
(523,704,o),
(539,712,o),
(556,722,c)
);
},
{
attr = {
identifier = ID0x7fadb0841000;
lineCapEnd = 2;
lineCapStart = "1";
strokeHeight = 60;
strokeWidth = 65;
};
closed = 0;
nodes = (
(557,724,l),
(134,724,l),
(120,-2,l)
);
}
);
width = 674;
},
{
hints = (
{
horizontal = 1;
settings = {
deltaV = {
"{100, 100, 0, 0, 0, 0}" = {
"62" = 0;
};
};
};
type = TTDelta;
},
{
horizontal = 1;
settings = {
deltaV = {
"{100, 100, 0, 0, 0, 0}" = {
"62" = 0;
};
};
};
type = TTDelta;
},
{
horizontal = 1;
settings = {
deltaV = {
"{100, 100, 0, 0, 0, 0}" = {
"62" = 0;
};
};
};
type = TTDelta;
},
{
horizontal = 1;
settings = {
deltaV = {
"{100, 100, 0, 0, 0, 0}" = {
"62" = 0;
};
};
};
type = TTDelta;
},
{
horizontal = 1;
settings = {
deltaV = {
"{100, 100, 0, 0, 0, 0}" = {
"62" = 0;
};
};
};
type = TTDelta;
},
{
horizontal = 1;
settings = {
deltaV = {
"{100, 100, 0, 0, 0, 0}" = {
"62" = 0;
};
};
};
type = TTDelta;
},
{
horizontal = 1;
settings = {
deltaV = {
"{100, 100, 0, 0, 0, 0}" = {
"62" = 0;
};
};
};
type = TTDelta;
},
{
horizontal = 1;
settings = {
deltaV = {
"{100, 100, 0, 0, 0, 0}" = {
"62" = 0;
};
};
};
type = TTDelta;
},
{
horizontal = 1;
settings = {
deltaV = {
"{100, 100, 0, 0, 0, 0}" = {
"62" = 0;
};
};
};
type = TTDelta;
},
{
horizontal = 1;
settings = {
deltaV = {
"{100, 100, 0, 0, 0, 0}" = {
"62" = 0;
};
};
};
type = TTDelta;
},
{
horizontal = 1;
settings = {
deltaV = {
"{100, 100, 0, 0, 0, 0}" = {
"62" = 0;
};
};
};
type = TTDelta;
},
{
horizontal = 1;
settings = {
deltaV = {
"{100, 100, 0, 0, 0, 0}" = {
"62" = 0;
};
};
};
type = TTDelta;
},
{
horizontal = 1;
settings = {
deltaV = {
"{100, 100, 0, 0, 0, 0}" = {
"62" = 0;
};
};
};
type = TTDelta;
}
);
layerId = m002;
shapes = (
{
attr = {
identifier = ID0x7fadb0841000;
lineCapEnd = "1";
lineCapStart = "1";
strokeHeight = 60;
strokeWidth = 65;
};
closed = 0;
nodes = (
(297,48,l),
(375,1,o),
(589,4,o),
(589,186,cs),
(589,257,o),
(522,294,o),
(453,331,cs),
(383,370,o),
(311,409,o),
(311,487,cs),
(311,585,o),
(403,634,o),
(516,695,cs),
(533,704,o),
(549,712,o),
(566,722,c)
);
},
{
attr = {
identifier = ID0x7fadb0841000;
lineCapEnd = 2;
lineCapStart = "1";
strokeHeight = 60;
strokeWidth = 65;
};
closed = 0;
nodes = (
(567,724,l),
(134,724,l),
(120,-2,l)
);
},
{
alignment = -1;
ref = _GuideLine;
scale = (1.37,1);
}
);
width = 684;
},
{
hints = (
{
horizontal = 1;
settings = {
deltaV = {
"{100, 100, 0, 0, 0, 0}" = {
"62" = 0;
};
};
};
type = TTDelta;
},
{
horizontal = 1;
settings = {
deltaV = {
"{100, 100, 0, 0, 0, 0}" = {
"62" = 0;
};
};
};
type = TTDelta;
},
{
horizontal = 1;
settings = {
deltaV = {
"{100, 100, 0, 0, 0, 0}" = {
"62" = 0;
};
};
};
type = TTDelta;
},
{
horizontal = 1;
settings = {
deltaV = {
"{100, 100, 0, 0, 0, 0}" = {
"62" = 0;
};
};
};
type = TTDelta;
},
{
horizontal = 1;
settings = {
deltaV = {
"{100, 100, 0, 0, 0, 0}" = {
"62" = 0;
};
};
};
type = TTDelta;
},
{
horizontal = 1;
settings = {
deltaV = {
"{100, 100, 0, 0, 0, 0}" = {
"62" = 0;
};
};
};
type = TTDelta;
},
{
horizontal = 1;
settings = {
deltaV = {
"{100, 100, 0, 0, 0, 0}" = {
"62" = 0;
};
};
};
type = TTDelta;
},
{
horizontal = 1;
settings = {
deltaV = {
"{100, 100, 0, 0, 0, 0}" = {
"62" = 0;
};
};
};
type = TTDelta;
},
{
horizontal = 1;
settings = {
deltaV = {
"{100, 100, 0, 0, 0, 0}" = {
"62" = 0;
};
};
};
type = TTDelta;
},
{
horizontal = 1;
settings = {
deltaV = {
"{100, 100, 0, 0, 0, 0}" = {
"62" = 0;
};
};
};
type = TTDelta;
},
{
horizontal = 1;
settings = {
deltaV = {
"{100, 100, 0, 0, 0, 0}" = {
"62" = 0;
};
};
};
type = TTDelta;
},
{
horizontal = 1;
settings = {
deltaV = {
"{100, 100, 0, 0, 0, 0}" = {
"62" = 0;
};
};
};
type = TTDelta;
},
{
horizontal = 1;
settings = {
deltaV = {
"{100, 100, 0, 0, 0, 0}" = {
"62" = 0;
};
};
};
type = TTDelta;
}
);
layerId = "F3447581-435E-44E2-ABAC-414C89955411";
shapes = (
{
attr = {
identifier = ID0x7fadb0841000;
lineCapEnd = "1";
lineCapStart = "1";
strokeHeight = 60;
strokeWidth = 65;
};
closed = 0;
nodes = (
(287,48,l),
(365,1,o),
(579,4,o),
(579,186,cs),
(579,257,o),
(512,294,o),
(443,331,cs),
(373,370,o),
(301,409,o),
(301,487,cs),
(301,585,o),
(393,634,o),
(506,695,cs),
(523,704,o),
(539,712,o),
(556,722,c)
);
},
{
attr = {
identifier = ID0x7fadb0841000;
lineCapEnd = 2;
lineCapStart = "1";
strokeHeight = 60;
strokeWidth = 65;
};
closed = 0;
nodes = (
(557,724,l),
(134,724,l),
(120,-2,l)
);
}
);
width = 674;
},
{
hints = (
{
horizontal = 1;
settings = {
deltaV = {
"{100, 100, 0, 0, 0, 0}" = {
"62" = 0;
};
};
};
type = TTDelta;
},
{
horizontal = 1;
settings = {
deltaV = {
"{100, 100, 0, 0, 0, 0}" = {
"62" = 0;
};
};
};
type = TTDelta;
},
{
horizontal = 1;
settings = {
deltaV = {
"{100, 100, 0, 0, 0, 0}" = {
"62" = 0;
};
};
};
type = TTDelta;
},
{
horizontal = 1;
settings = {
deltaV = {
"{100, 100, 0, 0, 0, 0}" = {
"62" = 0;
};
};
};
type = TTDelta;
},
{
horizontal = 1;
settings = {
deltaV = {
"{100, 100, 0, 0, 0, 0}" = {
"62" = 0;
};
};
};
type = TTDelta;
},
{
horizontal = 1;
settings = {
deltaV = {
"{100, 100, 0, 0, 0, 0}" = {
"62" = 0;
};
};
};
type = TTDelta;
},
{
horizontal = 1;
settings = {
deltaV = {
"{100, 100, 0, 0, 0, 0}" = {
"62" = 0;
};
};
};
type = TTDelta;
},
{
horizontal = 1;
settings = {
deltaV = {
"{100, 100, 0, 0, 0, 0}" = {
"62" = 0;
};
};
};
type = TTDelta;
},
{
horizontal = 1;
settings = {
deltaV = {
"{100, 100, 0, 0, 0, 0}" = {
"62" = 0;
};
};
};
type = TTDelta;
},
{
horizontal = 1;
settings = {
deltaV = {
"{100, 100, 0, 0, 0, 0}" = {
"62" = 0;
};
};
};
type = TTDelta;
},
{
horizontal = 1;
settings = {
deltaV = {
"{100, 100, 0, 0, 0, 0}" = {
"62" = 0;
};
};
};
type = TTDelta;
},
{
horizontal = 1;
settings = {
deltaV = {
"{100, 100, 0, 0, 0, 0}" = {
"62" = 0;
};
};
};
type = TTDelta;
},
{
horizontal = 1;
settings = {
deltaV = {
"{100, 100, 0, 0, 0, 0}" = {
"62" = 0;
};
};
};
type = TTDelta;
}
);
layerId = m004;
shapes = (
{
alignment = -1;
ref = _GuideLine;
scale = (1.37,1);
}
);
width = 684;
},
{
hints = (
{
horizontal = 1;
settings = {
deltaV = {
"{100, 100, 0, 0, 0, 0}" = {
"62" = 0;
};
};
};
type = TTDelta;
},
{
horizontal = 1;
settings = {
deltaV = {
"{100, 100, 0, 0, 0, 0}" = {
"62" = 0;
};
};
};
type = TTDelta;
},
{
horizontal = 1;
settings = {
deltaV = {
"{100, 100, 0, 0, 0, 0}" = {
"62" = 0;
};
};
};
type = TTDelta;
},
{
horizontal = 1;
settings = {
deltaV = {
"{100, 100, 0, 0, 0, 0}" = {
"62" = 0;
};
};
};
type = TTDelta;
},
{
horizontal = 1;
settings = {
deltaV = {
"{100, 100, 0, 0, 0, 0}" = {
"62" = 0;
};
};
};
type = TTDelta;
},
{
horizontal = 1;
settings = {
deltaV = {
"{100, 100, 0, 0, 0, 0}" = {
"62" = 0;
};
};
};
type = TTDelta;
},
{
horizontal = 1;
settings = {
deltaV = {
"{100, 100, 0, 0, 0, 0}" = {
"62" = 0;
};
};
};
type = TTDelta;
},
{
horizontal = 1;
settings = {
deltaV = {
"{100, 100, 0, 0, 0, 0}" = {
"62" = 0;
};
};
};
type = TTDelta;
},
{
horizontal = 1;
settings = {
deltaV = {
"{100, 100, 0, 0, 0, 0}" = {
"62" = 0;
};
};
};
type = TTDelta;
},
{
horizontal = 1;
settings = {
deltaV = {
"{100, 100, 0, 0, 0, 0}" = {
"62" = 0;
};
};
};
type = TTDelta;
},
{
horizontal = 1;
settings = {
deltaV = {
"{100, 100, 0, 0, 0, 0}" = {
"62" = 0;
};
};
};
type = TTDelta;
},
{
horizontal = 1;
settings = {
deltaV = {
"{100, 100, 0, 0, 0, 0}" = {
"62" = 0;
};
};
};
type = TTDelta;
},
{
horizontal = 1;
settings = {
deltaV = {
"{100, 100, 0, 0, 0, 0}" = {
"62" = 0;
};
};
};
type = TTDelta;
}
);
layerId = m005;
shapes = (
{
attr = {
identifier = ID0x7fadb0841000;
lineCapEnd = "1";
lineCapStart = "1";
strokeHeight = 60;
strokeWidth = 65;
};
closed = 0;
nodes = (
(297,48,l),
(375,1,o),
(589,4,o),
(589,186,cs),
(589,257,o),
(522,294,o),
(453,331,cs),
(383,370,o),
(311,409,o),
(311,487,cs),
(311,585,o),
(403,634,o),
(516,695,cs),
(533,704,o),
(549,712,o),
(566,722,c)
);
},
{
attr = {
identifier = ID0x7fadb0841000;
lineCapEnd = 2;
lineCapStart = "1";
strokeHeight = 60;
strokeWidth = 65;
};
closed = 0;
nodes = (
(567,724,l),
(134,724,l),
(120,-2,l)
);
},
{
alignment = -1;
ref = _GuideLine;
scale = (1.37,1);
}
);
width = 684;
}
);
unicode = 7838;
},
{
color = 9;
glyphname = T;
kernLeft = T;
kernRight = T;
lastChange = "2025-01-10 12:47:16 +0000";
layers = (
{
background = {
shapes = (
{
closed = 0;
nodes = (
(110,634,l),
(90,692,o),
(138,709,o),
(179,709,cs),
(291,709,o),
(425,690,o),
(519,690,cs),
(560,690,o),
(608,707,o),
(588,765,c)
);
},
{
closed = 0;
nodes = (
(384,700,l),
(359,0,l)
);
}
);
};
layerId = "6F9C6BB4-2DCF-443B-A55D-9CE049090094";
shapes = (
{
attr = {
lineCapEnd = 2;
lineCapStart = 2;
strokeHeight = 60;
strokeWidth = 65;
};
closed = 0;
nodes = (
(324,745,l),
(311,-2,l)
);
},
{
attr = {
lineCapEnd = 2;
lineCapStart = 2;
strokeHeight = 60;
strokeWidth = 65;
};
closed = 0;
nodes = (
(33,745,l),
(595,744,l)
);
}
);
width = 628;
},
{
background = {
shapes = (
{
closed = 0;
nodes = (
(110,634,l),
(90,692,o),
(138,709,o),
(179,709,cs),
(291,709,o),
(425,690,o),
(519,690,cs),
(560,690,o),
(608,707,o),
(588,765,c)
);
},
{
closed = 0;
nodes = (
(384,700,l),
(359,0,l)
);
}
);
};
layerId = m002;
shapes = (
{
attr = {
lineCapEnd = 2;
lineCapStart = 2;
strokeHeight = 60;
strokeWidth = 65;
};
closed = 0;
nodes = (
(324,745,l),
(311,-2,l)
);
},
{
attr = {
lineCapEnd = 2;
lineCapStart = 2;
strokeHeight = 60;
strokeWidth = 65;
};
closed = 0;
nodes = (
(33,745,l),
(595,744,l)
);
},
{
alignment = -1;
ref = _GuideLine;
scale = (1.26,1);
}
);
width = 628;
},
{
background = {
shapes = (
{
closed = 0;
nodes = (
(110,634,l),
(90,692,o),
(138,709,o),
(179,709,cs),
(291,709,o),
(425,690,o),
(519,690,cs),
(560,690,o),
(608,707,o),
(588,765,c)
);
},
{
closed = 0;
nodes = (
(384,700,l),
(359,0,l)
);
}
);
};
layerId = "F3447581-435E-44E2-ABAC-414C89955411";
shapes = (
{
attr = {
lineCapEnd = 2;
lineCapStart = 2;
strokeHeight = 60;
strokeWidth = 65;
};
closed = 0;
nodes = (
(324,745,l),
(311,-2,l)
);
},
{
attr = {
lineCapEnd = 2;
lineCapStart = 2;
strokeHeight = 60;
strokeWidth = 65;
};
closed = 0;
nodes = (
(33,745,l),
(595,744,l)
);
}
);
width = 628;
},
{
background = {
shapes = (
{
closed = 0;
nodes = (
(110,634,l),
(90,692,o),
(138,709,o),
(179,709,cs),
(291,709,o),
(425,690,o),
(519,690,cs),
(560,690,o),
(608,707,o),
(588,765,c)
);
},
{
closed = 0;
nodes = (
(384,700,l),
(359,0,l)
);
}
);
};
layerId = m004;
shapes = (
{
alignment = -1;
ref = _GuideLine;
scale = (1.26,1);
}
);
width = 628;
},
{
background = {
shapes = (
{
closed = 0;
nodes = (
(110,634,l),
(90,692,o),
(138,709,o),
(179,709,cs),
(291,709,o),
(425,690,o),
(519,690,cs),
(560,690,o),
(608,707,o),
(588,765,c)
);
},
{
closed = 0;
nodes = (
(384,700,l),
(359,0,l)
);
}
);
};
layerId = m005;
shapes = (
{
attr = {
lineCapEnd = 2;
lineCapStart = 2;
strokeHeight = 60;
strokeWidth = 65;
};
closed = 0;
nodes = (
(324,745,l),
(311,-2,l)
);
},
{
attr = {
lineCapEnd = 2;
lineCapStart = 2;
strokeHeight = 60;
strokeWidth = 65;
};
closed = 0;
nodes = (
(33,745,l),
(595,744,l)
);
},
{
alignment = -1;
ref = _GuideLine;
scale = (1.26,1);
}
);
width = 628;
}
);
unicode = 84;
},
{
color = 9;
glyphname = U;
kernLeft = U;
kernRight = U;
lastChange = "2024-12-06 09:22:03 +0000";
layers = (
{
anchors = (
{
name = bottom;
pos = (367,0);
},
{
name = ogonek;
pos = (492,65);
},
{
name = top;
pos = (367,700);
},
{
name = topright;
pos = (685,720);
}
);
layerId = "6F9C6BB4-2DCF-443B-A55D-9CE049090094";
shapes = (
{
attr = {
lineCapEnd = 2;
lineCapStart = 2;
strokeHeight = 60;
strokeWidth = 65;
};
closed = 0;
nodes = (
(156,777,l),
(146,261,ls),
(143,121,o),
(219,26,o),
(351,26,cs),
(480,26,o),
(577,118,o),
(580,261,cs),
(592,777,l)
);
}
);
width = 735;
},
{
anchors = (
{
name = bottom;
pos = (367,0);
},
{
name = ogonek;
pos = (492,65);
},
{
name = top;
pos = (367,700);
},
{
name = topright;
pos = (685,720);
}
);
layerId = m002;
shapes = (
{
attr = {
lineCapEnd = 2;
lineCapStart = 2;
strokeHeight = 60;
strokeWidth = 65;
};
closed = 0;
nodes = (
(156,777,l),
(146,261,ls),
(143,121,o),
(219,26,o),
(351,26,cs),
(480,26,o),
(577,118,o),
(580,261,cs),
(592,777,l)
);
},
{
alignment = -1;
ref = _GuideLine;
scale = (1.47,1);
}
);
width = 735;
},
{
anchors = (
{
name = bottom;
pos = (367,0);
},
{
name = ogonek;
pos = (637,10);
},
{
name = top;
pos = (367,745);
},
{
name = topright;
pos = (685,720);
}
);
layerId = "F3447581-435E-44E2-ABAC-414C89955411";
shapes = (
{
attr = {
lineCapEnd = 2;
lineCapStart = 2;
strokeHeight = 60;
strokeWidth = 65;
};
closed = 0;
nodes = (
(156,777,l),
(146,261,ls),
(143,121,o),
(219,26,o),
(351,26,cs),
(480,26,o),
(577,118,o),
(580,261,cs),
(592,777,l)
);
}
);
width = 735;
},
{
anchors = (
{
name = bottom;
pos = (367,0);
},
{
name = ogonek;
pos = (492,65);
},
{
name = top;
pos = (367,700);
},
{
name = topright;
pos = (685,720);
}
);
layerId = m004;
shapes = (
{
alignment = -1;
ref = _GuideLine;
scale = (1.47,1);
}
);
width = 735;
},
{
anchors = (
{
name = bottom;
pos = (367,0);
},
{
name = ogonek;
pos = (492,65);
},
{
name = top;
pos = (367,700);
},
{
name = topright;
pos = (685,720);
}
);
layerId = m005;
shapes = (
{
attr = {
lineCapEnd = 2;
lineCapStart = 2;
strokeHeight = 60;
strokeWidth = 65;
};
closed = 0;
nodes = (
(156,777,l),
(146,261,ls),
(143,121,o),
(219,26,o),
(351,26,cs),
(480,26,o),
(577,118,o),
(580,261,cs),
(592,777,l)
);
},
{
alignment = -1;
ref = _GuideLine;
scale = (1.47,1);
}
);
width = 735;
}
);
unicode = 85;
},
{
color = 9;
glyphname = V;
kernLeft = V;
kernRight = V;
lastChange = "2024-12-06 13:57:43 +0000";
layers = (
{
background = {
shapes = (
{
pos = (36,0);
ref = U;
}
);
};
layerId = "6F9C6BB4-2DCF-443B-A55D-9CE049090094";
shapes = (
{
attr = {
lineCapEnd = 1;
lineCapStart = 2;
strokeHeight = 60;
strokeWidth = 65;
};
closed = 0;
nodes = (
(111,775,l),
(350,28,l)
);
},
{
attr = {
lineCapEnd = 2;
lineCapStart = 1;
strokeHeight = 60;
strokeWidth = 65;
};
closed = 0;
nodes = (
(351,28,l),
(612,775,ls)
);
}
);
width = 721;
},
{
layerId = m002;
shapes = (
{
attr = {
lineCapEnd = 1;
lineCapStart = 2;
strokeHeight = 60;
strokeWidth = 65;
};
closed = 0;
nodes = (
(111,775,l),
(350,28,l)
);
},
{
attr = {
lineCapEnd = 2;
lineCapStart = 1;
strokeHeight = 60;
strokeWidth = 65;
};
closed = 0;
nodes = (
(351,28,l),
(612,775,ls)
);
},
{
alignment = -1;
ref = _GuideLine;
scale = (1.45,1);
}
);
width = 721;
},
{
background = {
shapes = (
{
pos = (36,0);
ref = U;
}
);
};
layerId = "F3447581-435E-44E2-ABAC-414C89955411";
shapes = (
{
attr = {
lineCapEnd = 1;
lineCapStart = 2;
strokeHeight = 60;
strokeWidth = 65;
};
closed = 0;
nodes = (
(111,775,l),
(350,28,l)
);
},
{
attr = {
lineCapEnd = 2;
lineCapStart = 1;
strokeHeight = 60;
strokeWidth = 65;
};
closed = 0;
nodes = (
(351,28,l),
(612,775,ls)
);
}
);
width = 721;
},
{
layerId = m004;
shapes = (
{
alignment = -1;
ref = _GuideLine;
scale = (1.45,1);
}
);
width = 721;
},
{
layerId = m005;
shapes = (
{
attr = {
lineCapEnd = 1;
lineCapStart = 2;
strokeHeight = 60;
strokeWidth = 65;
};
closed = 0;
nodes = (
(111,775,l),
(350,28,l)
);
},
{
attr = {
lineCapEnd = 2;
lineCapStart = 1;
strokeHeight = 60;
strokeWidth = 65;
};
closed = 0;
nodes = (
(351,28,l),
(612,775,ls)
);
},
{
alignment = -1;
ref = _GuideLine;
scale = (1.45,1);
}
);
width = 721;
}
);
unicode = 86;
},
{
color = 9;
glyphname = W;
kernLeft = V;
kernRight = V;
lastChange = "2024-12-06 09:22:03 +0000";
layers = (
{
anchors = (
{
name = bottom;
pos = (597,0);
},
{
name = top;
pos = (597,700);
}
);
background = {
shapes = (
{
attr = {
lineCapEnd = "1";
lineCapStart = "1";
};
closed = 0;
nodes = (
(132,700,l),
(362,0,l),
(132,700,l)
);
}
);
};
layerId = "6F9C6BB4-2DCF-443B-A55D-9CE049090094";
shapes = (
{
attr = {
lineCapEnd = "1";
lineCapStart = 2;
strokeHeight = 60;
strokeWidth = 65;
};
closed = 0;
nodes = (
(1083,774,ls),
(843,28,l)
);
},
{
attr = {
lineCapEnd = 2;
lineCapStart = "1";
strokeHeight = 60;
strokeWidth = 65;
};
closed = 0;
nodes = (
(332,28,l),
(112,776,l)
);
},
{
attr = {
lineCapEnd = "1";
lineCapStart = "1";
strokeHeight = 60;
strokeWidth = 65;
};
closed = 0;
nodes = (
(842,28,l),
(598,747,l)
);
},
{
attr = {
lineCapEnd = "1";
lineCapStart = "1";
strokeHeight = 60;
strokeWidth = 65;
};
closed = 0;
nodes = (
(597,747,l),
(333,28,l)
);
}
);
width = 1194;
},
{
anchors = (
{
name = bottom;
pos = (597,0);
},
{
name = top;
pos = (597,700);
}
);
background = {
shapes = (
{
attr = {
lineCapEnd = "1";
lineCapStart = "1";
};
closed = 0;
nodes = (
(132,700,l),
(362,0,l),
(132,700,l)
);
}
);
};
layerId = m002;
shapes = (
{
attr = {
lineCapEnd = "1";
lineCapStart = 2;
strokeHeight = 60;
strokeWidth = 65;
};
closed = 0;
nodes = (
(1083,774,ls),
(843,28,l)
);
},
{
attr = {
lineCapEnd = 2;
lineCapStart = "1";
strokeHeight = 60;
strokeWidth = 65;
};
closed = 0;
nodes = (
(332,28,l),
(112,776,l)
);
},
{
attr = {
lineCapEnd = "1";
lineCapStart = "1";
strokeHeight = 60;
strokeWidth = 65;
};
closed = 0;
nodes = (
(842,28,l),
(598,747,l)
);
},
{
attr = {
lineCapEnd = "1";
lineCapStart = "1";
strokeHeight = 60;
strokeWidth = 65;
};
closed = 0;
nodes = (
(597,747,l),
(333,28,l)
);
},
{
alignment = -1;
ref = _GuideLine;
scale = (2.4,1);
}
);
width = 1194;
},
{
anchors = (
{
name = bottom;
pos = (597,0);
},
{
name = top;
pos = (597,745);
}
);
background = {
shapes = (
{
attr = {
lineCapEnd = "1";
lineCapStart = "1";
};
closed = 0;
nodes = (
(132,700,l),
(362,0,l),
(132,700,l)
);
}
);
};
layerId = "F3447581-435E-44E2-ABAC-414C89955411";
shapes = (
{
attr = {
lineCapEnd = "1";
lineCapStart = 2;
strokeHeight = 60;
strokeWidth = 65;
};
closed = 0;
nodes = (
(1083,774,ls),
(843,28,l)
);
},
{
attr = {
lineCapEnd = 2;
lineCapStart = "1";
strokeHeight = 60;
strokeWidth = 65;
};
closed = 0;
nodes = (
(332,28,l),
(112,776,l)
);
},
{
attr = {
lineCapEnd = "1";
lineCapStart = "1";
strokeHeight = 60;
strokeWidth = 65;
};
closed = 0;
nodes = (
(842,28,l),
(598,747,l)
);
},
{
attr = {
lineCapEnd = "1";
lineCapStart = "1";
strokeHeight = 60;
strokeWidth = 65;
};
closed = 0;
nodes = (
(597,747,l),
(333,28,l)
);
}
);
width = 1194;
},
{
anchors = (
{
name = bottom;
pos = (597,0);
},
{
name = top;
pos = (597,700);
}
);
background = {
shapes = (
{
attr = {
lineCapEnd = "1";
lineCapStart = "1";
};
closed = 0;
nodes = (
(132,700,l),
(362,0,l),
(132,700,l)
);
}
);
};
layerId = m004;
shapes = (
{
alignment = -1;
ref = _GuideLine;
scale = (2.4,1);
}
);
width = 1194;
},
{
anchors = (
{
name = bottom;
pos = (597,0);
},
{
name = top;
pos = (597,700);
}
);
background = {
shapes = (
{
attr = {
lineCapEnd = "1";
lineCapStart = "1";
};
closed = 0;
nodes = (
(132,700,l),
(362,0,l),
(132,700,l)
);
}
);
};
layerId = m005;
shapes = (
{
attr = {
lineCapEnd = "1";
lineCapStart = 2;
strokeHeight = 60;
strokeWidth = 65;
};
closed = 0;
nodes = (
(1083,774,ls),
(843,28,l)
);
},
{
attr = {
lineCapEnd = 2;
lineCapStart = "1";
strokeHeight = 60;
strokeWidth = 65;
};
closed = 0;
nodes = (
(332,28,l),
(112,776,l)
);
},
{
attr = {
lineCapEnd = "1";
lineCapStart = "1";
strokeHeight = 60;
strokeWidth = 65;
};
closed = 0;
nodes = (
(842,28,l),
(598,747,l)
);
},
{
attr = {
lineCapEnd = "1";
lineCapStart = "1";
strokeHeight = 60;
strokeWidth = 65;
};
closed = 0;
nodes = (
(597,747,l),
(333,28,l)
);
},
{
alignment = -1;
ref = _GuideLine;
scale = (2.4,1);
}
);
width = 1194;
}
);
unicode = 87;
},
{
color = 9;
glyphname = X;
kernLeft = X;
kernRight = X;
lastChange = "2024-12-06 09:22:03 +0000";
layers = (
{
layerId = "6F9C6BB4-2DCF-443B-A55D-9CE049090094";
shapes = (
{
attr = {
lineCapEnd = 1;
lineCapStart = 1;
strokeHeight = 60;
strokeWidth = 65;
};
closed = 0;
nodes = (
(120,28,l),
(621,747,l)
);
},
{
attr = {
lineCapEnd = 1;
lineCapStart = 1;
strokeHeight = 60;
strokeWidth = 65;
};
closed = 0;
nodes = (
(605,28,l),
(141,747,l)
);
}
);
width = 740;
},
{
layerId = m002;
shapes = (
{
attr = {
lineCapEnd = 1;
lineCapStart = 1;
strokeHeight = 60;
strokeWidth = 65;
};
closed = 0;
nodes = (
(120,28,l),
(621,747,l)
);
},
{
attr = {
lineCapEnd = 1;
lineCapStart = 1;
strokeHeight = 60;
strokeWidth = 65;
};
closed = 0;
nodes = (
(605,28,l),
(141,747,l)
);
},
{
alignment = -1;
ref = _GuideLine;
scale = (1.48,1);
}
);
width = 740;
},
{
layerId = "F3447581-435E-44E2-ABAC-414C89955411";
shapes = (
{
attr = {
lineCapEnd = 1;
lineCapStart = 1;
strokeHeight = 60;
strokeWidth = 65;
};
closed = 0;
nodes = (
(120,28,l),
(621,747,l)
);
},
{
attr = {
lineCapEnd = 1;
lineCapStart = 1;
strokeHeight = 60;
strokeWidth = 65;
};
closed = 0;
nodes = (
(605,28,l),
(141,747,l)
);
}
);
width = 740;
},
{
layerId = m004;
shapes = (
{
alignment = -1;
ref = _GuideLine;
scale = (1.48,1);
}
);
width = 740;
},
{
layerId = m005;
shapes = (
{
attr = {
lineCapEnd = 1;
lineCapStart = 1;
strokeHeight = 60;
strokeWidth = 65;
};
closed = 0;
nodes = (
(120,28,l),
(621,747,l)
);
},
{
attr = {
lineCapEnd = 1;
lineCapStart = 1;
strokeHeight = 60;
strokeWidth = 65;
};
closed = 0;
nodes = (
(605,28,l),
(141,747,l)
);
},
{
alignment = -1;
ref = _GuideLine;
scale = (1.48,1);
}
);
width = 740;
}
);
unicode = 88;
},
{
color = 9;
glyphname = Y;
kernLeft = Y;
kernRight = Y;
lastChange = "2025-01-10 12:50:37 +0000";
layers = (
{
anchors = (
{
name = bottom;
pos = (361,0);
},
{
name = top;
pos = (361,700);
},
{
name = topleft;
pos = (108,720);
}
);
layerId = "6F9C6BB4-2DCF-443B-A55D-9CE049090094";
shapes = (
{
attr = {
lineCapEnd = 1;
lineCapStart = 1;
strokeHeight = 60;
strokeWidth = 65;
};
closed = 0;
nodes = (
(603,749,l),
(343,321,l)
);
},
{
attr = {
lineCapEnd = 2;
lineCapStart = 1;
strokeHeight = 60;
strokeWidth = 65;
};
closed = 0;
nodes = (
(119,749,l),
(343,321,l),
(338,-4,l)
);
}
);
width = 722;
},
{
anchors = (
{
name = bottom;
pos = (361,0);
},
{
name = top;
pos = (361,700);
},
{
name = topleft;
pos = (108,720);
}
);
layerId = m002;
shapes = (
{
attr = {
lineCapEnd = 1;
lineCapStart = 1;
strokeHeight = 60;
strokeWidth = 65;
};
closed = 0;
nodes = (
(603,749,l),
(343,321,l)
);
},
{
attr = {
lineCapEnd = 2;
lineCapStart = 1;
strokeHeight = 60;
strokeWidth = 65;
};
closed = 0;
nodes = (
(119,749,l),
(343,321,l),
(338,-4,l)
);
},
{
alignment = -1;
ref = _GuideLine;
scale = (1.45,1);
}
);
width = 722;
},
{
anchors = (
{
name = bottom;
pos = (361,0);
},
{
name = top;
pos = (361,745);
},
{
name = topleft;
pos = (108,720);
}
);
layerId = "F3447581-435E-44E2-ABAC-414C89955411";
shapes = (
{
attr = {
lineCapEnd = 1;
lineCapStart = 1;
strokeHeight = 60;
strokeWidth = 65;
};
closed = 0;
nodes = (
(603,749,l),
(343,321,l)
);
},
{
attr = {
lineCapEnd = 2;
lineCapStart = 1;
strokeHeight = 60;
strokeWidth = 65;
};
closed = 0;
nodes = (
(119,749,l),
(343,321,l),
(338,-4,l)
);
}
);
width = 722;
},
{
anchors = (
{
name = bottom;
pos = (361,0);
},
{
name = top;
pos = (361,700);
},
{
name = topleft;
pos = (108,720);
}
);
layerId = m004;
shapes = (
{
alignment = -1;
ref = _GuideLine;
scale = (1.45,1);
}
);
width = 722;
},
{
anchors = (
{
name = bottom;
pos = (361,0);
},
{
name = top;
pos = (361,700);
},
{
name = topleft;
pos = (108,720);
}
);
layerId = m005;
shapes = (
{
attr = {
lineCapEnd = 1;
lineCapStart = 1;
strokeHeight = 60;
strokeWidth = 65;
};
closed = 0;
nodes = (
(603,749,l),
(343,321,l)
);
},
{
attr = {
lineCapEnd = 2;
lineCapStart = 1;
strokeHeight = 60;
strokeWidth = 65;
};
closed = 0;
nodes = (
(119,749,l),
(343,321,l),
(338,-4,l)
);
},
{
alignment = -1;
ref = _GuideLine;
scale = (1.45,1);
}
);
width = 722;
}
);
unicode = 89;
},
{
color = 9;
glyphname = Z;
kernLeft = Z;
kernRight = Z;
lastChange = "2024-12-06 09:22:03 +0000";
layers = (
{
background = {
shapes = (
{
closed = 0;
nodes = (
(708,230,l),
(646,83,o),
(553,-4,o),
(517,-4,cs),
(471,-4,o),
(406,6,o),
(332,6,cs),
(259,6,o),
(189,6,o),
(110,0,c)
);
},
{
closed = 0;
nodes = (
(678,740,l),
(80,-40,l)
);
},
{
closed = 0;
nodes = (
(177,700,l),
(280,686,o),
(482,688,o),
(648,700,c)
);
}
);
};
layerId = "6F9C6BB4-2DCF-443B-A55D-9CE049090094";
shapes = (
{
attr = {
lineCapEnd = 1;
lineCapStart = 1;
strokeHeight = 60;
strokeWidth = 65;
};
closed = 0;
nodes = (
(567,739,l),
(89,35,l)
);
},
{
attr = {
lineCapEnd = 1;
lineCapStart = 1;
strokeHeight = 60;
strokeWidth = 65;
};
closed = 0;
nodes = (
(99,744,l),
(567,744,l)
);
},
{
attr = {
lineCapEnd = 1;
lineCapStart = 1;
strokeHeight = 60;
strokeWidth = 65;
};
closed = 0;
nodes = (
(89,31,l),
(557,31,l)
);
}
);
width = 656;
},
{
background = {
shapes = (
{
alignment = -1;
ref = _GuideLine;
scale = (1.32,1);
}
);
};
layerId = m002;
shapes = (
{
attr = {
lineCapEnd = 1;
lineCapStart = 1;
strokeHeight = 60;
strokeWidth = 65;
};
closed = 0;
nodes = (
(567,739,l),
(89,35,l)
);
},
{
attr = {
lineCapEnd = 1;
lineCapStart = 1;
strokeHeight = 60;
strokeWidth = 65;
};
closed = 0;
nodes = (
(99,744,l),
(567,744,l)
);
},
{
attr = {
lineCapEnd = 1;
lineCapStart = 1;
strokeHeight = 60;
strokeWidth = 65;
};
closed = 0;
nodes = (
(89,31,l),
(557,31,l)
);
},
{
alignment = -1;
ref = _GuideLine;
scale = (1.32,1);
}
);
width = 656;
},
{
background = {
shapes = (
{
closed = 0;
nodes = (
(708,230,l),
(646,83,o),
(553,-4,o),
(517,-4,cs),
(471,-4,o),
(406,6,o),
(332,6,cs),
(259,6,o),
(189,6,o),
(110,0,c)
);
},
{
closed = 0;
nodes = (
(678,740,l),
(80,-40,l)
);
},
{
closed = 0;
nodes = (
(177,700,l),
(280,686,o),
(482,688,o),
(648,700,c)
);
}
);
};
layerId = "F3447581-435E-44E2-ABAC-414C89955411";
shapes = (
{
attr = {
lineCapEnd = 1;
lineCapStart = 1;
strokeHeight = 60;
strokeWidth = 65;
};
closed = 0;
nodes = (
(567,739,l),
(89,35,l)
);
},
{
attr = {
lineCapEnd = 1;
lineCapStart = 1;
strokeHeight = 60;
strokeWidth = 65;
};
closed = 0;
nodes = (
(99,744,l),
(567,744,l)
);
},
{
attr = {
lineCapEnd = 1;
lineCapStart = 1;
strokeHeight = 60;
strokeWidth = 65;
};
closed = 0;
nodes = (
(89,31,l),
(557,31,l)
);
}
);
width = 656;
},
{
background = {
shapes = (
{
alignment = -1;
ref = _GuideLine;
scale = (1.32,1);
}
);
};
layerId = m004;
shapes = (
{
alignment = -1;
ref = _GuideLine;
scale = (1.32,1);
}
);
width = 656;
},
{
background = {
shapes = (
{
alignment = -1;
ref = _GuideLine;
scale = (1.32,1);
}
);
};
layerId = m005;
shapes = (
{
attr = {
lineCapEnd = 1;
lineCapStart = 1;
strokeHeight = 60;
strokeWidth = 65;
};
closed = 0;
nodes = (
(567,739,l),
(89,35,l)
);
},
{
attr = {
lineCapEnd = 1;
lineCapStart = 1;
strokeHeight = 60;
strokeWidth = 65;
};
closed = 0;
nodes = (
(99,744,l),
(567,744,l)
);
},
{
attr = {
lineCapEnd = 1;
lineCapStart = 1;
strokeHeight = 60;
strokeWidth = 65;
};
closed = 0;
nodes = (
(89,31,l),
(557,31,l)
);
},
{
alignment = -1;
ref = _GuideLine;
scale = (1.32,1);
}
);
width = 656;
}
);
unicode = 90;
},
{
color = 9;
glyphname = Saltillo;
lastChange = "2024-12-06 09:22:03 +0000";
layers = (
{
anchors = (
{
name = top;
pos = (146,684);
}
);
layerId = "6F9C6BB4-2DCF-443B-A55D-9CE049090094";
shapes = (
{
attr = {
identifier = ID0x7fb66282a110;
lineCapEnd = 1;
lineCapStart = 1;
strokeHeight = 60;
strokeWidth = 65;
};
closed = 0;
nodes = (
(91,321,l),
(206,479,o),
(202,628,o),
(161,697,c)
);
}
);
width = 294;
},
{
anchors = (
{
name = top;
pos = (146,684);
}
);
layerId = m002;
shapes = (
{
attr = {
identifier = ID0x7fb66282a110;
lineCapEnd = 1;
lineCapStart = 1;
strokeHeight = 60;
strokeWidth = 65;
};
closed = 0;
nodes = (
(91,321,l),
(206,479,o),
(202,628,o),
(161,697,c)
);
},
{
alignment = -1;
ref = _GuideLine;
scale = (0.59,1);
}
);
width = 294;
},
{
anchors = (
{
name = top;
pos = (146,684);
}
);
layerId = "F3447581-435E-44E2-ABAC-414C89955411";
shapes = (
{
attr = {
identifier = ID0x7fb66282a110;
lineCapEnd = 1;
lineCapStart = 1;
strokeHeight = 60;
strokeWidth = 65;
};
closed = 0;
nodes = (
(91,321,l),
(206,479,o),
(202,628,o),
(161,697,c)
);
}
);
width = 294;
},
{
anchors = (
{
name = top;
pos = (146,684);
}
);
layerId = m004;
shapes = (
{
alignment = -1;
ref = _GuideLine;
scale = (0.59,1);
}
);
width = 294;
},
{
anchors = (
{
name = top;
pos = (146,684);
}
);
layerId = m005;
shapes = (
{
attr = {
identifier = ID0x7fb66282a110;
lineCapEnd = 1;
lineCapStart = 1;
strokeHeight = 60;
strokeWidth = 65;
};
closed = 0;
nodes = (
(91,321,l),
(206,479,o),
(202,628,o),
(161,697,c)
);
},
{
alignment = -1;
ref = _GuideLine;
scale = (0.59,1);
}
);
width = 294;
}
);
unicode = 42891;
},
{
export = 0;
glyphname = A.ss01;
lastChange = "2025-12-15 09:59:24 +0000";
layers = (
{
layerId = "6F9C6BB4-2DCF-443B-A55D-9CE049090094";
shapes = (
{
closed = 1;
nodes = (
(270,283,ls),
(253,283,o),
(240,270,o),
(240,253,cs),
(240,236,o),
(253,223,o),
(270,223,cs),
(729,223,l),
(729,283,l)
);
},
{
closed = 1;
nodes = (
(719,780,o),
(708,773,o),
(703,764,cs),
(373,218,ls),
(303,102,o),
(216,57,o),
(116,57,cs),
(99,57,o),
(86,44,o),
(86,27,cs),
(86,10,o),
(99,-3,o),
(116,-3,cs),
(238,-3,o),
(349,54,o),
(429,186,cs),
(759,730,l),
(700,750,l),
(680,456,o),
(672,333,o),
(672,214,cs),
(672,97,o),
(711,-5,o),
(844,-5,cs),
(861,-5,o),
(874,8,o),
(874,25,cs),
(874,42,o),
(861,55,o),
(844,55,cs),
(761,55,o),
(737,115,o),
(737,214,cs),
(737,331,o),
(744,452,o),
(764,746,cs),
(765,763,o),
(752,780,o),
(732,780,cs)
);
}
);
width = 960;
},
{
layerId = m002;
shapes = (
{
closed = 0;
nodes = (
(639,700,l),
(613,189,o),
(592,0,o),
(649,0,cs),
(684,0,o),
(778,83,o),
(840,230,c)
);
},
{
closed = 0;
nodes = (
(213,228,l),
(619,228,l)
);
},
{
closed = 0;
nodes = (
(639,700,l),
(238,113,ls),
(182,30,o),
(139,1,o),
(70,1,c)
);
}
);
width = 835;
},
{
layerId = "F3447581-435E-44E2-ABAC-414C89955411";
shapes = (
{
closed = 0;
nodes = (
(639,700,l),
(613,189,o),
(592,0,o),
(649,0,cs),
(684,0,o),
(778,83,o),
(840,230,c)
);
},
{
closed = 0;
nodes = (
(213,228,l),
(619,228,l)
);
},
{
closed = 0;
nodes = (
(639,700,l),
(238,113,ls),
(182,30,o),
(139,1,o),
(70,1,c)
);
}
);
width = 835;
},
{
layerId = m004;
shapes = (
{
closed = 0;
nodes = (
(639,700,l),
(613,189,o),
(592,0,o),
(649,0,cs),
(684,0,o),
(778,83,o),
(840,230,c)
);
},
{
closed = 0;
nodes = (
(213,228,l),
(619,228,l)
);
},
{
closed = 0;
nodes = (
(639,700,l),
(238,113,ls),
(182,30,o),
(139,1,o),
(70,1,c)
);
}
);
width = 835;
},
{
layerId = m005;
shapes = (
{
closed = 0;
nodes = (
(639,700,l),
(613,189,o),
(592,0,o),
(649,0,cs),
(684,0,o),
(778,83,o),
(840,230,c)
);
},
{
closed = 0;
nodes = (
(213,228,l),
(619,228,l)
);
},
{
closed = 0;
nodes = (
(639,700,l),
(238,113,ls),
(182,30,o),
(139,1,o),
(70,1,c)
);
}
);
width = 835;
}
);
},
{
export = 0;
glyphname = B.ss01;
lastChange = "2025-12-15 10:03:26 +0000";
layers = (
{
background = {
shapes = (
{
closed = 0;
nodes = (
(298,429,ls),
(282,429,o),
(268,416,o),
(268,399,cs),
(268,382,o),
(282,369,o),
(298,369,cs),
(457,369,o),
(506,348,o),
(506,256,cs),
(506,105,o),
(381,61,o),
(230,61,cs),
(224,61,l),
(250,714,ls),
(251,733,o),
(236,747,o),
(218,747,cs),
(200,747,o),
(186,734,o),
(185,716,cs),
(156,1,l),
(230,1,ls),
(401,1,o),
(571,59,o),
(571,256,cs),
(571,376,o),
(499,418,o),
(364,427,c),
(333,372,l),
(461,398,o),
(550,476,o),
(550,613,cs),
(550,768,o),
(422,774,o),
(369,774,cs),
(114,774,ls),
(97,774,o),
(84,761,o),
(84,744,cs),
(84,727,o),
(97,714,o),
(114,714,cs),
(369,714,ls),
(420,714,o),
(485,711,o),
(485,613,cs),
(485,510,o),
(423,452,o),
(321,431,c)
);
}
);
};
layerId = "6F9C6BB4-2DCF-443B-A55D-9CE049090094";
shapes = (
{
closed = 1;
nodes = (
(440,441,o),
(485,515,o),
(485,613,cs),
(485,711,o),
(420,714,o),
(369,714,cs),
(114,714,ls),
(97,714,o),
(84,727,o),
(84,744,cs),
(84,761,o),
(97,774,o),
(114,774,cs),
(369,774,ls),
(422,774,o),
(550,768,o),
(550,613,cs),
(550,476,o),
(461,400,o),
(333,374,c),
(364,425,l),
(499,416,o),
(571,376,o),
(571,256,cs),
(571,59,o),
(401,1,o),
(230,1,cs),
(156,1,l),
(186,743,l),
(251,741,l),
(224,61,l),
(230,61,ls),
(381,61,o),
(506,105,o),
(506,256,cs),
(506,348,o),
(457,369,o),
(298,369,cs),
(282,369,o),
(268,382,o),
(268,399,cs),
(268,416,o),
(282,428,o),
(298,429,cs)
);
}
);
width = 660;
},
{
layerId = m002;
shapes = (
{
closed = 0;
nodes = (
(91,700,l),
(348,700,l),
(397,700,o),
(489,696,o),
(489,571,cs),
(489,416,o),
(316,360,o),
(251,360,c)
);
},
{
closed = 0;
nodes = (
(265,360,l),
(428,385,o),
(509,351,o),
(509,220,cs),
(509,51,o),
(347,0,o),
(193,0,cs),
(166,0,o),
(164,12,o),
(165,39,cs),
(191,700,l)
);
}
);
width = 588;
},
{
layerId = "F3447581-435E-44E2-ABAC-414C89955411";
shapes = (
{
closed = 0;
nodes = (
(91,700,l),
(348,700,l),
(397,700,o),
(489,696,o),
(489,571,cs),
(489,416,o),
(316,360,o),
(251,360,c)
);
},
{
closed = 0;
nodes = (
(265,360,l),
(428,385,o),
(509,351,o),
(509,220,cs),
(509,51,o),
(347,0,o),
(193,0,cs),
(166,0,o),
(164,12,o),
(165,39,cs),
(191,700,l)
);
}
);
width = 588;
},
{
layerId = m004;
shapes = (
{
closed = 0;
nodes = (
(91,700,l),
(348,700,l),
(397,700,o),
(489,696,o),
(489,571,cs),
(489,416,o),
(316,360,o),
(251,360,c)
);
},
{
closed = 0;
nodes = (
(265,360,l),
(428,385,o),
(509,351,o),
(509,220,cs),
(509,51,o),
(347,0,o),
(193,0,cs),
(166,0,o),
(164,12,o),
(165,39,cs),
(191,700,l)
);
}
);
width = 588;
},
{
layerId = m005;
shapes = (
{
closed = 0;
nodes = (
(91,700,l),
(348,700,l),
(397,700,o),
(489,696,o),
(489,571,cs),
(489,416,o),
(316,360,o),
(251,360,c)
);
},
{
closed = 0;
nodes = (
(265,360,l),
(428,385,o),
(509,351,o),
(509,220,cs),
(509,51,o),
(347,0,o),
(193,0,cs),
(166,0,o),
(164,12,o),
(165,39,cs),
(191,700,l)
);
}
);
width = 588;
}
);
},
{
export = 0;
glyphname = C.ss01;
lastChange = "2025-12-15 08:40:05 +0000";
layers = (
{
layerId = "6F9C6BB4-2DCF-443B-A55D-9CE049090094";
shapes = (
{
attr = {
lineCapEnd = 2;
lineCapStart = 2;
strokeWidth = 65;
};
closed = 0;
nodes = (
(502,735,l),
(451,750,o),
(384,756,o),
(321,756,cs),
(172,756,o),
(91,448,o),
(103,230,cs),
(111,91,o),
(172,0,o),
(261,0,cs),
(356,0,o),
(485,113,o),
(567,248,c)
);
}
);
width = 654;
},
{
layerId = m002;
shapes = (
{
closed = 0;
nodes = (
(453,681,l),
(406,694,o),
(344,700,o),
(286,700,cs),
(148,700,o),
(73,415,o),
(84,213,cs),
(91,84,o),
(148,0,o),
(230,0,cs),
(318,0,o),
(438,105,o),
(514,230,c)
);
}
);
width = 509;
},
{
layerId = "F3447581-435E-44E2-ABAC-414C89955411";
shapes = (
{
closed = 0;
nodes = (
(453,681,l),
(406,694,o),
(344,700,o),
(286,700,cs),
(148,700,o),
(73,415,o),
(84,213,cs),
(91,84,o),
(148,0,o),
(230,0,cs),
(318,0,o),
(438,105,o),
(514,230,c)
);
}
);
width = 509;
},
{
layerId = m004;
shapes = (
{
closed = 0;
nodes = (
(453,681,l),
(406,694,o),
(344,700,o),
(286,700,cs),
(148,700,o),
(73,415,o),
(84,213,cs),
(91,84,o),
(148,0,o),
(230,0,cs),
(318,0,o),
(438,105,o),
(514,230,c)
);
}
);
width = 509;
},
{
layerId = m005;
shapes = (
{
closed = 0;
nodes = (
(453,681,l),
(406,694,o),
(344,700,o),
(286,700,cs),
(148,700,o),
(73,415,o),
(84,213,cs),
(91,84,o),
(148,0,o),
(230,0,cs),
(318,0,o),
(438,105,o),
(514,230,c)
);
}
);
width = 509;
}
);
},
{
export = 0;
glyphname = D.ss01;
lastChange = "2025-12-15 10:05:14 +0000";
layers = (
{
background = {
shapes = (
{
attr = {
lineCapEnd = 1;
lineCapStart = 1;
strokeHeight = 60;
strokeWidth = 65;
};
closed = 0;
nodes = (
(112,756,l),
(390,756,l),
(604,756,o),
(700,624,o),
(700,470,cs),
(700,256,o),
(516,0,o),
(222,0,cs),
(193,0,o),
(191,13,o),
(192,42,cs),
(220,756,l)
);
}
);
};
layerId = "6F9C6BB4-2DCF-443B-A55D-9CE049090094";
shapes = (
{
closed = 1;
nodes = (
(368,714,ls),
(554,714,o),
(634,607,o),
(634,475,cs),
(634,230,o),
(471,61,o),
(206,61,c),
(225,40,l),
(250,743,l),
(186,745,l),
(157,1,l),
(206,1,ls),
(509,1,o),
(699,198,o),
(699,475,cs),
(699,633,o),
(596,774,o),
(368,774,cs),
(104,774,ls),
(87,774,o),
(74,761,o),
(74,744,cs),
(74,727,o),
(87,714,o),
(104,714,cs)
);
}
);
width = 796;
},
{
layerId = m002;
shapes = (
{
closed = 0;
nodes = (
(91,700,l),
(348,700,l),
(547,700,o),
(635,578,o),
(635,435,cs),
(635,237,o),
(465,0,o),
(193,0,cs),
(166,0,o),
(164,12,o),
(165,39,cs),
(191,700,l)
);
}
);
width = 714;
},
{
layerId = "F3447581-435E-44E2-ABAC-414C89955411";
shapes = (
{
closed = 0;
nodes = (
(91,700,l),
(348,700,l),
(547,700,o),
(635,578,o),
(635,435,cs),
(635,237,o),
(465,0,o),
(193,0,cs),
(166,0,o),
(164,12,o),
(165,39,cs),
(191,700,l)
);
}
);
width = 714;
},
{
layerId = m004;
shapes = (
{
closed = 0;
nodes = (
(91,700,l),
(348,700,l),
(547,700,o),
(635,578,o),
(635,435,cs),
(635,237,o),
(465,0,o),
(193,0,cs),
(166,0,o),
(164,12,o),
(165,39,cs),
(191,700,l)
);
}
);
width = 714;
},
{
layerId = m005;
shapes = (
{
closed = 0;
nodes = (
(91,700,l),
(348,700,l),
(547,700,o),
(635,578,o),
(635,435,cs),
(635,237,o),
(465,0,o),
(193,0,cs),
(166,0,o),
(164,12,o),
(165,39,cs),
(191,700,l)
);
}
);
width = 714;
}
);
},
{
export = 0;
glyphname = E.ss01;
lastChange = "2025-12-15 10:06:27 +0000";
layers = (
{
background = {
shapes = (
{
attr = {
lineCapEnd = 1;
lineCapStart = 1;
strokeHeight = 60;
strokeWidth = 65;
};
closed = 0;
nodes = (
(112,756,l),
(523,756,l)
);
},
{
attr = {
lineCapEnd = 1;
lineCapStart = 1;
strokeHeight = 60;
strokeWidth = 65;
};
closed = 0;
nodes = (
(511,0,l),
(222,0,l),
(193,0,o),
(191,13,o),
(192,42,cs),
(220,756,l)
);
},
{
attr = {
lineCapEnd = 1;
lineCapStart = 1;
strokeHeight = 60;
strokeWidth = 65;
};
closed = 0;
nodes = (
(203,372,l),
(480,372,l)
);
}
);
};
layerId = "6F9C6BB4-2DCF-443B-A55D-9CE049090094";
shapes = (
{
closed = 1;
nodes = (
(156,1,l),
(506,1,ls),
(523,1,o),
(536,14,o),
(536,31,cs),
(536,48,o),
(523,61,o),
(506,61,cs),
(224,61,l),
(250,743,l),
(186,745,l)
);
},
{
closed = 1;
nodes = (
(197,402,l),
(197,342,l),
(472,342,ls),
(489,342,o),
(502,355,o),
(502,372,cs),
(502,389,o),
(489,402,o),
(472,402,cs)
);
},
{
closed = 1;
nodes = (
(105,774,ls),
(88,774,o),
(75,761,o),
(75,744,cs),
(75,727,o),
(88,714,o),
(105,714,cs),
(509,714,ls),
(526,714,o),
(539,727,o),
(539,744,cs),
(539,761,o),
(526,774,o),
(509,774,cs)
);
}
);
width = 634;
},
{
layerId = m002;
shapes = (
{
closed = 0;
nodes = (
(91,700,l),
(472,700,l)
);
},
{
closed = 0;
nodes = (
(460,0,l),
(193,0,l),
(166,0,o),
(164,12,o),
(165,39,cs),
(191,700,l)
);
},
{
closed = 0;
nodes = (
(175,344,l),
(432,344,l)
);
}
);
width = 562;
},
{
layerId = "F3447581-435E-44E2-ABAC-414C89955411";
shapes = (
{
closed = 0;
nodes = (
(91,700,l),
(472,700,l)
);
},
{
closed = 0;
nodes = (
(460,0,l),
(193,0,l),
(166,0,o),
(164,12,o),
(165,39,cs),
(191,700,l)
);
},
{
closed = 0;
nodes = (
(175,344,l),
(432,344,l)
);
}
);
width = 562;
},
{
layerId = m004;
shapes = (
{
closed = 0;
nodes = (
(91,700,l),
(472,700,l)
);
},
{
closed = 0;
nodes = (
(460,0,l),
(193,0,l),
(166,0,o),
(164,12,o),
(165,39,cs),
(191,700,l)
);
},
{
closed = 0;
nodes = (
(175,344,l),
(432,344,l)
);
}
);
width = 562;
},
{
layerId = m005;
shapes = (
{
closed = 0;
nodes = (
(91,700,l),
(472,700,l)
);
},
{
closed = 0;
nodes = (
(460,0,l),
(193,0,l),
(166,0,o),
(164,12,o),
(165,39,cs),
(191,700,l)
);
},
{
closed = 0;
nodes = (
(175,344,l),
(432,344,l)
);
}
);
width = 562;
}
);
},
{
export = 0;
glyphname = F.ss01;
lastChange = "2025-12-15 10:07:27 +0000";
layers = (
{
background = {
shapes = (
{
attr = {
lineCapEnd = 1;
lineCapStart = 1;
strokeWidth = 65;
};
closed = 0;
nodes = (
(111,756,l),
(522,756,l)
);
},
{
attr = {
lineCapEnd = 1;
lineCapStart = 1;
strokeWidth = 65;
};
closed = 0;
nodes = (
(202,361,l),
(479,361,l)
);
},
{
attr = {
lineCapEnd = 1;
lineCapStart = 1;
strokeWidth = 65;
};
closed = 0;
nodes = (
(219,757,l),
(191,0,l)
);
}
);
};
layerId = "6F9C6BB4-2DCF-443B-A55D-9CE049090094";
shapes = (
{
closed = 1;
nodes = (
(197,392,l),
(197,332,l),
(472,332,ls),
(489,332,o),
(502,345,o),
(502,362,cs),
(502,379,o),
(489,392,o),
(472,392,cs)
);
},
{
closed = 1;
nodes = (
(105,774,ls),
(88,774,o),
(75,761,o),
(75,744,cs),
(75,727,o),
(88,714,o),
(105,714,cs),
(509,714,ls),
(526,714,o),
(539,727,o),
(539,744,cs),
(539,761,o),
(526,774,o),
(509,774,cs)
);
},
{
closed = 1;
nodes = (
(158,28,l),
(157,9,o),
(172,-5,o),
(190,-5,c),
(208,-5,o),
(222,9,o),
(222,26,c),
(249,743,l),
(185,745,l)
);
}
);
width = 634;
},
{
layerId = m002;
shapes = (
{
closed = 0;
nodes = (
(91,700,l),
(472,700,l)
);
},
{
closed = 0;
nodes = (
(175,334,l),
(432,334,l)
);
},
{
closed = 0;
nodes = (
(191,701,l),
(165,0,l)
);
}
);
width = 563;
},
{
layerId = "F3447581-435E-44E2-ABAC-414C89955411";
shapes = (
{
closed = 0;
nodes = (
(91,700,l),
(472,700,l)
);
},
{
closed = 0;
nodes = (
(175,334,l),
(432,334,l)
);
},
{
closed = 0;
nodes = (
(191,701,l),
(165,0,l)
);
}
);
width = 563;
},
{
layerId = m004;
shapes = (
{
closed = 0;
nodes = (
(91,700,l),
(472,700,l)
);
},
{
closed = 0;
nodes = (
(175,334,l),
(432,334,l)
);
},
{
closed = 0;
nodes = (
(191,701,l),
(165,0,l)
);
}
);
width = 563;
},
{
layerId = m005;
shapes = (
{
closed = 0;
nodes = (
(91,700,l),
(472,700,l)
);
},
{
closed = 0;
nodes = (
(175,334,l),
(432,334,l)
);
},
{
closed = 0;
nodes = (
(191,701,l),
(165,0,l)
);
}
);
width = 563;
}
);
},
{
export = 0;
glyphname = G.ss01;
lastChange = "2025-12-15 08:41:41 +0000";
layers = (
{
layerId = "6F9C6BB4-2DCF-443B-A55D-9CE049090094";
shapes = (
{
attr = {
lineCapEnd = 1;
lineCapStart = 1;
strokeHeight = 60;
strokeWidth = 65;
};
closed = 0;
nodes = (
(502,763,l),
(451,777,o),
(384,784,o),
(321,784,cs),
(172,784,o),
(91,476,o),
(103,258,cs),
(110,118,o),
(160,28,o),
(233,28,cs),
(312,28,o),
(429,153,o),
(497,319,c)
);
},
{
attr = {
lineCapEnd = 1;
lineCapStart = 1;
strokeHeight = 60;
strokeWidth = 65;
};
closed = 0;
nodes = (
(657,191,l),
(643,123,o),
(374,1,o),
(374,-236,cs),
(374,-302,o),
(398,-347,o),
(440,-347,cs),
(496,-347,o),
(497,-280,o),
(497,-85,cs),
(497,418,l),
(334,418,l)
);
}
);
width = 744;
},
{
layerId = m002;
shapes = (
{
closed = 0;
nodes = (
(454,681,l),
(407,694,o),
(345,700,o),
(287,700,cs),
(149,700,o),
(74,415,o),
(85,213,cs),
(91,84,o),
(138,0,o),
(205,0,cs),
(278,0,o),
(387,116,o),
(450,270,c)
);
},
{
closed = 0;
nodes = (
(598,151,l),
(585,88,o),
(336,-25,o),
(336,-244,cs),
(336,-305,o),
(358,-347,o),
(397,-347,cs),
(449,-347,o),
(450,-285,o),
(450,-104,cs),
(450,361,l),
(299,361,l)
);
}
);
width = 636;
},
{
layerId = "F3447581-435E-44E2-ABAC-414C89955411";
shapes = (
{
closed = 0;
nodes = (
(454,681,l),
(407,694,o),
(345,700,o),
(287,700,cs),
(149,700,o),
(74,415,o),
(85,213,cs),
(91,84,o),
(138,0,o),
(205,0,cs),
(278,0,o),
(387,116,o),
(450,270,c)
);
},
{
closed = 0;
nodes = (
(598,151,l),
(585,88,o),
(336,-25,o),
(336,-244,cs),
(336,-305,o),
(358,-347,o),
(397,-347,cs),
(449,-347,o),
(450,-285,o),
(450,-104,cs),
(450,361,l),
(299,361,l)
);
}
);
width = 636;
},
{
layerId = m004;
shapes = (
{
closed = 0;
nodes = (
(454,681,l),
(407,694,o),
(345,700,o),
(287,700,cs),
(149,700,o),
(74,415,o),
(85,213,cs),
(91,84,o),
(138,0,o),
(205,0,cs),
(278,0,o),
(387,116,o),
(450,270,c)
);
},
{
closed = 0;
nodes = (
(598,151,l),
(585,88,o),
(336,-25,o),
(336,-244,cs),
(336,-305,o),
(358,-347,o),
(397,-347,cs),
(449,-347,o),
(450,-285,o),
(450,-104,cs),
(450,361,l),
(299,361,l)
);
}
);
width = 636;
},
{
layerId = m005;
shapes = (
{
closed = 0;
nodes = (
(454,681,l),
(407,694,o),
(345,700,o),
(287,700,cs),
(149,700,o),
(74,415,o),
(85,213,cs),
(91,84,o),
(138,0,o),
(205,0,cs),
(278,0,o),
(387,116,o),
(450,270,c)
);
},
{
closed = 0;
nodes = (
(598,151,l),
(585,88,o),
(336,-25,o),
(336,-244,cs),
(336,-305,o),
(358,-347,o),
(397,-347,cs),
(449,-347,o),
(450,-285,o),
(450,-104,cs),
(450,361,l),
(299,361,l)
);
}
);
width = 636;
}
);
},
{
export = 0;
glyphname = H.ss01;
lastChange = "2025-12-15 08:41:52 +0000";
layers = (
{
layerId = "6F9C6BB4-2DCF-443B-A55D-9CE049090094";
shapes = (
{
attr = {
lineCapEnd = 1;
lineCapStart = 1;
strokeWidth = 65;
};
closed = 0;
nodes = (
(103,346,l),
(661,346,l)
);
},
{
attr = {
lineCapEnd = 1;
lineCapStart = 1;
strokeWidth = 65;
};
closed = 0;
nodes = (
(892,248,l),
(826,90,o),
(724,0,o),
(686,0,cs),
(651,0,o),
(649,41,o),
(653,129,cs),
(676,756,l)
);
},
{
attr = {
lineCapEnd = 1;
lineCapStart = 1;
strokeWidth = 65;
};
closed = 0;
nodes = (
(120,756,l),
(222,756,o),
(228,755,o),
(224,635,cs),
(201,0,l)
);
}
);
width = 979;
},
{
layerId = m002;
shapes = (
{
closed = 0;
nodes = (
(83,320,l),
(600,320,l)
);
},
{
closed = 0;
nodes = (
(814,230,l),
(752,83,o),
(658,0,o),
(623,0,cs),
(590,0,o),
(589,38,o),
(592,119,cs),
(614,700,l)
);
},
{
closed = 0;
nodes = (
(99,700,l),
(193,700,o),
(199,699,o),
(195,588,cs),
(174,0,l)
);
}
);
width = 809;
},
{
layerId = "F3447581-435E-44E2-ABAC-414C89955411";
shapes = (
{
closed = 0;
nodes = (
(83,320,l),
(600,320,l)
);
},
{
closed = 0;
nodes = (
(814,230,l),
(752,83,o),
(658,0,o),
(623,0,cs),
(590,0,o),
(589,38,o),
(592,119,cs),
(614,700,l)
);
},
{
closed = 0;
nodes = (
(99,700,l),
(193,700,o),
(199,699,o),
(195,588,cs),
(174,0,l)
);
}
);
width = 809;
},
{
layerId = m004;
shapes = (
{
closed = 0;
nodes = (
(83,320,l),
(600,320,l)
);
},
{
closed = 0;
nodes = (
(814,230,l),
(752,83,o),
(658,0,o),
(623,0,cs),
(590,0,o),
(589,38,o),
(592,119,cs),
(614,700,l)
);
},
{
closed = 0;
nodes = (
(99,700,l),
(193,700,o),
(199,699,o),
(195,588,cs),
(174,0,l)
);
}
);
width = 809;
},
{
layerId = m005;
shapes = (
{
closed = 0;
nodes = (
(83,320,l),
(600,320,l)
);
},
{
closed = 0;
nodes = (
(814,230,l),
(752,83,o),
(658,0,o),
(623,0,cs),
(590,0,o),
(589,38,o),
(592,119,cs),
(614,700,l)
);
},
{
closed = 0;
nodes = (
(99,700,l),
(193,700,o),
(199,699,o),
(195,588,cs),
(174,0,l)
);
}
);
width = 809;
}
);
},
{
export = 0;
glyphname = I.ss01;
lastChange = "2025-12-15 08:41:59 +0000";
layers = (
{
layerId = "6F9C6BB4-2DCF-443B-A55D-9CE049090094";
shapes = (
{
attr = {
lineCapEnd = 1;
lineCapStart = 1;
strokeWidth = 65;
};
closed = 0;
nodes = (
(100,184,l),
(73,75,o),
(115,0,o),
(203,0,cs),
(317,0,o),
(415,123,o),
(420,271,cs),
(438,756,l),
(336,743,o),
(213,741,o),
(150,756,c)
);
}
);
width = 545;
},
{
layerId = m002;
shapes = (
{
closed = 0;
nodes = (
(82,170,l),
(57,69,o),
(96,0,o),
(178,0,cs),
(283,0,o),
(374,114,o),
(379,251,cs),
(395,700,l),
(301,688,o),
(187,686,o),
(129,700,c)
);
}
);
width = 483;
},
{
layerId = "F3447581-435E-44E2-ABAC-414C89955411";
shapes = (
{
closed = 0;
nodes = (
(82,170,l),
(57,69,o),
(96,0,o),
(178,0,cs),
(283,0,o),
(374,114,o),
(379,251,cs),
(395,700,l),
(301,688,o),
(187,686,o),
(129,700,c)
);
}
);
width = 483;
},
{
layerId = m004;
shapes = (
{
closed = 0;
nodes = (
(82,170,l),
(57,69,o),
(96,0,o),
(178,0,cs),
(283,0,o),
(374,114,o),
(379,251,cs),
(395,700,l),
(301,688,o),
(187,686,o),
(129,700,c)
);
}
);
width = 483;
},
{
layerId = m005;
shapes = (
{
closed = 0;
nodes = (
(82,170,l),
(57,69,o),
(96,0,o),
(178,0,cs),
(283,0,o),
(374,114,o),
(379,251,cs),
(395,700,l),
(301,688,o),
(187,686,o),
(129,700,c)
);
}
);
width = 483;
}
);
},
{
export = 0;
glyphname = J.ss01;
lastChange = "2025-12-15 08:42:15 +0000";
layers = (
{
anchors = (
{
name = bottom;
pos = (307,26);
},
{
name = top;
pos = (269,728);
}
);
layerId = "6F9C6BB4-2DCF-443B-A55D-9CE049090094";
shapes = (
{
attr = {
lineCapEnd = 1;
lineCapStart = 1;
strokeHeight = 60;
strokeWidth = 65;
};
closed = 0;
nodes = (
(303,297,l),
(320,782,l),
(237,769,o),
(137,767,o),
(85,782,c)
);
},
{
attr = {
lineCapEnd = 1;
lineCapStart = 1;
strokeHeight = 60;
strokeWidth = 65;
};
closed = 0;
nodes = (
(307,415,l),
(285,-233,ls),
(283,-297,o),
(268,-324,o),
(235,-324,cs),
(199,-324,o),
(170,-292,o),
(170,-238,cs),
(170,-153,o),
(239,-81,o),
(347,48,cs),
(411,123,o),
(480,206,o),
(511,274,c)
);
}
);
width = 598;
},
{
anchors = (
{
name = bottom;
pos = (184,0);
},
{
name = top;
pos = (148,650);
}
);
layerId = m002;
shapes = (
{
closed = 0;
nodes = (
(180,251,l),
(196,700,l),
(119,688,o),
(26,686,o),
(-22,700,c)
);
},
{
closed = 0;
nodes = (
(184,360,l),
(163,-240,ls),
(161,-299,o),
(147,-324,o),
(117,-324,cs),
(84,-324,o),
(57,-294,o),
(57,-244,cs),
(57,-166,o),
(121,-99,o),
(221,20,cs),
(280,90,o),
(344,167,o),
(372,230,c)
);
}
);
width = 367;
},
{
anchors = (
{
name = bottom;
pos = (184,0);
},
{
name = top;
pos = (148,650);
}
);
layerId = "F3447581-435E-44E2-ABAC-414C89955411";
shapes = (
{
closed = 0;
nodes = (
(180,251,l),
(196,700,l),
(119,688,o),
(26,686,o),
(-22,700,c)
);
},
{
closed = 0;
nodes = (
(184,360,l),
(163,-240,ls),
(161,-299,o),
(147,-324,o),
(117,-324,cs),
(84,-324,o),
(57,-294,o),
(57,-244,cs),
(57,-166,o),
(121,-99,o),
(221,20,cs),
(280,90,o),
(344,167,o),
(372,230,c)
);
}
);
width = 367;
},
{
anchors = (
{
name = bottom;
pos = (184,0);
},
{
name = top;
pos = (148,650);
}
);
layerId = m004;
shapes = (
{
closed = 0;
nodes = (
(180,251,l),
(196,700,l),
(119,688,o),
(26,686,o),
(-22,700,c)
);
},
{
closed = 0;
nodes = (
(184,360,l),
(163,-240,ls),
(161,-299,o),
(147,-324,o),
(117,-324,cs),
(84,-324,o),
(57,-294,o),
(57,-244,cs),
(57,-166,o),
(121,-99,o),
(221,20,cs),
(280,90,o),
(344,167,o),
(372,230,c)
);
}
);
width = 367;
},
{
anchors = (
{
name = bottom;
pos = (184,0);
},
{
name = top;
pos = (148,650);
}
);
layerId = m005;
shapes = (
{
closed = 0;
nodes = (
(180,251,l),
(196,700,l),
(119,688,o),
(26,686,o),
(-22,700,c)
);
},
{
closed = 0;
nodes = (
(184,360,l),
(163,-240,ls),
(161,-299,o),
(147,-324,o),
(117,-324,cs),
(84,-324,o),
(57,-294,o),
(57,-244,cs),
(57,-166,o),
(121,-99,o),
(221,20,cs),
(280,90,o),
(344,167,o),
(372,230,c)
);
}
);
width = 367;
}
);
},
{
export = 0;
glyphname = K.ss01;
lastChange = "2025-12-15 08:42:21 +0000";
layers = (
{
layerId = "6F9C6BB4-2DCF-443B-A55D-9CE049090094";
shapes = (
{
attr = {
lineCapEnd = 1;
lineCapStart = 1;
strokeWidth = 65;
};
closed = 0;
nodes = (
(571,756,l),
(228,387,l),
(458,103,ls),
(495,57,o),
(557,0,o),
(613,0,cs)
);
},
{
attr = {
lineCapEnd = 1;
lineCapStart = 1;
strokeWidth = 65;
};
closed = 0;
nodes = (
(103,756,l),
(205,756,o),
(211,755,o),
(207,635,cs),
(184,0,l)
);
}
);
width = 698;
},
{
layerId = m002;
shapes = (
{
closed = 0;
nodes = (
(534,700,l),
(217,358,l),
(430,95,ls),
(464,53,o),
(521,0,o),
(573,0,cs)
);
},
{
closed = 0;
nodes = (
(101,700,l),
(195,700,o),
(201,699,o),
(197,588,cs),
(176,0,l)
);
}
);
width = 600;
},
{
layerId = "F3447581-435E-44E2-ABAC-414C89955411";
shapes = (
{
closed = 0;
nodes = (
(534,700,l),
(217,358,l),
(430,95,ls),
(464,53,o),
(521,0,o),
(573,0,cs)
);
},
{
closed = 0;
nodes = (
(101,700,l),
(195,700,o),
(201,699,o),
(197,588,cs),
(176,0,l)
);
}
);
width = 600;
},
{
layerId = m004;
shapes = (
{
closed = 0;
nodes = (
(534,700,l),
(217,358,l),
(430,95,ls),
(464,53,o),
(521,0,o),
(573,0,cs)
);
},
{
closed = 0;
nodes = (
(101,700,l),
(195,700,o),
(201,699,o),
(197,588,cs),
(176,0,l)
);
}
);
width = 600;
},
{
layerId = m005;
shapes = (
{
closed = 0;
nodes = (
(534,700,l),
(217,358,l),
(430,95,ls),
(464,53,o),
(521,0,o),
(573,0,cs)
);
},
{
closed = 0;
nodes = (
(101,700,l),
(195,700,o),
(201,699,o),
(197,588,cs),
(176,0,l)
);
}
);
width = 600;
}
);
},
{
export = 0;
glyphname = L.ss01;
lastChange = "2025-12-15 08:42:46 +0000";
layers = (
{
layerId = "6F9C6BB4-2DCF-443B-A55D-9CE049090094";
shapes = (
{
attr = {
lineCapEnd = 1;
lineCapStart = 1;
strokeWidth = 65;
};
closed = 0;
nodes = (
(167,-39,l),
(357,580,ls),
(389,685,o),
(451,759,o),
(525,759,cs),
(595,759,o),
(631,716,o),
(631,662,cs),
(631,544,o),
(474,447,o),
(344,447,cs),
(258,447,o),
(164,488,o),
(87,610,c)
);
},
{
attr = {
lineCapEnd = 1;
lineCapStart = 1;
strokeWidth = 65;
};
closed = 0;
nodes = (
(721,252,l),
(654,93,o),
(576,3,o),
(468,3,cs),
(376,3,o),
(311,18,o),
(239,18,cs),
(217,18,o),
(199,15,o),
(180,4,c)
);
}
);
width = 808;
},
{
layerId = m002;
shapes = (
{
closed = 0;
nodes = (
(60,-39,l),
(236,534,ls),
(266,631,o),
(323,700,o),
(392,700,cs),
(456,700,o),
(490,660,o),
(490,610,cs),
(490,501,o),
(344,411,o),
(224,411,cs),
(144,411,o),
(57,449,o),
(-14,562,c)
);
},
{
closed = 0;
nodes = (
(573,230,l),
(511,83,o),
(418,0,o),
(382,0,cs),
(297,0,o),
(212,14,o),
(127,14,cs),
(106,14,o),
(90,11,o),
(72,1,c)
);
}
);
width = 568;
},
{
layerId = "F3447581-435E-44E2-ABAC-414C89955411";
shapes = (
{
closed = 0;
nodes = (
(60,-39,l),
(236,534,ls),
(266,631,o),
(323,700,o),
(392,700,cs),
(456,700,o),
(490,660,o),
(490,610,cs),
(490,501,o),
(344,411,o),
(224,411,cs),
(144,411,o),
(57,449,o),
(-14,562,c)
);
},
{
closed = 0;
nodes = (
(573,230,l),
(511,83,o),
(418,0,o),
(382,0,cs),
(297,0,o),
(212,14,o),
(127,14,cs),
(106,14,o),
(90,11,o),
(72,1,c)
);
}
);
width = 568;
},
{
layerId = m004;
shapes = (
{
closed = 0;
nodes = (
(60,-39,l),
(236,534,ls),
(266,631,o),
(323,700,o),
(392,700,cs),
(456,700,o),
(490,660,o),
(490,610,cs),
(490,501,o),
(344,411,o),
(224,411,cs),
(144,411,o),
(57,449,o),
(-14,562,c)
);
},
{
closed = 0;
nodes = (
(573,230,l),
(511,83,o),
(418,0,o),
(382,0,cs),
(297,0,o),
(212,14,o),
(127,14,cs),
(106,14,o),
(90,11,o),
(72,1,c)
);
}
);
width = 568;
},
{
layerId = m005;
shapes = (
{
closed = 0;
nodes = (
(60,-39,l),
(236,534,ls),
(266,631,o),
(323,700,o),
(392,700,cs),
(456,700,o),
(490,660,o),
(490,610,cs),
(490,501,o),
(344,411,o),
(224,411,cs),
(144,411,o),
(57,449,o),
(-14,562,c)
);
},
{
closed = 0;
nodes = (
(573,230,l),
(511,83,o),
(418,0,o),
(382,0,cs),
(297,0,o),
(212,14,o),
(127,14,cs),
(106,14,o),
(90,11,o),
(72,1,c)
);
}
);
width = 568;
}
);
},
{
export = 0;
glyphname = M.ss01;
lastChange = "2025-12-15 08:43:02 +0000";
layers = (
{
layerId = "6F9C6BB4-2DCF-443B-A55D-9CE049090094";
shapes = (
{
attr = {
lineCapEnd = 1;
lineCapStart = 1;
strokeWidth = 65;
};
closed = 0;
nodes = (
(449,756,l),
(227,122,ls),
(196,32,o),
(161,1,o),
(86,1,c)
);
},
{
attr = {
lineCapEnd = 1;
lineCapStart = 1;
strokeWidth = 65;
};
closed = 0;
nodes = (
(974,756,l),
(828,305,o),
(637,143,o),
(566,90,c),
(506,185,o),
(467,370,o),
(450,756,c)
);
},
{
attr = {
lineCapEnd = 1;
lineCapStart = 1;
strokeWidth = 65;
};
closed = 0;
nodes = (
(1188,248,l),
(1121,90,o),
(1019,0,o),
(981,0,cs),
(920,0,o),
(947,204,o),
(975,756,c)
);
}
);
width = 1275;
},
{
layerId = m002;
shapes = (
{
closed = 0;
nodes = (
(406,700,l),
(201,113,ls),
(172,30,o),
(139,1,o),
(70,1,c)
);
},
{
closed = 0;
nodes = (
(892,700,l),
(757,282,o),
(580,132,o),
(514,83,c),
(459,171,o),
(423,343,o),
(407,700,c)
);
},
{
closed = 0;
nodes = (
(1090,230,l),
(1028,83,o),
(934,0,o),
(899,0,cs),
(842,0,o),
(867,189,o),
(893,700,c)
);
}
);
width = 1085;
},
{
layerId = "F3447581-435E-44E2-ABAC-414C89955411";
shapes = (
{
closed = 0;
nodes = (
(406,700,l),
(201,113,ls),
(172,30,o),
(139,1,o),
(70,1,c)
);
},
{
closed = 0;
nodes = (
(892,700,l),
(757,282,o),
(580,132,o),
(514,83,c),
(459,171,o),
(423,343,o),
(407,700,c)
);
},
{
closed = 0;
nodes = (
(1090,230,l),
(1028,83,o),
(934,0,o),
(899,0,cs),
(842,0,o),
(867,189,o),
(893,700,c)
);
}
);
width = 1085;
},
{
layerId = m004;
shapes = (
{
closed = 0;
nodes = (
(406,700,l),
(201,113,ls),
(172,30,o),
(139,1,o),
(70,1,c)
);
},
{
closed = 0;
nodes = (
(892,700,l),
(757,282,o),
(580,132,o),
(514,83,c),
(459,171,o),
(423,343,o),
(407,700,c)
);
},
{
closed = 0;
nodes = (
(1090,230,l),
(1028,83,o),
(934,0,o),
(899,0,cs),
(842,0,o),
(867,189,o),
(893,700,c)
);
}
);
width = 1085;
},
{
layerId = m005;
shapes = (
{
closed = 0;
nodes = (
(406,700,l),
(201,113,ls),
(172,30,o),
(139,1,o),
(70,1,c)
);
},
{
closed = 0;
nodes = (
(892,700,l),
(757,282,o),
(580,132,o),
(514,83,c),
(459,171,o),
(423,343,o),
(407,700,c)
);
},
{
closed = 0;
nodes = (
(1090,230,l),
(1028,83,o),
(934,0,o),
(899,0,cs),
(842,0,o),
(867,189,o),
(893,700,c)
);
}
);
width = 1085;
}
);
},
{
export = 0;
glyphname = N.ss01;
lastChange = "2025-12-15 08:43:16 +0000";
layers = (
{
layerId = "6F9C6BB4-2DCF-443B-A55D-9CE049090094";
shapes = (
{
attr = {
lineCapEnd = 1;
lineCapStart = 1;
strokeWidth = 65;
};
closed = 0;
nodes = (
(687,756,l),
(634,0,l)
);
},
{
attr = {
lineCapEnd = 1;
lineCapStart = 1;
strokeWidth = 65;
};
closed = 0;
nodes = (
(238,756,l),
(193,121,ls),
(187,31,o),
(160,0,o),
(85,0,c)
);
},
{
attr = {
lineCapEnd = 1;
lineCapStart = 1;
strokeWidth = 65;
};
closed = 0;
nodes = (
(635,6,l),
(597,97,o),
(271,649,o),
(239,756,c)
);
}
);
width = 788;
},
{
layerId = m002;
shapes = (
{
closed = 0;
nodes = (
(614,700,l),
(565,0,l)
);
},
{
closed = 0;
nodes = (
(199,700,l),
(157,112,ls),
(151,29,o),
(126,0,o),
(57,0,c)
);
},
{
closed = 0;
nodes = (
(566,6,l),
(531,90,o),
(229,601,o),
(200,700,c)
);
}
);
width = 694;
},
{
layerId = "F3447581-435E-44E2-ABAC-414C89955411";
shapes = (
{
closed = 0;
nodes = (
(614,700,l),
(565,0,l)
);
},
{
closed = 0;
nodes = (
(199,700,l),
(157,112,ls),
(151,29,o),
(126,0,o),
(57,0,c)
);
},
{
closed = 0;
nodes = (
(566,6,l),
(531,90,o),
(229,601,o),
(200,700,c)
);
}
);
width = 694;
},
{
layerId = m004;
shapes = (
{
closed = 0;
nodes = (
(614,700,l),
(565,0,l)
);
},
{
closed = 0;
nodes = (
(199,700,l),
(157,112,ls),
(151,29,o),
(126,0,o),
(57,0,c)
);
},
{
closed = 0;
nodes = (
(566,6,l),
(531,90,o),
(229,601,o),
(200,700,c)
);
}
);
width = 694;
},
{
layerId = m005;
shapes = (
{
closed = 0;
nodes = (
(614,700,l),
(565,0,l)
);
},
{
closed = 0;
nodes = (
(199,700,l),
(157,112,ls),
(151,29,o),
(126,0,o),
(57,0,c)
);
},
{
closed = 0;
nodes = (
(566,6,l),
(531,90,o),
(229,601,o),
(200,700,c)
);
}
);
width = 694;
}
);
},
{
export = 0;
glyphname = O.ss01;
lastChange = "2025-12-15 08:43:25 +0000";
layers = (
{
layerId = "6F9C6BB4-2DCF-443B-A55D-9CE049090094";
shapes = (
{
attr = {
lineCapEnd = 1;
lineCapStart = 1;
strokeWidth = 65;
};
closed = 0;
nodes = (
(200,184,l),
(128,184,o),
(96,253,o),
(96,342,cs),
(96,512,o),
(208,756,o),
(397,756,cs),
(566,756,o),
(658,610,o),
(658,426,cs),
(658,221,o),
(543,0,o),
(338,0,cs),
(254,0,o),
(187,32,o),
(145,83,c)
);
}
);
width = 757;
},
{
layerId = m002;
shapes = (
{
closed = 0;
nodes = (
(175,170,l),
(109,170,o),
(79,234,o),
(79,317,cs),
(79,474,o),
(183,700,o),
(358,700,cs),
(514,700,o),
(599,565,o),
(599,394,cs),
(599,205,o),
(493,0,o),
(303,0,cs),
(225,0,o),
(163,30,o),
(124,77,c)
);
}
);
width = 680;
},
{
layerId = "F3447581-435E-44E2-ABAC-414C89955411";
shapes = (
{
closed = 0;
nodes = (
(175,170,l),
(109,170,o),
(79,234,o),
(79,317,cs),
(79,474,o),
(183,700,o),
(358,700,cs),
(514,700,o),
(599,565,o),
(599,394,cs),
(599,205,o),
(493,0,o),
(303,0,cs),
(225,0,o),
(163,30,o),
(124,77,c)
);
}
);
width = 680;
},
{
layerId = m004;
shapes = (
{
closed = 0;
nodes = (
(175,170,l),
(109,170,o),
(79,234,o),
(79,317,cs),
(79,474,o),
(183,700,o),
(358,700,cs),
(514,700,o),
(599,565,o),
(599,394,cs),
(599,205,o),
(493,0,o),
(303,0,cs),
(225,0,o),
(163,30,o),
(124,77,c)
);
}
);
width = 680;
},
{
layerId = m005;
shapes = (
{
closed = 0;
nodes = (
(175,170,l),
(109,170,o),
(79,234,o),
(79,317,cs),
(79,474,o),
(183,700,o),
(358,700,cs),
(514,700,o),
(599,565,o),
(599,394,cs),
(599,205,o),
(493,0,o),
(303,0,cs),
(225,0,o),
(163,30,o),
(124,77,c)
);
}
);
width = 680;
}
);
},
{
export = 0;
glyphname = P.ss01;
lastChange = "2025-12-15 08:43:41 +0000";
layers = (
{
layerId = "6F9C6BB4-2DCF-443B-A55D-9CE049090094";
shapes = (
{
attr = {
lineCapEnd = 2;
lineCapStart = 1;
strokeWidth = 65;
};
closed = 0;
nodes = (
(111,756,l),
(416,756,l),
(480,756,o),
(601,751,o),
(601,587,cs),
(601,382,o),
(375,309,o),
(288,309,c)
);
},
{
attr = {
lineCapEnd = 1;
lineCapStart = 1;
strokeWidth = 65;
};
closed = 0;
nodes = (
(219,-1,l),
(247,756,l)
);
}
);
width = 695;
},
{
layerId = m002;
shapes = (
{
closed = 0;
nodes = (
(91,700,l),
(373,700,l),
(433,700,o),
(545,695,o),
(545,543,cs),
(545,354,o),
(335,286,o),
(255,286,c)
);
},
{
closed = 0;
nodes = (
(272,286,l)
);
},
{
closed = 0;
nodes = (
(191,-1,l),
(217,700,l)
);
}
);
width = 622;
},
{
layerId = "F3447581-435E-44E2-ABAC-414C89955411";
shapes = (
{
closed = 0;
nodes = (
(91,700,l),
(373,700,l),
(433,700,o),
(545,695,o),
(545,543,cs),
(545,354,o),
(335,286,o),
(255,286,c)
);
},
{
closed = 0;
nodes = (
(272,286,l)
);
},
{
closed = 0;
nodes = (
(191,-1,l),
(217,700,l)
);
}
);
width = 622;
},
{
layerId = m004;
shapes = (
{
closed = 0;
nodes = (
(91,700,l),
(373,700,l),
(433,700,o),
(545,695,o),
(545,543,cs),
(545,354,o),
(335,286,o),
(255,286,c)
);
},
{
closed = 0;
nodes = (
(272,286,l)
);
},
{
closed = 0;
nodes = (
(191,-1,l),
(217,700,l)
);
}
);
width = 622;
},
{
layerId = m005;
shapes = (
{
closed = 0;
nodes = (
(91,700,l),
(373,700,l),
(433,700,o),
(545,695,o),
(545,543,cs),
(545,354,o),
(335,286,o),
(255,286,c)
);
},
{
closed = 0;
nodes = (
(272,286,l)
);
},
{
closed = 0;
nodes = (
(191,-1,l),
(217,700,l)
);
}
);
width = 622;
}
);
},
{
export = 0;
glyphname = Q.ss01;
lastChange = "2025-12-15 08:43:53 +0000";
layers = (
{
layerId = "6F9C6BB4-2DCF-443B-A55D-9CE049090094";
shapes = (
{
attr = {
lineCapEnd = 1;
lineCapStart = 1;
strokeWidth = 65;
};
closed = 0;
nodes = (
(122,228,l),
(102,245,o),
(97,283,o),
(97,354,cs),
(97,524,o),
(209,768,o),
(398,768,cs),
(567,768,o),
(659,622,o),
(659,437,cs),
(659,233,o),
(544,12,o),
(339,12,cs),
(255,12,o),
(166,81,o),
(166,120,cs),
(166,142,o),
(210,163,o),
(276,163,cs),
(393,163,o),
(579,97,o),
(704,-146,c)
);
}
);
width = 757;
},
{
layerId = m002;
shapes = (
{
closed = 0;
nodes = (
(102,200,l),
(84,216,o),
(79,251,o),
(79,317,cs),
(79,474,o),
(183,700,o),
(358,700,cs),
(514,700,o),
(599,565,o),
(599,394,cs),
(599,205,o),
(493,0,o),
(303,0,cs),
(225,0,o),
(143,64,o),
(143,100,cs),
(143,121,o),
(184,140,o),
(245,140,cs),
(353,140,o),
(525,79,o),
(641,-146,c)
);
}
);
width = 682;
},
{
layerId = "F3447581-435E-44E2-ABAC-414C89955411";
shapes = (
{
closed = 0;
nodes = (
(102,200,l),
(84,216,o),
(79,251,o),
(79,317,cs),
(79,474,o),
(183,700,o),
(358,700,cs),
(514,700,o),
(599,565,o),
(599,394,cs),
(599,205,o),
(493,0,o),
(303,0,cs),
(225,0,o),
(143,64,o),
(143,100,cs),
(143,121,o),
(184,140,o),
(245,140,cs),
(353,140,o),
(525,79,o),
(641,-146,c)
);
}
);
width = 682;
},
{
layerId = m004;
shapes = (
{
closed = 0;
nodes = (
(102,200,l),
(84,216,o),
(79,251,o),
(79,317,cs),
(79,474,o),
(183,700,o),
(358,700,cs),
(514,700,o),
(599,565,o),
(599,394,cs),
(599,205,o),
(493,0,o),
(303,0,cs),
(225,0,o),
(143,64,o),
(143,100,cs),
(143,121,o),
(184,140,o),
(245,140,cs),
(353,140,o),
(525,79,o),
(641,-146,c)
);
}
);
width = 682;
},
{
layerId = m005;
shapes = (
{
closed = 0;
nodes = (
(102,200,l),
(84,216,o),
(79,251,o),
(79,317,cs),
(79,474,o),
(183,700,o),
(358,700,cs),
(514,700,o),
(599,565,o),
(599,394,cs),
(599,205,o),
(493,0,o),
(303,0,cs),
(225,0,o),
(143,64,o),
(143,100,cs),
(143,121,o),
(184,140,o),
(245,140,cs),
(353,140,o),
(525,79,o),
(641,-146,c)
);
}
);
width = 682;
}
);
},
{
export = 0;
glyphname = R.ss01;
lastChange = "2025-12-15 08:44:07 +0000";
layers = (
{
layerId = "6F9C6BB4-2DCF-443B-A55D-9CE049090094";
shapes = (
{
attr = {
lineCapEnd = 2;
lineCapStart = 1;
strokeWidth = 65;
};
closed = 0;
nodes = (
(111,756,l),
(410,756,l),
(467,756,o),
(574,752,o),
(574,606,cs),
(574,426,o),
(405,315,o),
(299,365,c)
);
},
{
attr = {
lineCapEnd = 1;
lineCapStart = 1;
strokeWidth = 65;
};
closed = 0;
nodes = (
(191,0,l),
(219,756,l)
);
},
{
attr = {
lineCapEnd = 1;
lineCapStart = 2;
strokeWidth = 65;
};
closed = 0;
nodes = (
(263,408,l),
(492,103,ls),
(526,57,o),
(582,0,o),
(638,0,cs)
);
}
);
width = 723;
},
{
layerId = m002;
shapes = (
{
closed = 0;
nodes = (
(91,700,l),
(368,700,l),
(421,700,o),
(520,696,o),
(520,561,cs),
(520,394,o),
(363,292,o),
(265,338,c)
);
},
{
closed = 0;
nodes = (
(165,0,l),
(191,700,l)
);
},
{
closed = 0;
nodes = (
(232,378,l),
(444,95,ls),
(475,53,o),
(527,0,o),
(579,0,cs)
);
}
);
width = 650;
},
{
layerId = "F3447581-435E-44E2-ABAC-414C89955411";
shapes = (
{
closed = 0;
nodes = (
(91,700,l),
(368,700,l),
(421,700,o),
(520,696,o),
(520,561,cs),
(520,394,o),
(363,292,o),
(265,338,c)
);
},
{
closed = 0;
nodes = (
(165,0,l),
(191,700,l)
);
},
{
closed = 0;
nodes = (
(232,378,l),
(444,95,ls),
(475,53,o),
(527,0,o),
(579,0,cs)
);
}
);
width = 650;
},
{
layerId = m004;
shapes = (
{
closed = 0;
nodes = (
(91,700,l),
(368,700,l),
(421,700,o),
(520,696,o),
(520,561,cs),
(520,394,o),
(363,292,o),
(265,338,c)
);
},
{
closed = 0;
nodes = (
(165,0,l),
(191,700,l)
);
},
{
closed = 0;
nodes = (
(232,378,l),
(444,95,ls),
(475,53,o),
(527,0,o),
(579,0,cs)
);
}
);
width = 650;
},
{
layerId = m005;
shapes = (
{
closed = 0;
nodes = (
(91,700,l),
(368,700,l),
(421,700,o),
(520,696,o),
(520,561,cs),
(520,394,o),
(363,292,o),
(265,338,c)
);
},
{
closed = 0;
nodes = (
(165,0,l),
(191,700,l)
);
},
{
closed = 0;
nodes = (
(232,378,l),
(444,95,ls),
(475,53,o),
(527,0,o),
(579,0,cs)
);
}
);
width = 650;
}
);
},
{
export = 0;
glyphname = S.ss01;
lastChange = "2025-12-15 08:44:16 +0000";
layers = (
{
hints = (
{
horizontal = 1;
origin = (0,12);
settings = {
deltaV = {
"{100, 100, 0, 0, 0, 0}" = {
"62" = 0;
};
};
};
type = TTDelta;
},
{
horizontal = 1;
origin = (0,11);
settings = {
deltaV = {
"{100, 100, 0, 0, 0, 0}" = {
"62" = 0;
};
};
};
type = TTDelta;
},
{
horizontal = 1;
origin = (0,10);
settings = {
deltaV = {
"{100, 100, 0, 0, 0, 0}" = {
"62" = 0;
};
};
};
type = TTDelta;
},
{
horizontal = 1;
origin = (0,9);
settings = {
deltaV = {
"{100, 100, 0, 0, 0, 0}" = {
"62" = 0;
};
};
};
type = TTDelta;
},
{
horizontal = 1;
origin = (0,8);
settings = {
deltaV = {
"{100, 100, 0, 0, 0, 0}" = {
"62" = 0;
};
};
};
type = TTDelta;
},
{
horizontal = 1;
origin = (0,7);
settings = {
deltaV = {
"{100, 100, 0, 0, 0, 0}" = {
"62" = 0;
};
};
};
type = TTDelta;
},
{
horizontal = 1;
origin = (0,6);
settings = {
deltaV = {
"{100, 100, 0, 0, 0, 0}" = {
"62" = 0;
};
};
};
type = TTDelta;
},
{
horizontal = 1;
origin = (0,5);
settings = {
deltaV = {
"{100, 100, 0, 0, 0, 0}" = {
"62" = 0;
};
};
};
type = TTDelta;
},
{
horizontal = 1;
origin = (0,4);
settings = {
deltaV = {
"{100, 100, 0, 0, 0, 0}" = {
"62" = 0;
};
};
};
type = TTDelta;
},
{
horizontal = 1;
origin = (0,3);
settings = {
deltaV = {
"{100, 100, 0, 0, 0, 0}" = {
"62" = 0;
};
};
};
type = TTDelta;
},
{
horizontal = 1;
origin = (0,2);
settings = {
deltaV = {
"{100, 100, 0, 0, 0, 0}" = {
"62" = 0;
};
};
};
type = TTDelta;
},
{
horizontal = 1;
origin = (0,1);
settings = {
deltaV = {
"{100, 100, 0, 0, 0, 0}" = {
"62" = 0;
};
};
};
type = TTDelta;
},
{
horizontal = 1;
origin = (0,0);
settings = {
deltaV = {
"{100, 100, 0, 0, 0, 0}" = {
"62" = 0;
};
};
};
type = TTDelta;
}
);
layerId = "6F9C6BB4-2DCF-443B-A55D-9CE049090094";
shapes = (
{
attr = {
lineCapEnd = 1;
lineCapStart = 1;
strokeWidth = 65;
};
closed = 0;
nodes = (
(428,673,l),
(429,730,o),
(386,756,o),
(332,756,cs),
(251,756,o),
(145,700,o),
(120,610,cs),
(59,383,o),
(491,390,o),
(430,162,cs),
(401,54,o),
(269,0,o),
(174,0,cs),
(132,0,o),
(100,17,o),
(88,34,c)
);
},
{
attr = {
lineCapEnd = 1;
lineCapStart = 1;
strokeWidth = 65;
};
closed = 0;
nodes = (
(582,248,l),
(525,102,o),
(398,2,o),
(310,0,cs),
(280,-1,o),
(228,-1,o),
(198,0,c)
);
}
);
width = 669;
},
{
hints = (
{
horizontal = 1;
origin = (0,12);
settings = {
deltaV = {
"{100, 100, 0, 0, 0, 0}" = {
"62" = 0;
};
};
};
type = TTDelta;
},
{
horizontal = 1;
origin = (0,11);
settings = {
deltaV = {
"{100, 100, 0, 0, 0, 0}" = {
"62" = 0;
};
};
};
type = TTDelta;
},
{
horizontal = 1;
origin = (0,10);
settings = {
deltaV = {
"{100, 100, 0, 0, 0, 0}" = {
"62" = 0;
};
};
};
type = TTDelta;
},
{
horizontal = 1;
origin = (0,9);
settings = {
deltaV = {
"{100, 100, 0, 0, 0, 0}" = {
"62" = 0;
};
};
};
type = TTDelta;
},
{
horizontal = 1;
origin = (0,8);
settings = {
deltaV = {
"{100, 100, 0, 0, 0, 0}" = {
"62" = 0;
};
};
};
type = TTDelta;
},
{
horizontal = 1;
origin = (0,7);
settings = {
deltaV = {
"{100, 100, 0, 0, 0, 0}" = {
"62" = 0;
};
};
};
type = TTDelta;
},
{
horizontal = 1;
origin = (0,6);
settings = {
deltaV = {
"{100, 100, 0, 0, 0, 0}" = {
"62" = 0;
};
};
};
type = TTDelta;
},
{
horizontal = 1;
origin = (0,5);
settings = {
deltaV = {
"{100, 100, 0, 0, 0, 0}" = {
"62" = 0;
};
};
};
type = TTDelta;
},
{
horizontal = 1;
origin = (0,4);
settings = {
deltaV = {
"{100, 100, 0, 0, 0, 0}" = {
"62" = 0;
};
};
};
type = TTDelta;
},
{
horizontal = 1;
origin = (0,3);
settings = {
deltaV = {
"{100, 100, 0, 0, 0, 0}" = {
"62" = 0;
};
};
};
type = TTDelta;
},
{
horizontal = 1;
origin = (0,2);
settings = {
deltaV = {
"{100, 100, 0, 0, 0, 0}" = {
"62" = 0;
};
};
};
type = TTDelta;
},
{
horizontal = 1;
origin = (0,1);
settings = {
deltaV = {
"{100, 100, 0, 0, 0, 0}" = {
"62" = 0;
};
};
};
type = TTDelta;
},
{
horizontal = 1;
origin = (0,0);
settings = {
deltaV = {
"{100, 100, 0, 0, 0, 0}" = {
"62" = 0;
};
};
};
type = TTDelta;
}
);
layerId = m002;
shapes = (
{
closed = 0;
nodes = (
(400,623,l),
(401,676,o),
(361,700,o),
(311,700,cs),
(236,700,o),
(138,648,o),
(115,565,cs),
(58,355,o),
(458,361,o),
(402,150,cs),
(375,50,o),
(253,0,o),
(165,0,cs),
(126,0,o),
(96,16,o),
(85,31,c)
);
},
{
closed = 0;
nodes = (
(542,230,l),
(490,94,o),
(372,2,o),
(291,0,cs),
(263,-1,o),
(215,-1,o),
(187,0,c)
);
}
);
width = 537;
},
{
hints = (
{
horizontal = 1;
origin = (0,12);
settings = {
deltaV = {
"{100, 100, 0, 0, 0, 0}" = {
"62" = 0;
};
};
};
type = TTDelta;
},
{
horizontal = 1;
origin = (0,11);
settings = {
deltaV = {
"{100, 100, 0, 0, 0, 0}" = {
"62" = 0;
};
};
};
type = TTDelta;
},
{
horizontal = 1;
origin = (0,10);
settings = {
deltaV = {
"{100, 100, 0, 0, 0, 0}" = {
"62" = 0;
};
};
};
type = TTDelta;
},
{
horizontal = 1;
origin = (0,9);
settings = {
deltaV = {
"{100, 100, 0, 0, 0, 0}" = {
"62" = 0;
};
};
};
type = TTDelta;
},
{
horizontal = 1;
origin = (0,8);
settings = {
deltaV = {
"{100, 100, 0, 0, 0, 0}" = {
"62" = 0;
};
};
};
type = TTDelta;
},
{
horizontal = 1;
origin = (0,7);
settings = {
deltaV = {
"{100, 100, 0, 0, 0, 0}" = {
"62" = 0;
};
};
};
type = TTDelta;
},
{
horizontal = 1;
origin = (0,6);
settings = {
deltaV = {
"{100, 100, 0, 0, 0, 0}" = {
"62" = 0;
};
};
};
type = TTDelta;
},
{
horizontal = 1;
origin = (0,5);
settings = {
deltaV = {
"{100, 100, 0, 0, 0, 0}" = {
"62" = 0;
};
};
};
type = TTDelta;
},
{
horizontal = 1;
origin = (0,4);
settings = {
deltaV = {
"{100, 100, 0, 0, 0, 0}" = {
"62" = 0;
};
};
};
type = TTDelta;
},
{
horizontal = 1;
origin = (0,3);
settings = {
deltaV = {
"{100, 100, 0, 0, 0, 0}" = {
"62" = 0;
};
};
};
type = TTDelta;
},
{
horizontal = 1;
origin = (0,2);
settings = {
deltaV = {
"{100, 100, 0, 0, 0, 0}" = {
"62" = 0;
};
};
};
type = TTDelta;
},
{
horizontal = 1;
origin = (0,1);
settings = {
deltaV = {
"{100, 100, 0, 0, 0, 0}" = {
"62" = 0;
};
};
};
type = TTDelta;
},
{
horizontal = 1;
origin = (0,0);
settings = {
deltaV = {
"{100, 100, 0, 0, 0, 0}" = {
"62" = 0;
};
};
};
type = TTDelta;
}
);
layerId = "F3447581-435E-44E2-ABAC-414C89955411";
shapes = (
{
closed = 0;
nodes = (
(400,623,l),
(401,676,o),
(361,700,o),
(311,700,cs),
(236,700,o),
(138,648,o),
(115,565,cs),
(58,355,o),
(458,361,o),
(402,150,cs),
(375,50,o),
(253,0,o),
(165,0,cs),
(126,0,o),
(96,16,o),
(85,31,c)
);
},
{
closed = 0;
nodes = (
(542,230,l),
(490,94,o),
(372,2,o),
(291,0,cs),
(263,-1,o),
(215,-1,o),
(187,0,c)
);
}
);
width = 537;
},
{
hints = (
{
horizontal = 1;
origin = (0,12);
settings = {
deltaV = {
"{100, 100, 0, 0, 0, 0}" = {
"62" = 0;
};
};
};
type = TTDelta;
},
{
horizontal = 1;
origin = (0,11);
settings = {
deltaV = {
"{100, 100, 0, 0, 0, 0}" = {
"62" = 0;
};
};
};
type = TTDelta;
},
{
horizontal = 1;
origin = (0,10);
settings = {
deltaV = {
"{100, 100, 0, 0, 0, 0}" = {
"62" = 0;
};
};
};
type = TTDelta;
},
{
horizontal = 1;
origin = (0,9);
settings = {
deltaV = {
"{100, 100, 0, 0, 0, 0}" = {
"62" = 0;
};
};
};
type = TTDelta;
},
{
horizontal = 1;
origin = (0,8);
settings = {
deltaV = {
"{100, 100, 0, 0, 0, 0}" = {
"62" = 0;
};
};
};
type = TTDelta;
},
{
horizontal = 1;
origin = (0,7);
settings = {
deltaV = {
"{100, 100, 0, 0, 0, 0}" = {
"62" = 0;
};
};
};
type = TTDelta;
},
{
horizontal = 1;
origin = (0,6);
settings = {
deltaV = {
"{100, 100, 0, 0, 0, 0}" = {
"62" = 0;
};
};
};
type = TTDelta;
},
{
horizontal = 1;
origin = (0,5);
settings = {
deltaV = {
"{100, 100, 0, 0, 0, 0}" = {
"62" = 0;
};
};
};
type = TTDelta;
},
{
horizontal = 1;
origin = (0,4);
settings = {
deltaV = {
"{100, 100, 0, 0, 0, 0}" = {
"62" = 0;
};
};
};
type = TTDelta;
},
{
horizontal = 1;
origin = (0,3);
settings = {
deltaV = {
"{100, 100, 0, 0, 0, 0}" = {
"62" = 0;
};
};
};
type = TTDelta;
},
{
horizontal = 1;
origin = (0,2);
settings = {
deltaV = {
"{100, 100, 0, 0, 0, 0}" = {
"62" = 0;
};
};
};
type = TTDelta;
},
{
horizontal = 1;
origin = (0,1);
settings = {
deltaV = {
"{100, 100, 0, 0, 0, 0}" = {
"62" = 0;
};
};
};
type = TTDelta;
},
{
horizontal = 1;
origin = (0,0);
settings = {
deltaV = {
"{100, 100, 0, 0, 0, 0}" = {
"62" = 0;
};
};
};
type = TTDelta;
}
);
layerId = m004;
shapes = (
{
closed = 0;
nodes = (
(400,623,l),
(401,676,o),
(361,700,o),
(311,700,cs),
(236,700,o),
(138,648,o),
(115,565,cs),
(58,355,o),
(458,361,o),
(402,150,cs),
(375,50,o),
(253,0,o),
(165,0,cs),
(126,0,o),
(96,16,o),
(85,31,c)
);
},
{
closed = 0;
nodes = (
(542,230,l),
(490,94,o),
(372,2,o),
(291,0,cs),
(263,-1,o),
(215,-1,o),
(187,0,c)
);
}
);
width = 537;
},
{
hints = (
{
horizontal = 1;
origin = (0,12);
settings = {
deltaV = {
"{100, 100, 0, 0, 0, 0}" = {
"62" = 0;
};
};
};
type = TTDelta;
},
{
horizontal = 1;
origin = (0,11);
settings = {
deltaV = {
"{100, 100, 0, 0, 0, 0}" = {
"62" = 0;
};
};
};
type = TTDelta;
},
{
horizontal = 1;
origin = (0,10);
settings = {
deltaV = {
"{100, 100, 0, 0, 0, 0}" = {
"62" = 0;
};
};
};
type = TTDelta;
},
{
horizontal = 1;
origin = (0,9);
settings = {
deltaV = {
"{100, 100, 0, 0, 0, 0}" = {
"62" = 0;
};
};
};
type = TTDelta;
},
{
horizontal = 1;
origin = (0,8);
settings = {
deltaV = {
"{100, 100, 0, 0, 0, 0}" = {
"62" = 0;
};
};
};
type = TTDelta;
},
{
horizontal = 1;
origin = (0,7);
settings = {
deltaV = {
"{100, 100, 0, 0, 0, 0}" = {
"62" = 0;
};
};
};
type = TTDelta;
},
{
horizontal = 1;
origin = (0,6);
settings = {
deltaV = {
"{100, 100, 0, 0, 0, 0}" = {
"62" = 0;
};
};
};
type = TTDelta;
},
{
horizontal = 1;
origin = (0,5);
settings = {
deltaV = {
"{100, 100, 0, 0, 0, 0}" = {
"62" = 0;
};
};
};
type = TTDelta;
},
{
horizontal = 1;
origin = (0,4);
settings = {
deltaV = {
"{100, 100, 0, 0, 0, 0}" = {
"62" = 0;
};
};
};
type = TTDelta;
},
{
horizontal = 1;
origin = (0,3);
settings = {
deltaV = {
"{100, 100, 0, 0, 0, 0}" = {
"62" = 0;
};
};
};
type = TTDelta;
},
{
horizontal = 1;
origin = (0,2);
settings = {
deltaV = {
"{100, 100, 0, 0, 0, 0}" = {
"62" = 0;
};
};
};
type = TTDelta;
},
{
horizontal = 1;
origin = (0,1);
settings = {
deltaV = {
"{100, 100, 0, 0, 0, 0}" = {
"62" = 0;
};
};
};
type = TTDelta;
},
{
horizontal = 1;
origin = (0,0);
settings = {
deltaV = {
"{100, 100, 0, 0, 0, 0}" = {
"62" = 0;
};
};
};
type = TTDelta;
}
);
layerId = m005;
shapes = (
{
closed = 0;
nodes = (
(400,623,l),
(401,676,o),
(361,700,o),
(311,700,cs),
(236,700,o),
(138,648,o),
(115,565,cs),
(58,355,o),
(458,361,o),
(402,150,cs),
(375,50,o),
(253,0,o),
(165,0,cs),
(126,0,o),
(96,16,o),
(85,31,c)
);
},
{
closed = 0;
nodes = (
(542,230,l),
(490,94,o),
(372,2,o),
(291,0,cs),
(263,-1,o),
(215,-1,o),
(187,0,c)
);
}
);
width = 537;
}
);
},
{
export = 0;
glyphname = T.ss01;
lastChange = "2025-12-15 08:44:23 +0000";
layers = (
{
layerId = "6F9C6BB4-2DCF-443B-A55D-9CE049090094";
shapes = (
{
attr = {
lineCapEnd = 1;
lineCapStart = 1;
strokeWidth = 65;
};
closed = 0;
nodes = (
(392,755,l),
(365,0,l)
);
},
{
attr = {
lineCapEnd = 1;
lineCapStart = 1;
strokeWidth = 65;
};
closed = 0;
nodes = (
(86,757,l),
(213,751,o),
(464,753,o),
(669,768,c)
);
}
);
width = 755;
},
{
layerId = m002;
shapes = (
{
closed = 0;
nodes = (
(353,699,l),
(328,0,l)
);
},
{
closed = 0;
nodes = (
(70,701,l),
(188,695,o),
(420,697,o),
(610,711,c)
);
}
);
width = 680;
},
{
layerId = "F3447581-435E-44E2-ABAC-414C89955411";
shapes = (
{
closed = 0;
nodes = (
(353,699,l),
(328,0,l)
);
},
{
closed = 0;
nodes = (
(70,701,l),
(188,695,o),
(420,697,o),
(610,711,c)
);
}
);
width = 680;
},
{
layerId = m004;
shapes = (
{
closed = 0;
nodes = (
(353,699,l),
(328,0,l)
);
},
{
closed = 0;
nodes = (
(70,701,l),
(188,695,o),
(420,697,o),
(610,711,c)
);
}
);
width = 680;
},
{
layerId = m005;
shapes = (
{
closed = 0;
nodes = (
(353,699,l),
(328,0,l)
);
},
{
closed = 0;
nodes = (
(70,701,l),
(188,695,o),
(420,697,o),
(610,711,c)
);
}
);
width = 680;
}
);
},
{
export = 0;
glyphname = U.ss01;
lastChange = "2025-12-15 08:44:34 +0000";
layers = (
{
layerId = "6F9C6BB4-2DCF-443B-A55D-9CE049090094";
shapes = (
{
attr = {
lineCapEnd = 1;
lineCapStart = 1;
strokeHeight = 60;
strokeWidth = 65;
};
closed = 0;
nodes = (
(827,248,l),
(760,90,o),
(659,0,o),
(621,0,cs),
(585,0,o),
(584,41,o),
(587,129,cs),
(611,756,l)
);
},
{
attr = {
lineCapEnd = 1;
lineCapStart = 1;
strokeHeight = 60;
strokeWidth = 65;
};
closed = 0;
nodes = (
(98,756,l),
(200,756,o),
(206,755,o),
(202,635,cs),
(189,187,ls),
(185,73,o),
(248,0,o),
(326,0,cs),
(408,0,o),
(521,113,o),
(593,248,c)
);
}
);
width = 914;
},
{
layerId = m002;
shapes = (
{
closed = 0;
nodes = (
(757,230,l),
(695,83,o),
(601,0,o),
(566,0,cs),
(533,0,o),
(532,38,o),
(535,119,cs),
(557,700,l)
);
},
{
closed = 0;
nodes = (
(82,700,l),
(176,700,o),
(182,699,o),
(178,588,cs),
(166,173,ls),
(163,68,o),
(221,0,o),
(293,0,cs),
(369,0,o),
(474,105,o),
(540,230,c)
);
}
);
width = 752;
},
{
layerId = "F3447581-435E-44E2-ABAC-414C89955411";
shapes = (
{
closed = 0;
nodes = (
(757,230,l),
(695,83,o),
(601,0,o),
(566,0,cs),
(533,0,o),
(532,38,o),
(535,119,cs),
(557,700,l)
);
},
{
closed = 0;
nodes = (
(82,700,l),
(176,700,o),
(182,699,o),
(178,588,cs),
(166,173,ls),
(163,68,o),
(221,0,o),
(293,0,cs),
(369,0,o),
(474,105,o),
(540,230,c)
);
}
);
width = 752;
},
{
layerId = m004;
shapes = (
{
closed = 0;
nodes = (
(757,230,l),
(695,83,o),
(601,0,o),
(566,0,cs),
(533,0,o),
(532,38,o),
(535,119,cs),
(557,700,l)
);
},
{
closed = 0;
nodes = (
(82,700,l),
(176,700,o),
(182,699,o),
(178,588,cs),
(166,173,ls),
(163,68,o),
(221,0,o),
(293,0,cs),
(369,0,o),
(474,105,o),
(540,230,c)
);
}
);
width = 752;
},
{
layerId = m005;
shapes = (
{
closed = 0;
nodes = (
(757,230,l),
(695,83,o),
(601,0,o),
(566,0,cs),
(533,0,o),
(532,38,o),
(535,119,cs),
(557,700,l)
);
},
{
closed = 0;
nodes = (
(82,700,l),
(176,700,o),
(182,699,o),
(178,588,cs),
(166,173,ls),
(163,68,o),
(221,0,o),
(293,0,cs),
(369,0,o),
(474,105,o),
(540,230,c)
);
}
);
width = 752;
}
);
},
{
export = 0;
glyphname = V.ss01;
lastChange = "2025-12-15 08:44:40 +0000";
layers = (
{
layerId = "6F9C6BB4-2DCF-443B-A55D-9CE049090094";
shapes = (
{
attr = {
lineCapEnd = 1;
lineCapStart = 1;
strokeWidth = 65;
};
closed = 0;
nodes = (
(86,744,l),
(107,751,o),
(215,773,o),
(217,728,cs),
(233,402,o),
(204,0,o),
(270,0,cs),
(344,0,o),
(675,389,o),
(643,653,cs),
(632,747,o),
(391,801,o),
(409,706,cs),
(418,661,o),
(600,599,o),
(764,752,cs)
);
}
);
width = 850;
},
{
layerId = m002;
shapes = (
{
closed = 0;
nodes = (
(71,689,l),
(90,695,o),
(190,716,o),
(192,674,cs),
(207,372,o),
(180,0,o),
(241,0,cs),
(310,0,o),
(616,360,o),
(587,605,cs),
(577,692,o),
(353,742,o),
(370,654,cs),
(378,612,o),
(547,555,o),
(699,696,cs)
);
}
);
width = 699;
},
{
layerId = "F3447581-435E-44E2-ABAC-414C89955411";
shapes = (
{
closed = 0;
nodes = (
(71,689,l),
(90,695,o),
(190,716,o),
(192,674,cs),
(207,372,o),
(180,0,o),
(241,0,cs),
(310,0,o),
(616,360,o),
(587,605,cs),
(577,692,o),
(353,742,o),
(370,654,cs),
(378,612,o),
(547,555,o),
(699,696,cs)
);
}
);
width = 699;
},
{
layerId = m004;
shapes = (
{
closed = 0;
nodes = (
(71,689,l),
(90,695,o),
(190,716,o),
(192,674,cs),
(207,372,o),
(180,0,o),
(241,0,cs),
(310,0,o),
(616,360,o),
(587,605,cs),
(577,692,o),
(353,742,o),
(370,654,cs),
(378,612,o),
(547,555,o),
(699,696,cs)
);
}
);
width = 699;
},
{
layerId = m005;
shapes = (
{
closed = 0;
nodes = (
(71,689,l),
(90,695,o),
(190,716,o),
(192,674,cs),
(207,372,o),
(180,0,o),
(241,0,cs),
(310,0,o),
(616,360,o),
(587,605,cs),
(577,692,o),
(353,742,o),
(370,654,cs),
(378,612,o),
(547,555,o),
(699,696,cs)
);
}
);
width = 699;
}
);
},
{
export = 0;
glyphname = W.ss01;
lastChange = "2025-12-15 08:44:45 +0000";
layers = (
{
layerId = "6F9C6BB4-2DCF-443B-A55D-9CE049090094";
shapes = (
{
attr = {
lineCapEnd = 1;
lineCapStart = 1;
strokeWidth = 65;
};
closed = 0;
nodes = (
(86,744,l),
(107,751,o),
(215,773,o),
(217,728,cs),
(233,402,o),
(204,0,o),
(270,0,cs),
(352,0,o),
(588,400,o),
(588,728,c),
(604,402,o),
(575,0,o),
(641,0,cs),
(705,0,o),
(992,389,o),
(961,653,cs),
(950,747,o),
(708,801,o),
(726,706,cs),
(735,661,o),
(918,599,o),
(1082,752,c)
);
}
);
width = 1168;
},
{
layerId = m002;
shapes = (
{
closed = 0;
nodes = (
(71,689,l),
(90,695,o),
(190,716,o),
(192,674,cs),
(207,372,o),
(180,0,o),
(241,0,cs),
(317,0,o),
(536,370,o),
(536,674,c),
(551,372,o),
(524,0,o),
(585,0,cs),
(644,0,o),
(910,360,o),
(881,605,cs),
(871,692,o),
(647,742,o),
(664,654,cs),
(672,612,o),
(841,555,o),
(993,696,c)
);
}
);
width = 993;
},
{
layerId = "F3447581-435E-44E2-ABAC-414C89955411";
shapes = (
{
closed = 0;
nodes = (
(71,689,l),
(90,695,o),
(190,716,o),
(192,674,cs),
(207,372,o),
(180,0,o),
(241,0,cs),
(317,0,o),
(536,370,o),
(536,674,c),
(551,372,o),
(524,0,o),
(585,0,cs),
(644,0,o),
(910,360,o),
(881,605,cs),
(871,692,o),
(647,742,o),
(664,654,cs),
(672,612,o),
(841,555,o),
(993,696,c)
);
}
);
width = 993;
},
{
layerId = m004;
shapes = (
{
closed = 0;
nodes = (
(71,689,l),
(90,695,o),
(190,716,o),
(192,674,cs),
(207,372,o),
(180,0,o),
(241,0,cs),
(317,0,o),
(536,370,o),
(536,674,c),
(551,372,o),
(524,0,o),
(585,0,cs),
(644,0,o),
(910,360,o),
(881,605,cs),
(871,692,o),
(647,742,o),
(664,654,cs),
(672,612,o),
(841,555,o),
(993,696,c)
);
}
);
width = 993;
},
{
layerId = m005;
shapes = (
{
closed = 0;
nodes = (
(71,689,l),
(90,695,o),
(190,716,o),
(192,674,cs),
(207,372,o),
(180,0,o),
(241,0,cs),
(317,0,o),
(536,370,o),
(536,674,c),
(551,372,o),
(524,0,o),
(585,0,cs),
(644,0,o),
(910,360,o),
(881,605,cs),
(871,692,o),
(647,742,o),
(664,654,cs),
(672,612,o),
(841,555,o),
(993,696,c)
);
}
);
width = 993;
}
);
},
{
export = 0;
glyphname = X.ss01;
lastChange = "2025-12-15 08:44:51 +0000";
layers = (
{
layerId = "6F9C6BB4-2DCF-443B-A55D-9CE049090094";
shapes = (
{
attr = {
lineCapEnd = 1;
lineCapStart = 1;
strokeWidth = 65;
};
closed = 0;
nodes = (
(156,0,l),
(643,756,l)
);
},
{
attr = {
lineCapEnd = 1;
lineCapStart = 1;
strokeWidth = 65;
};
closed = 0;
nodes = (
(866,248,l),
(799,90,o),
(697,0,o),
(659,0,cs),
(616,0,o),
(344,475,o),
(200,724,cs),
(181,756,o),
(162,756,o),
(86,757,c)
);
}
);
width = 953;
},
{
layerId = m002;
shapes = (
{
closed = 0;
nodes = (
(136,0,l),
(587,700,l)
);
},
{
closed = 0;
nodes = (
(793,230,l),
(731,83,o),
(637,0,o),
(602,0,cs),
(562,0,o),
(310,440,o),
(177,670,cs),
(159,700,o),
(141,700,o),
(71,701,c)
);
}
);
width = 788;
},
{
layerId = "F3447581-435E-44E2-ABAC-414C89955411";
shapes = (
{
closed = 0;
nodes = (
(136,0,l),
(587,700,l)
);
},
{
closed = 0;
nodes = (
(793,230,l),
(731,83,o),
(637,0,o),
(602,0,cs),
(562,0,o),
(310,440,o),
(177,670,cs),
(159,700,o),
(141,700,o),
(71,701,c)
);
}
);
width = 788;
},
{
layerId = m004;
shapes = (
{
closed = 0;
nodes = (
(136,0,l),
(587,700,l)
);
},
{
closed = 0;
nodes = (
(793,230,l),
(731,83,o),
(637,0,o),
(602,0,cs),
(562,0,o),
(310,440,o),
(177,670,cs),
(159,700,o),
(141,700,o),
(71,701,c)
);
}
);
width = 788;
},
{
layerId = m005;
shapes = (
{
closed = 0;
nodes = (
(136,0,l),
(587,700,l)
);
},
{
closed = 0;
nodes = (
(793,230,l),
(731,83,o),
(637,0,o),
(602,0,cs),
(562,0,o),
(310,440,o),
(177,670,cs),
(159,700,o),
(141,700,o),
(71,701,c)
);
}
);
width = 788;
}
);
},
{
export = 0;
glyphname = Y.ss01;
lastChange = "2025-12-15 08:44:56 +0000";
layers = (
{
layerId = "6F9C6BB4-2DCF-443B-A55D-9CE049090094";
shapes = (
{
attr = {
lineCapEnd = 1;
lineCapStart = 1;
strokeWidth = 65;
};
closed = 0;
nodes = (
(588,415,l),
(602,782,l)
);
},
{
attr = {
lineCapEnd = 1;
lineCapStart = 1;
strokeWidth = 65;
};
closed = 0;
nodes = (
(89,782,l),
(191,782,o),
(196,781,o),
(193,661,cs),
(180,213,ls),
(176,99,o),
(184,26,o),
(262,26,cs),
(344,26,o),
(515,233,o),
(586,368,c)
);
},
{
attr = {
lineCapEnd = 1;
lineCapStart = 1;
strokeWidth = 65;
};
closed = 0;
nodes = (
(588,415,l),
(565,-233,ls),
(563,-297,o),
(548,-324,o),
(516,-324,cs),
(480,-324,o),
(451,-292,o),
(451,-238,cs),
(451,-153,o),
(520,-81,o),
(628,48,cs),
(692,123,o),
(761,206,o),
(791,274,c)
);
}
);
width = 878;
},
{
layerId = m002;
shapes = (
{
closed = 0;
nodes = (
(543,360,l),
(556,700,l)
);
},
{
closed = 0;
nodes = (
(81,700,l),
(175,700,o),
(180,699,o),
(177,588,cs),
(165,173,ls),
(162,68,o),
(169,0,o),
(241,0,cs),
(317,0,o),
(475,192,o),
(541,317,c)
);
},
{
closed = 0;
nodes = (
(543,360,l),
(522,-240,ls),
(520,-299,o),
(506,-324,o),
(476,-324,cs),
(443,-324,o),
(416,-294,o),
(416,-244,cs),
(416,-166,o),
(480,-99,o),
(580,20,cs),
(639,90,o),
(703,167,o),
(731,230,c)
);
}
);
width = 726;
},
{
layerId = "F3447581-435E-44E2-ABAC-414C89955411";
shapes = (
{
closed = 0;
nodes = (
(543,360,l),
(556,700,l)
);
},
{
closed = 0;
nodes = (
(81,700,l),
(175,700,o),
(180,699,o),
(177,588,cs),
(165,173,ls),
(162,68,o),
(169,0,o),
(241,0,cs),
(317,0,o),
(475,192,o),
(541,317,c)
);
},
{
closed = 0;
nodes = (
(543,360,l),
(522,-240,ls),
(520,-299,o),
(506,-324,o),
(476,-324,cs),
(443,-324,o),
(416,-294,o),
(416,-244,cs),
(416,-166,o),
(480,-99,o),
(580,20,cs),
(639,90,o),
(703,167,o),
(731,230,c)
);
}
);
width = 726;
},
{
layerId = m004;
shapes = (
{
closed = 0;
nodes = (
(543,360,l),
(556,700,l)
);
},
{
closed = 0;
nodes = (
(81,700,l),
(175,700,o),
(180,699,o),
(177,588,cs),
(165,173,ls),
(162,68,o),
(169,0,o),
(241,0,cs),
(317,0,o),
(475,192,o),
(541,317,c)
);
},
{
closed = 0;
nodes = (
(543,360,l),
(522,-240,ls),
(520,-299,o),
(506,-324,o),
(476,-324,cs),
(443,-324,o),
(416,-294,o),
(416,-244,cs),
(416,-166,o),
(480,-99,o),
(580,20,cs),
(639,90,o),
(703,167,o),
(731,230,c)
);
}
);
width = 726;
},
{
layerId = m005;
shapes = (
{
closed = 0;
nodes = (
(543,360,l),
(556,700,l)
);
},
{
closed = 0;
nodes = (
(81,700,l),
(175,700,o),
(180,699,o),
(177,588,cs),
(165,173,ls),
(162,68,o),
(169,0,o),
(241,0,cs),
(317,0,o),
(475,192,o),
(541,317,c)
);
},
{
closed = 0;
nodes = (
(543,360,l),
(522,-240,ls),
(520,-299,o),
(506,-324,o),
(476,-324,cs),
(443,-324,o),
(416,-294,o),
(416,-244,cs),
(416,-166,o),
(480,-99,o),
(580,20,cs),
(639,90,o),
(703,167,o),
(731,230,c)
);
}
);
width = 726;
}
);
},
{
export = 0;
glyphname = Z.ss01;
lastChange = "2025-12-15 08:45:03 +0000";
layers = (
{
layerId = "6F9C6BB4-2DCF-443B-A55D-9CE049090094";
shapes = (
{
attr = {
lineCapEnd = 1;
lineCapStart = 1;
strokeWidth = 65;
};
closed = 0;
nodes = (
(735,252,l),
(668,93,o),
(568,-1,o),
(529,-1,cs),
(479,-1,o),
(409,10,o),
(329,10,cs),
(250,10,o),
(175,10,o),
(89,3,c)
);
},
{
attr = {
lineCapEnd = 1;
lineCapStart = 1;
strokeWidth = 65;
};
closed = 0;
nodes = (
(703,802,l),
(57,-40,l)
);
},
{
attr = {
lineCapEnd = 1;
lineCapStart = 1;
strokeWidth = 65;
};
closed = 0;
nodes = (
(162,759,l),
(273,744,o),
(491,746,o),
(670,759,c)
);
}
);
width = 822;
},
{
layerId = m002;
shapes = (
{
closed = 0;
nodes = (
(679,230,l),
(617,83,o),
(524,-4,o),
(488,-4,cs),
(442,-4,o),
(377,6,o),
(303,6,cs),
(230,6,o),
(160,6,o),
(81,0,c)
);
},
{
closed = 0;
nodes = (
(649,740,l),
(51,-40,l)
);
},
{
closed = 0;
nodes = (
(148,700,l),
(251,686,o),
(453,688,o),
(619,700,c)
);
}
);
width = 674;
},
{
layerId = "F3447581-435E-44E2-ABAC-414C89955411";
shapes = (
{
closed = 0;
nodes = (
(679,230,l),
(617,83,o),
(524,-4,o),
(488,-4,cs),
(442,-4,o),
(377,6,o),
(303,6,cs),
(230,6,o),
(160,6,o),
(81,0,c)
);
},
{
closed = 0;
nodes = (
(649,740,l),
(51,-40,l)
);
},
{
closed = 0;
nodes = (
(148,700,l),
(251,686,o),
(453,688,o),
(619,700,c)
);
}
);
width = 674;
},
{
layerId = m004;
shapes = (
{
closed = 0;
nodes = (
(679,230,l),
(617,83,o),
(524,-4,o),
(488,-4,cs),
(442,-4,o),
(377,6,o),
(303,6,cs),
(230,6,o),
(160,6,o),
(81,0,c)
);
},
{
closed = 0;
nodes = (
(649,740,l),
(51,-40,l)
);
},
{
closed = 0;
nodes = (
(148,700,l),
(251,686,o),
(453,688,o),
(619,700,c)
);
}
);
width = 674;
},
{
layerId = m005;
shapes = (
{
closed = 0;
nodes = (
(679,230,l),
(617,83,o),
(524,-4,o),
(488,-4,cs),
(442,-4,o),
(377,6,o),
(303,6,cs),
(230,6,o),
(160,6,o),
(81,0,c)
);
},
{
closed = 0;
nodes = (
(649,740,l),
(51,-40,l)
);
},
{
closed = 0;
nodes = (
(148,700,l),
(251,686,o),
(453,688,o),
(619,700,c)
);
}
);
width = 674;
}
);
},
{
export = 0;
glyphname = A.ss02;
lastChange = "2025-12-15 08:39:03 +0000";
layers = (
{
layerId = "6F9C6BB4-2DCF-443B-A55D-9CE049090094";
shapes = (
{
closed = 0;
nodes = (
(464,756,l),
(542,204,o),
(547,0,o),
(609,0,cs)
);
},
{
closed = 0;
nodes = (
(213,246,l),
(535,246,l)
);
},
{
closed = 0;
nodes = (
(464,756,l),
(87,0,ls)
);
},
{
closed = 0;
nodes = (
(723,162,ls),
(692,54,o),
(645,0,o),
(609,0,c)
);
}
);
width = 811;
},
{
layerId = m002;
shapes = (
{
closed = 0;
nodes = (
(385,700,l),
(457,189,o),
(462,0,o),
(519,0,cs)
);
},
{
closed = 0;
nodes = (
(153,228,l),
(451,228,l)
);
},
{
closed = 0;
nodes = (
(385,700,l),
(36,0,ls)
);
},
{
closed = 0;
nodes = (
(625,150,ls),
(596,50,o),
(553,0,o),
(519,0,c)
);
}
);
width = 625;
},
{
layerId = "F3447581-435E-44E2-ABAC-414C89955411";
shapes = (
{
closed = 0;
nodes = (
(385,700,l),
(457,189,o),
(462,0,o),
(519,0,cs)
);
},
{
closed = 0;
nodes = (
(153,228,l),
(451,228,l)
);
},
{
closed = 0;
nodes = (
(385,700,l),
(36,0,ls)
);
},
{
closed = 0;
nodes = (
(625,150,ls),
(596,50,o),
(553,0,o),
(519,0,c)
);
}
);
width = 625;
},
{
layerId = m004;
shapes = (
{
closed = 0;
nodes = (
(385,700,l),
(457,189,o),
(462,0,o),
(519,0,cs)
);
},
{
closed = 0;
nodes = (
(153,228,l),
(451,228,l)
);
},
{
closed = 0;
nodes = (
(385,700,l),
(36,0,ls)
);
},
{
closed = 0;
nodes = (
(625,150,ls),
(596,50,o),
(553,0,o),
(519,0,c)
);
}
);
width = 625;
},
{
layerId = m005;
shapes = (
{
closed = 0;
nodes = (
(385,700,l),
(457,189,o),
(462,0,o),
(519,0,cs)
);
},
{
closed = 0;
nodes = (
(153,228,l),
(451,228,l)
);
},
{
closed = 0;
nodes = (
(385,700,l),
(36,0,ls)
);
},
{
closed = 0;
nodes = (
(625,150,ls),
(596,50,o),
(553,0,o),
(519,0,c)
);
}
);
width = 625;
}
);
},
{
export = 0;
glyphname = B.ss02;
lastChange = "2025-12-15 08:39:03 +0000";
layers = (
{
layerId = "6F9C6BB4-2DCF-443B-A55D-9CE049090094";
shapes = (
{
closed = 0;
nodes = (
(112,756,l),
(390,756,l),
(442,756,o),
(542,752,o),
(542,617,cs),
(542,449,o),
(355,389,o),
(285,389,c)
);
},
{
closed = 0;
nodes = (
(300,389,l),
(476,416,o),
(563,379,o),
(563,238,cs),
(563,55,o),
(388,0,o),
(222,0,cs),
(193,0,o),
(191,13,o),
(192,42,cs),
(220,756,l)
);
}
);
width = 660;
},
{
layerId = m002;
shapes = (
{
closed = 0;
nodes = (
(57,700,l),
(314,700,l),
(363,700,o),
(455,696,o),
(455,571,cs),
(455,416,o),
(282,360,o),
(217,360,c)
);
},
{
closed = 0;
nodes = (
(231,360,l),
(394,385,o),
(475,351,o),
(475,220,cs),
(475,51,o),
(313,0,o),
(159,0,cs),
(132,0,o),
(130,12,o),
(131,39,cs),
(157,700,l)
);
}
);
width = 519;
},
{
layerId = "F3447581-435E-44E2-ABAC-414C89955411";
shapes = (
{
closed = 0;
nodes = (
(57,700,l),
(314,700,l),
(363,700,o),
(455,696,o),
(455,571,cs),
(455,416,o),
(282,360,o),
(217,360,c)
);
},
{
closed = 0;
nodes = (
(231,360,l),
(394,385,o),
(475,351,o),
(475,220,cs),
(475,51,o),
(313,0,o),
(159,0,cs),
(132,0,o),
(130,12,o),
(131,39,cs),
(157,700,l)
);
}
);
width = 519;
},
{
layerId = m004;
shapes = (
{
closed = 0;
nodes = (
(57,700,l),
(314,700,l),
(363,700,o),
(455,696,o),
(455,571,cs),
(455,416,o),
(282,360,o),
(217,360,c)
);
},
{
closed = 0;
nodes = (
(231,360,l),
(394,385,o),
(475,351,o),
(475,220,cs),
(475,51,o),
(313,0,o),
(159,0,cs),
(132,0,o),
(130,12,o),
(131,39,cs),
(157,700,l)
);
}
);
width = 519;
},
{
layerId = m005;
shapes = (
{
closed = 0;
nodes = (
(57,700,l),
(314,700,l),
(363,700,o),
(455,696,o),
(455,571,cs),
(455,416,o),
(282,360,o),
(217,360,c)
);
},
{
closed = 0;
nodes = (
(231,360,l),
(394,385,o),
(475,351,o),
(475,220,cs),
(475,51,o),
(313,0,o),
(159,0,cs),
(132,0,o),
(130,12,o),
(131,39,cs),
(157,700,l)
);
}
);
width = 519;
}
);
},
{
export = 0;
glyphname = C.ss02;
lastChange = "2025-12-15 08:39:03 +0000";
layers = (
{
layerId = "6F9C6BB4-2DCF-443B-A55D-9CE049090094";
shapes = (
{
closed = 0;
nodes = (
(510,733,l),
(460,746,o),
(373,756,o),
(335,756,cs),
(154,756,o),
(104,607,o),
(104,352,cs),
(104,86,o),
(203,0,o),
(315,0,cs),
(422,0,o),
(540,80,o),
(591,162,cs)
);
}
);
width = 678;
},
{
layerId = m002;
shapes = (
{
closed = 0;
nodes = (
(427,679,l),
(381,691,o),
(300,700,o),
(265,700,cs),
(97,700,o),
(51,562,o),
(51,326,cs),
(51,80,o),
(143,0,o),
(246,0,cs),
(345,0,o),
(455,74,o),
(502,150,cs)
);
}
);
width = 502;
},
{
layerId = "F3447581-435E-44E2-ABAC-414C89955411";
shapes = (
{
closed = 0;
nodes = (
(427,679,l),
(381,691,o),
(300,700,o),
(265,700,cs),
(97,700,o),
(51,562,o),
(51,326,cs),
(51,80,o),
(143,0,o),
(246,0,cs),
(345,0,o),
(455,74,o),
(502,150,cs)
);
}
);
width = 502;
},
{
layerId = m004;
shapes = (
{
closed = 0;
nodes = (
(427,679,l),
(381,691,o),
(300,700,o),
(265,700,cs),
(97,700,o),
(51,562,o),
(51,326,cs),
(51,80,o),
(143,0,o),
(246,0,cs),
(345,0,o),
(455,74,o),
(502,150,cs)
);
}
);
width = 502;
},
{
layerId = m005;
shapes = (
{
closed = 0;
nodes = (
(427,679,l),
(381,691,o),
(300,700,o),
(265,700,cs),
(97,700,o),
(51,562,o),
(51,326,cs),
(51,80,o),
(143,0,o),
(246,0,cs),
(345,0,o),
(455,74,o),
(502,150,cs)
);
}
);
width = 502;
}
);
},
{
export = 0;
glyphname = D.ss02;
lastChange = "2025-12-15 08:39:03 +0000";
layers = (
{
layerId = "6F9C6BB4-2DCF-443B-A55D-9CE049090094";
shapes = (
{
closed = 0;
nodes = (
(112,756,l),
(390,756,l),
(604,756,o),
(700,624,o),
(700,470,cs),
(700,256,o),
(516,0,o),
(222,0,cs),
(193,0,o),
(191,13,o),
(192,42,cs),
(220,756,l)
);
}
);
width = 796;
},
{
layerId = m002;
shapes = (
{
closed = 0;
nodes = (
(57,700,l),
(314,700,l),
(513,700,o),
(601,578,o),
(601,435,cs),
(601,237,o),
(431,0,o),
(159,0,cs),
(132,0,o),
(130,12,o),
(131,39,cs),
(157,700,l)
);
}
);
width = 645;
},
{
layerId = "F3447581-435E-44E2-ABAC-414C89955411";
shapes = (
{
closed = 0;
nodes = (
(57,700,l),
(314,700,l),
(513,700,o),
(601,578,o),
(601,435,cs),
(601,237,o),
(431,0,o),
(159,0,cs),
(132,0,o),
(130,12,o),
(131,39,cs),
(157,700,l)
);
}
);
width = 645;
},
{
layerId = m004;
shapes = (
{
closed = 0;
nodes = (
(57,700,l),
(314,700,l),
(513,700,o),
(601,578,o),
(601,435,cs),
(601,237,o),
(431,0,o),
(159,0,cs),
(132,0,o),
(130,12,o),
(131,39,cs),
(157,700,l)
);
}
);
width = 645;
},
{
layerId = m005;
shapes = (
{
closed = 0;
nodes = (
(57,700,l),
(314,700,l),
(513,700,o),
(601,578,o),
(601,435,cs),
(601,237,o),
(431,0,o),
(159,0,cs),
(132,0,o),
(130,12,o),
(131,39,cs),
(157,700,l)
);
}
);
width = 645;
}
);
},
{
export = 0;
glyphname = E.ss02;
lastChange = "2025-12-15 08:39:03 +0000";
layers = (
{
layerId = "6F9C6BB4-2DCF-443B-A55D-9CE049090094";
shapes = (
{
closed = 0;
nodes = (
(112,756,l),
(523,756,l)
);
},
{
closed = 0;
nodes = (
(511,0,l),
(222,0,l),
(193,0,o),
(191,13,o),
(192,42,cs),
(220,756,l)
);
},
{
closed = 0;
nodes = (
(203,372,l),
(480,372,l)
);
}
);
width = 634;
},
{
layerId = m002;
shapes = (
{
closed = 0;
nodes = (
(57,700,l),
(438,700,l)
);
},
{
closed = 0;
nodes = (
(426,0,l),
(159,0,l),
(132,0,o),
(130,12,o),
(131,39,cs),
(157,700,l)
);
},
{
closed = 0;
nodes = (
(141,344,l),
(398,344,l)
);
}
);
width = 494;
},
{
layerId = "F3447581-435E-44E2-ABAC-414C89955411";
shapes = (
{
closed = 0;
nodes = (
(57,700,l),
(438,700,l)
);
},
{
closed = 0;
nodes = (
(426,0,l),
(159,0,l),
(132,0,o),
(130,12,o),
(131,39,cs),
(157,700,l)
);
},
{
closed = 0;
nodes = (
(141,344,l),
(398,344,l)
);
}
);
width = 494;
},
{
layerId = m004;
shapes = (
{
closed = 0;
nodes = (
(57,700,l),
(438,700,l)
);
},
{
closed = 0;
nodes = (
(426,0,l),
(159,0,l),
(132,0,o),
(130,12,o),
(131,39,cs),
(157,700,l)
);
},
{
closed = 0;
nodes = (
(141,344,l),
(398,344,l)
);
}
);
width = 494;
},
{
layerId = m005;
shapes = (
{
closed = 0;
nodes = (
(57,700,l),
(438,700,l)
);
},
{
closed = 0;
nodes = (
(426,0,l),
(159,0,l),
(132,0,o),
(130,12,o),
(131,39,cs),
(157,700,l)
);
},
{
closed = 0;
nodes = (
(141,344,l),
(398,344,l)
);
}
);
width = 494;
}
);
},
{
export = 0;
glyphname = F.ss02;
lastChange = "2025-12-15 08:39:03 +0000";
layers = (
{
layerId = "6F9C6BB4-2DCF-443B-A55D-9CE049090094";
shapes = (
{
closed = 0;
nodes = (
(111,756,l),
(522,756,l)
);
},
{
closed = 0;
nodes = (
(202,361,l),
(479,361,l)
);
},
{
closed = 0;
nodes = (
(219,757,l),
(191,0,l)
);
}
);
width = 634;
},
{
layerId = m002;
shapes = (
{
closed = 0;
nodes = (
(57,700,l),
(438,700,l)
);
},
{
closed = 0;
nodes = (
(141,334,l),
(398,334,l)
);
},
{
closed = 0;
nodes = (
(157,701,l),
(131,0,l)
);
}
);
width = 495;
},
{
layerId = "F3447581-435E-44E2-ABAC-414C89955411";
shapes = (
{
closed = 0;
nodes = (
(57,700,l),
(438,700,l)
);
},
{
closed = 0;
nodes = (
(141,334,l),
(398,334,l)
);
},
{
closed = 0;
nodes = (
(157,701,l),
(131,0,l)
);
}
);
width = 495;
},
{
layerId = m004;
shapes = (
{
closed = 0;
nodes = (
(57,700,l),
(438,700,l)
);
},
{
closed = 0;
nodes = (
(141,334,l),
(398,334,l)
);
},
{
closed = 0;
nodes = (
(157,701,l),
(131,0,l)
);
}
);
width = 495;
},
{
layerId = m005;
shapes = (
{
closed = 0;
nodes = (
(57,700,l),
(438,700,l)
);
},
{
closed = 0;
nodes = (
(141,334,l),
(398,334,l)
);
},
{
closed = 0;
nodes = (
(157,701,l),
(131,0,l)
);
}
);
width = 495;
}
);
},
{
export = 0;
glyphname = G.ss02;
lastChange = "2025-12-15 08:39:03 +0000";
layers = (
{
layerId = "6F9C6BB4-2DCF-443B-A55D-9CE049090094";
shapes = (
{
closed = 0;
nodes = (
(687,191,l),
(673,123,o),
(404,1,o),
(404,-236,cs),
(404,-302,o),
(428,-347,o),
(470,-347,cs),
(526,-347,o),
(527,-280,o),
(527,-85,cs),
(527,418,l),
(364,418,l)
);
},
{
closed = 0;
nodes = (
(510,761,l),
(460,774,o),
(373,784,o),
(335,784,cs),
(154,784,o),
(104,635,o),
(104,380,cs),
(104,114,o),
(203,28,o),
(315,28,cs),
(422,28,o),
(527,194,o),
(527,319,cs)
);
}
);
width = 774;
},
{
layerId = m002;
shapes = (
{
closed = 0;
nodes = (
(591,151,l),
(578,88,o),
(329,-25,o),
(329,-244,cs),
(329,-305,o),
(351,-347,o),
(390,-347,cs),
(442,-347,o),
(443,-285,o),
(443,-104,cs),
(443,361,l),
(292,361,l)
);
},
{
closed = 0;
nodes = (
(427,679,l),
(381,691,o),
(300,700,o),
(265,700,cs),
(97,700,o),
(51,562,o),
(51,326,cs),
(51,80,o),
(143,0,o),
(246,0,cs),
(345,0,o),
(443,154,o),
(443,270,cs)
);
}
);
width = 591;
},
{
layerId = "F3447581-435E-44E2-ABAC-414C89955411";
shapes = (
{
closed = 0;
nodes = (
(591,151,l),
(578,88,o),
(329,-25,o),
(329,-244,cs),
(329,-305,o),
(351,-347,o),
(390,-347,cs),
(442,-347,o),
(443,-285,o),
(443,-104,cs),
(443,361,l),
(292,361,l)
);
},
{
closed = 0;
nodes = (
(427,679,l),
(381,691,o),
(300,700,o),
(265,700,cs),
(97,700,o),
(51,562,o),
(51,326,cs),
(51,80,o),
(143,0,o),
(246,0,cs),
(345,0,o),
(443,154,o),
(443,270,cs)
);
}
);
width = 591;
},
{
layerId = m004;
shapes = (
{
closed = 0;
nodes = (
(591,151,l),
(578,88,o),
(329,-25,o),
(329,-244,cs),
(329,-305,o),
(351,-347,o),
(390,-347,cs),
(442,-347,o),
(443,-285,o),
(443,-104,cs),
(443,361,l),
(292,361,l)
);
},
{
closed = 0;
nodes = (
(427,679,l),
(381,691,o),
(300,700,o),
(265,700,cs),
(97,700,o),
(51,562,o),
(51,326,cs),
(51,80,o),
(143,0,o),
(246,0,cs),
(345,0,o),
(443,154,o),
(443,270,cs)
);
}
);
width = 591;
},
{
layerId = m005;
shapes = (
{
closed = 0;
nodes = (
(591,151,l),
(578,88,o),
(329,-25,o),
(329,-244,cs),
(329,-305,o),
(351,-347,o),
(390,-347,cs),
(442,-347,o),
(443,-285,o),
(443,-104,cs),
(443,361,l),
(292,361,l)
);
},
{
closed = 0;
nodes = (
(427,679,l),
(381,691,o),
(300,700,o),
(265,700,cs),
(97,700,o),
(51,562,o),
(51,326,cs),
(51,80,o),
(143,0,o),
(246,0,cs),
(345,0,o),
(443,154,o),
(443,270,cs)
);
}
);
width = 591;
}
);
},
{
export = 0;
glyphname = H.ss02;
lastChange = "2025-12-15 08:39:03 +0000";
layers = (
{
layerId = "6F9C6BB4-2DCF-443B-A55D-9CE049090094";
shapes = (
{
closed = 0;
nodes = (
(113,346,l),
(671,346,l)
);
},
{
closed = 0;
nodes = (
(235,756,l),
(211,0,l)
);
},
{
closed = 0;
nodes = (
(858,162,ls),
(794,54,o),
(733,0,o),
(696,0,cs),
(661,0,o),
(659,41,o),
(663,129,cs),
(686,756,l)
);
}
);
width = 945;
},
{
layerId = m002;
shapes = (
{
closed = 0;
nodes = (
(59,320,l),
(576,320,l)
);
},
{
closed = 0;
nodes = (
(172,700,l),
(150,0,l)
);
},
{
closed = 0;
nodes = (
(749,150,ls),
(690,50,o),
(633,0,o),
(599,0,cs),
(566,0,o),
(565,38,o),
(568,119,cs),
(590,700,l)
);
}
);
width = 749;
},
{
layerId = "F3447581-435E-44E2-ABAC-414C89955411";
shapes = (
{
closed = 0;
nodes = (
(59,320,l),
(576,320,l)
);
},
{
closed = 0;
nodes = (
(172,700,l),
(150,0,l)
);
},
{
closed = 0;
nodes = (
(749,150,ls),
(690,50,o),
(633,0,o),
(599,0,cs),
(566,0,o),
(565,38,o),
(568,119,cs),
(590,700,l)
);
}
);
width = 749;
},
{
layerId = m004;
shapes = (
{
closed = 0;
nodes = (
(59,320,l),
(576,320,l)
);
},
{
closed = 0;
nodes = (
(172,700,l),
(150,0,l)
);
},
{
closed = 0;
nodes = (
(749,150,ls),
(690,50,o),
(633,0,o),
(599,0,cs),
(566,0,o),
(565,38,o),
(568,119,cs),
(590,700,l)
);
}
);
width = 749;
},
{
layerId = m005;
shapes = (
{
closed = 0;
nodes = (
(59,320,l),
(576,320,l)
);
},
{
closed = 0;
nodes = (
(172,700,l),
(150,0,l)
);
},
{
closed = 0;
nodes = (
(749,150,ls),
(690,50,o),
(633,0,o),
(599,0,cs),
(566,0,o),
(565,38,o),
(568,119,cs),
(590,700,l)
);
}
);
width = 749;
}
);
},
{
export = 0;
glyphname = I.ss02;
lastChange = "2025-12-15 08:39:03 +0000";
layers = (
{
layerId = "6F9C6BB4-2DCF-443B-A55D-9CE049090094";
shapes = (
{
closed = 0;
nodes = (
(96,184,l),
(69,70,o),
(157,0,o),
(242,0,cs),
(327,0,o),
(410,70,o),
(415,229,cs),
(434,756,l),
(324,742,o),
(205,742,o),
(147,756,c)
);
}
);
width = 543;
},
{
layerId = m002;
shapes = (
{
closed = 0;
nodes = (
(44,170,l),
(19,65,o),
(100,0,o),
(179,0,cs),
(258,0,o),
(334,65,o),
(339,212,cs),
(357,700,l),
(255,687,o),
(145,687,o),
(91,700,c)
);
}
);
width = 411;
},
{
layerId = "F3447581-435E-44E2-ABAC-414C89955411";
shapes = (
{
closed = 0;
nodes = (
(44,170,l),
(19,65,o),
(100,0,o),
(179,0,cs),
(258,0,o),
(334,65,o),
(339,212,cs),
(357,700,l),
(255,687,o),
(145,687,o),
(91,700,c)
);
}
);
width = 411;
},
{
layerId = m004;
shapes = (
{
closed = 0;
nodes = (
(44,170,l),
(19,65,o),
(100,0,o),
(179,0,cs),
(258,0,o),
(334,65,o),
(339,212,cs),
(357,700,l),
(255,687,o),
(145,687,o),
(91,700,c)
);
}
);
width = 411;
},
{
layerId = m005;
shapes = (
{
closed = 0;
nodes = (
(44,170,l),
(19,65,o),
(100,0,o),
(179,0,cs),
(258,0,o),
(334,65,o),
(339,212,cs),
(357,700,l),
(255,687,o),
(145,687,o),
(91,700,c)
);
}
);
width = 411;
}
);
},
{
export = 0;
glyphname = J.ss02;
lastChange = "2025-12-15 08:39:03 +0000";
layers = (
{
anchors = (
{
name = bottom;
pos = (234,28);
},
{
name = top;
pos = (234,730);
}
);
layerId = "6F9C6BB4-2DCF-443B-A55D-9CE049090094";
shapes = (
{
closed = 0;
nodes = (
(420,191,l),
(406,123,o),
(137,1,o),
(137,-236,cs),
(137,-302,o),
(161,-347,o),
(203,-347,cs),
(259,-347,o),
(262,-280,o),
(260,-85,cs),
(258,83,o),
(252,250,o),
(260,418,cs),
(277,784,l),
(277,784,o),
(238,274,o),
(86,166,c)
);
}
);
width = 507;
},
{
anchors = (
{
name = bottom;
pos = (173,0);
},
{
name = top;
pos = (173,650);
}
);
layerId = m002;
shapes = (
{
closed = 0;
nodes = (
(345,151,l),
(332,88,o),
(83,-25,o),
(83,-244,cs),
(83,-305,o),
(105,-347,o),
(144,-347,cs),
(196,-347,o),
(199,-285,o),
(197,-104,cs),
(195,51,o),
(190,206,o),
(197,361,cs),
(213,700,l),
(213,700,o),
(177,228,o),
(36,128,c)
);
}
);
width = 345;
},
{
anchors = (
{
name = bottom;
pos = (173,0);
},
{
name = top;
pos = (173,650);
}
);
layerId = "F3447581-435E-44E2-ABAC-414C89955411";
shapes = (
{
closed = 0;
nodes = (
(345,151,l),
(332,88,o),
(83,-25,o),
(83,-244,cs),
(83,-305,o),
(105,-347,o),
(144,-347,cs),
(196,-347,o),
(199,-285,o),
(197,-104,cs),
(195,51,o),
(190,206,o),
(197,361,cs),
(213,700,l),
(213,700,o),
(177,228,o),
(36,128,c)
);
}
);
width = 345;
},
{
anchors = (
{
name = bottom;
pos = (173,0);
},
{
name = top;
pos = (173,650);
}
);
layerId = m004;
shapes = (
{
closed = 0;
nodes = (
(345,151,l),
(332,88,o),
(83,-25,o),
(83,-244,cs),
(83,-305,o),
(105,-347,o),
(144,-347,cs),
(196,-347,o),
(199,-285,o),
(197,-104,cs),
(195,51,o),
(190,206,o),
(197,361,cs),
(213,700,l),
(213,700,o),
(177,228,o),
(36,128,c)
);
}
);
width = 345;
},
{
anchors = (
{
name = bottom;
pos = (173,0);
},
{
name = top;
pos = (173,650);
}
);
layerId = m005;
shapes = (
{
closed = 0;
nodes = (
(345,151,l),
(332,88,o),
(83,-25,o),
(83,-244,cs),
(83,-305,o),
(105,-347,o),
(144,-347,cs),
(196,-347,o),
(199,-285,o),
(197,-104,cs),
(195,51,o),
(190,206,o),
(197,361,cs),
(213,700,l),
(213,700,o),
(177,228,o),
(36,128,c)
);
}
);
width = 345;
}
);
},
{
export = 0;
glyphname = K.ss02;
lastChange = "2025-12-15 08:39:03 +0000";
layers = (
{
layerId = "6F9C6BB4-2DCF-443B-A55D-9CE049090094";
shapes = (
{
closed = 0;
nodes = (
(501,756,l),
(158,387,l),
(388,103,ls),
(425,57,o),
(487,0,o),
(543,0,cs),
(579,0,o),
(641,54,o),
(705,162,cs)
);
},
{
closed = 0;
nodes = (
(137,756,l),
(114,0,l)
);
}
);
width = 792;
},
{
layerId = m002;
shapes = (
{
closed = 0;
nodes = (
(417,700,l),
(100,358,l),
(313,95,ls),
(347,53,o),
(404,0,o),
(456,0,cs),
(490,0,o),
(547,50,o),
(606,150,cs)
);
},
{
closed = 0;
nodes = (
(80,700,l),
(59,0,l)
);
}
);
width = 606;
},
{
layerId = "F3447581-435E-44E2-ABAC-414C89955411";
shapes = (
{
closed = 0;
nodes = (
(417,700,l),
(100,358,l),
(313,95,ls),
(347,53,o),
(404,0,o),
(456,0,cs),
(490,0,o),
(547,50,o),
(606,150,cs)
);
},
{
closed = 0;
nodes = (
(80,700,l),
(59,0,l)
);
}
);
width = 606;
},
{
layerId = m004;
shapes = (
{
closed = 0;
nodes = (
(417,700,l),
(100,358,l),
(313,95,ls),
(347,53,o),
(404,0,o),
(456,0,cs),
(490,0,o),
(547,50,o),
(606,150,cs)
);
},
{
closed = 0;
nodes = (
(80,700,l),
(59,0,l)
);
}
);
width = 606;
},
{
layerId = m005;
shapes = (
{
closed = 0;
nodes = (
(417,700,l),
(100,358,l),
(313,95,ls),
(347,53,o),
(404,0,o),
(456,0,cs),
(490,0,o),
(547,50,o),
(606,150,cs)
);
},
{
closed = 0;
nodes = (
(80,700,l),
(59,0,l)
);
}
);
width = 606;
}
);
},
{
export = 0;
glyphname = L.ss02;
lastChange = "2025-12-15 08:39:03 +0000";
layers = (
{
layerId = "6F9C6BB4-2DCF-443B-A55D-9CE049090094";
shapes = (
{
closed = 0;
nodes = (
(139,756,l),
(111,2,l),
(130,13,o),
(161,15,o),
(183,15,cs),
(275,15,o),
(249,0,o),
(341,0,cs),
(378,0,o),
(439,54,o),
(503,162,cs)
);
}
);
width = 590;
},
{
layerId = m002;
shapes = (
{
closed = 0;
nodes = (
(83,700,l),
(57,2,l),
(75,12,o),
(103,14,o),
(124,14,cs),
(209,14,o),
(185,0,o),
(270,0,cs),
(304,0,o),
(361,50,o),
(420,150,cs)
);
}
);
width = 420;
},
{
layerId = "F3447581-435E-44E2-ABAC-414C89955411";
shapes = (
{
closed = 0;
nodes = (
(83,700,l),
(57,2,l),
(75,12,o),
(103,14,o),
(124,14,cs),
(209,14,o),
(185,0,o),
(270,0,cs),
(304,0,o),
(361,50,o),
(420,150,cs)
);
}
);
width = 420;
},
{
layerId = m004;
shapes = (
{
closed = 0;
nodes = (
(83,700,l),
(57,2,l),
(75,12,o),
(103,14,o),
(124,14,cs),
(209,14,o),
(185,0,o),
(270,0,cs),
(304,0,o),
(361,50,o),
(420,150,cs)
);
}
);
width = 420;
},
{
layerId = m005;
shapes = (
{
closed = 0;
nodes = (
(83,700,l),
(57,2,l),
(75,12,o),
(103,14,o),
(124,14,cs),
(209,14,o),
(185,0,o),
(270,0,cs),
(304,0,o),
(361,50,o),
(420,150,cs)
);
}
);
width = 420;
}
);
},
{
export = 0;
glyphname = M.ss02;
lastChange = "2025-12-15 08:39:03 +0000";
layers = (
{
layerId = "6F9C6BB4-2DCF-443B-A55D-9CE049090094";
shapes = (
{
closed = 0;
nodes = (
(89,0,l),
(274,756,l),
(437,90,l),
(800,756,l),
(801,204,o),
(785,0,o),
(846,0,cs)
);
},
{
closed = 0;
nodes = (
(961,162,ls),
(929,54,o),
(883,0,o),
(846,0,c)
);
}
);
width = 1049;
},
{
layerId = m002;
shapes = (
{
closed = 0;
nodes = (
(38,0,l),
(209,700,l),
(360,83,l),
(696,700,l),
(697,189,o),
(682,0,o),
(739,0,cs)
);
},
{
closed = 0;
nodes = (
(845,150,ls),
(816,50,o),
(773,0,o),
(739,0,c)
);
}
);
width = 845;
},
{
layerId = "F3447581-435E-44E2-ABAC-414C89955411";
shapes = (
{
closed = 0;
nodes = (
(38,0,l),
(209,700,l),
(360,83,l),
(696,700,l),
(697,189,o),
(682,0,o),
(739,0,cs)
);
},
{
closed = 0;
nodes = (
(845,150,ls),
(816,50,o),
(773,0,o),
(739,0,c)
);
}
);
width = 845;
},
{
layerId = m004;
shapes = (
{
closed = 0;
nodes = (
(38,0,l),
(209,700,l),
(360,83,l),
(696,700,l),
(697,189,o),
(682,0,o),
(739,0,cs)
);
},
{
closed = 0;
nodes = (
(845,150,ls),
(816,50,o),
(773,0,o),
(739,0,c)
);
}
);
width = 845;
},
{
layerId = m005;
shapes = (
{
closed = 0;
nodes = (
(38,0,l),
(209,700,l),
(360,83,l),
(696,700,l),
(697,189,o),
(682,0,o),
(739,0,cs)
);
},
{
closed = 0;
nodes = (
(845,150,ls),
(816,50,o),
(773,0,o),
(739,0,c)
);
}
);
width = 845;
}
);
},
{
export = 0;
glyphname = N.ss02;
lastChange = "2025-12-15 08:39:03 +0000";
layers = (
{
layerId = "6F9C6BB4-2DCF-443B-A55D-9CE049090094";
shapes = (
{
closed = 0;
nodes = (
(574,756,l),
(547,0,l),
(510,91,o),
(170,648,o),
(139,755,c),
(111,2,l)
);
}
);
width = 686;
},
{
layerId = m002;
shapes = (
{
closed = 0;
nodes = (
(486,700,l),
(461,0,l),
(426,84,o),
(112,600,o),
(83,699,c),
(57,2,l)
);
}
);
width = 543;
},
{
layerId = "F3447581-435E-44E2-ABAC-414C89955411";
shapes = (
{
closed = 0;
nodes = (
(486,700,l),
(461,0,l),
(426,84,o),
(112,600,o),
(83,699,c),
(57,2,l)
);
}
);
width = 543;
},
{
layerId = m004;
shapes = (
{
closed = 0;
nodes = (
(486,700,l),
(461,0,l),
(426,84,o),
(112,600,o),
(83,699,c),
(57,2,l)
);
}
);
width = 543;
},
{
layerId = m005;
shapes = (
{
closed = 0;
nodes = (
(486,700,l),
(461,0,l),
(426,84,o),
(112,600,o),
(83,699,c),
(57,2,l)
);
}
);
width = 543;
}
);
},
{
export = 0;
glyphname = O.ss02;
lastChange = "2025-12-15 08:39:03 +0000";
layers = (
{
layerId = "6F9C6BB4-2DCF-443B-A55D-9CE049090094";
shapes = (
{
closed = 0;
nodes = (
(200,184,l),
(128,184,o),
(96,253,o),
(96,342,cs),
(96,512,o),
(208,756,o),
(397,756,cs),
(566,756,o),
(658,610,o),
(658,426,cs),
(658,221,o),
(543,0,o),
(338,0,cs),
(254,0,o),
(187,32,o),
(145,83,c)
);
}
);
width = 757;
},
{
layerId = m002;
shapes = (
{
closed = 0;
nodes = (
(140,170,l),
(74,170,o),
(44,234,o),
(44,317,cs),
(44,474,o),
(148,700,o),
(323,700,cs),
(479,700,o),
(564,565,o),
(564,394,cs),
(564,205,o),
(458,0,o),
(268,0,cs),
(190,0,o),
(128,30,o),
(89,77,c)
);
}
);
width = 690;
},
{
layerId = "F3447581-435E-44E2-ABAC-414C89955411";
shapes = (
{
closed = 0;
nodes = (
(140,170,l),
(74,170,o),
(44,234,o),
(44,317,cs),
(44,474,o),
(148,700,o),
(323,700,cs),
(479,700,o),
(564,565,o),
(564,394,cs),
(564,205,o),
(458,0,o),
(268,0,cs),
(190,0,o),
(128,30,o),
(89,77,c)
);
}
);
width = 690;
},
{
layerId = m004;
shapes = (
{
closed = 0;
nodes = (
(140,170,l),
(74,170,o),
(44,234,o),
(44,317,cs),
(44,474,o),
(148,700,o),
(323,700,cs),
(479,700,o),
(564,565,o),
(564,394,cs),
(564,205,o),
(458,0,o),
(268,0,cs),
(190,0,o),
(128,30,o),
(89,77,c)
);
}
);
width = 690;
},
{
layerId = m005;
shapes = (
{
closed = 0;
nodes = (
(140,170,l),
(74,170,o),
(44,234,o),
(44,317,cs),
(44,474,o),
(148,700,o),
(323,700,cs),
(479,700,o),
(564,565,o),
(564,394,cs),
(564,205,o),
(458,0,o),
(268,0,cs),
(190,0,o),
(128,30,o),
(89,77,c)
);
}
);
width = 690;
}
);
},
